<svg id="basic" xmlns="http://www.w3.org/2000/svg" viewBox="0 0 216.47 264.57"><defs><style>.cls-1{fill:#828282;}</style></defs><title>img-share</title><path class="cls-1" d="M1041.66,1609.79H897.34a36.08,36.08,0,0,1-36.08-36.08V1477.5a12,12,0,1,1,24.05,0v96.21a12,12,0,0,0,12,12h144.31a12,12,0,0,0,12-12V1477.5a12,12,0,0,1,24.05,0v96.21a36.08,36.08,0,0,1-36.08,36.08Z" transform="translate(-861.27 -1345.21)"/><path class="cls-1" d="M1017.6,1417.37a12,12,0,0,1-8.5-3.52l-39.6-39.6-39.6,39.6a12,12,0,1,1-17-17l48.1-48.1a12,12,0,0,1,17,0l48.1,48.1a12,12,0,0,1-8.5,20.53Z" transform="translate(-861.27 -1345.21)"/><path class="cls-1" d="M969.5,1525.6a12,12,0,0,1-12-12V1357.24a12,12,0,1,1,24.05,0v156.34A12,12,0,0,1,969.5,1525.6Z" transform="translate(-861.27 -1345.21)"/></svg>