<svg id="basic" xmlns="http://www.w3.org/2000/svg" xmlns:xlink="http://www.w3.org/1999/xlink" viewBox="0 0 118.91 64.74"><defs><style>.cls-1{fill:url(#linear-gradient);}.cls-2{fill:#1d1d1d;}</style><linearGradient id="linear-gradient" x1="2342.91" y1="-351.82" x2="2265.77" y2="-351.82" gradientTransform="matrix(1, 0, 0, -1, 0, 1184)" gradientUnits="userSpaceOnUse"><stop offset="0" stop-color="#30f"/><stop offset="1" stop-color="#b41d8d"/></linearGradient></defs><title>img-logo</title><path class="cls-1" d="M2265.54,1540.28c1.61,1.56,4.66,3.31,7.27,3.31,3.65,0,6.7-2.66,7-5.5a2.37,2.37,0,0,0,.07-.58c0-5.64-9.55-6-9.55-8.26,0-1.08,1-2.06,2.64-2a3.91,3.91,0,0,1,3.38,1.25l2.78-2.14c-1.32-1.82-4.32-2.88-6.58-2.88a6.17,6.17,0,0,0-6.19,5.9c0,5.06,9.24,5.45,9.24,8.3,0,1.3-1.1,2-2.9,2a7.09,7.09,0,0,1-4.46-1.7Zm16.5,8.78h3.89l0-6a11.26,11.26,0,0,0,3.55.6,6.57,6.57,0,0,0,6.94-7,7.15,7.15,0,0,0-7.37-7.25,7.81,7.81,0,0,0-4.92,1.63c-.34.1-.5-.34-.65-.1a6.31,6.31,0,0,0-1.42,1.1Zm3.84-12.38v-.29a3.23,3.23,0,0,1,3.24-3.5c2,0,3.29,1.44,3.29,3.6a3.32,3.32,0,0,1-3.29,3.65A3.21,3.21,0,0,1,2285.88,1536.68Zm12.75-.17a6.91,6.91,0,0,0,6.1,7.08,5.52,5.52,0,0,0,4.44-1.54v1.34H2313v-13a13.57,13.57,0,0,0-1.56-.36,3.73,3.73,0,0,0-.91.1,13.84,13.84,0,0,0-4.94-.79c-.34,0-.62,0-.89,0A6.93,6.93,0,0,0,2298.63,1536.52Zm4,0a3.29,3.29,0,1,1,6.55,0v.07a3.26,3.26,0,0,1-3.26,3.55C2304,1540.14,2302.66,1538.7,2302.66,1536.52Zm13.14,6.89h3.89v-7.18a3,3,0,0,1,2.4-3.12,6.55,6.55,0,0,1,2.3.1,6.74,6.74,0,0,0,.86.1l1-3.5c-.24,0-.82-.24-1.73-.38-.34,0-.72,0-1.15,0a4.94,4.94,0,0,0-3.7,1.85v-1.66h-3.89Zm13,0h3.89V1538l5.5,5.42h5.18l-7.18-7.08,6.43-6.72h-5.21l-4.73,5v-12h-3.89Z" transform="translate(-2265.54 -1509.63)"/><path class="cls-2" d="M2277.81,1570.08h1.33a2.76,2.76,0,0,1,.08-.72l.06-.21.18.13a5.08,5.08,0,0,0,2.83.94c.26,0,.56,0,.85,0a4.37,4.37,0,0,0,3.92-4.26,3.75,3.75,0,0,0,0-.74,4.43,4.43,0,0,0-3.9-4.13h0a2.75,2.75,0,0,0-.53,0,7.87,7.87,0,0,0-2.34.4l-.21.06,0-4.9h-2.26Zm2.24-3.81v-.93a2.32,2.32,0,0,1,2.32-2.11,2.38,2.38,0,0,1,2.35,2.58,2.35,2.35,0,0,1-2.35,2.58A2.32,2.32,0,0,1,2280.05,1566.28Zm8.76-4.75,3.68,6.43-3,5.47,1.7.94,7.12-12.85H2296l-2.37,4.38-2.34-4.38Zm14.76,8.72h2.34l0-5.25a1.66,1.66,0,0,1,1.74-1.82c1.07,0,1.66.64,1.73,1.87v0l0,5.18h2.29l0-5.2v0c.08-1.22.67-1.86,1.74-1.86s1.66.62,1.74,1.81q0,.53,0,1.1v4.16h2.26v-4.85c0-.24,0-.46,0-.69-.11-2.11-1.62-3.5-4-3.49a3.27,3.27,0,0,0-2.77,1.15l-.11.13-.13-.14a3.16,3.16,0,0,0-2.75-1.14,3.64,3.64,0,0,0-1.94.51l-.24.14v-.58h-1.92Zm16.3,0h2.34V1566a7.66,7.66,0,0,1,0-.86,1.85,1.85,0,0,1,1.94-2c1.33,0,2,.85,2,2.45l0,4.62h2.26l0-5c0-2.48-1.57-4-4.22-4a3.85,3.85,0,0,0-2.14.59l-.24.16v-.67h-1.92Zm10.67-4.29a4.4,4.4,0,0,0,3.92,4.26c.29,0,.59,0,.85,0a5.09,5.09,0,0,0,2.83-.94l.18-.13.06.21a2.55,2.55,0,0,1,.08.72h1.34v-13.46h-2.27l0,4.91-.22-.1a5.15,5.15,0,0,0-1.94-.38,6.09,6.09,0,0,0-1.18.1h0a4.42,4.42,0,0,0-3.63,4.06A3.77,3.77,0,0,0,2330.54,1566Zm2.34-.14a2.37,2.37,0,0,1,2.35-2.58,2.34,2.34,0,0,1,2.32,2.11v1a2.31,2.31,0,0,1-2.32,2.08A2.35,2.35,0,0,1,2332.87,1565.81Z" transform="translate(-2265.54 -1509.63)"/><path class="cls-2" d="M2345.81,1523.08h1.33a2.76,2.76,0,0,1,.08-.72l.06-.21.18.13a5.08,5.08,0,0,0,2.83.94c.26,0,.56,0,.85,0a4.37,4.37,0,0,0,3.92-4.26,3.74,3.74,0,0,0,0-.74,4.43,4.43,0,0,0-3.9-4.13h0a2.75,2.75,0,0,0-.53,0,7.87,7.87,0,0,0-2.34.4l-.21.06,0-4.9h-2.26Zm2.24-3.81v-.93a2.32,2.32,0,0,1,2.32-2.11,2.38,2.38,0,0,1,2.35,2.58,2.35,2.35,0,0,1-2.35,2.58A2.32,2.32,0,0,1,2348.05,1519.28Zm9.1-.3a4.56,4.56,0,0,0,4.59,4.59,4.16,4.16,0,0,0,4-2.32l-1.86-.42a2.58,2.58,0,0,1-2.19.86,2.4,2.4,0,0,1-2.22-2l0-.19H2366c0-3.23-1.58-5.17-4.42-5.17A4.48,4.48,0,0,0,2357.15,1519Zm2.35-1,0-.19a2.08,2.08,0,0,1,2.08-1.84,2.13,2.13,0,0,1,2.14,1.86l0,.18Zm8-1.65h1.28l0,2.75c0,.34,0,.67,0,1,.06,1.49.56,2.83,2.42,3a7.9,7.9,0,0,0,1.81-.14l-.34-2a1.94,1.94,0,0,1-.93-.06c-.46-.14-.67-.61-.7-1.34,0-.19,0-.37,0-.58v-2.7h1.78v-1.87h-1.78v-2.83h-2.27v2.83h-1.28Zm3.57,3.44v0Zm4.08-.93a4.46,4.46,0,0,0,3.92,4.56,3.5,3.5,0,0,0,2.83-1l.27-.26v1.1h2.26v-8.35c-.26-.06-.59-.16-.9-.21a2.37,2.37,0,0,0-.56.06h0l0,0a9.16,9.16,0,0,0-3.23-.51c-.22,0-.4,0-.58,0A4.47,4.47,0,0,0,2375.18,1518.81Zm2.37,0a2.35,2.35,0,1,1,4.69,0v0a2.35,2.35,0,1,1-4.69,0Z" transform="translate(-2265.54 -1509.63)"/></svg>