<svg id="basic" xmlns="http://www.w3.org/2000/svg" viewBox="0 0 266.67 207.31"><defs><style>.cls-1,.cls-2,.cls-3{fill:none;stroke:#333;stroke-linecap:round;stroke-linejoin:round;}.cls-1{stroke-width:16.67px;}.cls-2{stroke-width:16.67px;}.cls-3{stroke-width:16.67px;}</style></defs><title>img-games</title><g id="games"><path class="cls-1" d="M1986.93,1433.2c-3.13,0-19.88,4.63-35.13,8a88.87,88.87,0,0,1-19.5,2.06h0a136.73,136.73,0,0,1-30.4-3.6c-13.1-3.06-25.66-6.43-28.33-6.43-78.39-2.27-89.18,183.8-26.47,190.61,48.92,1.13,17.7-71.25,83-68.08h.29c65.3-3.17,34.09,69.22,83,68.08C2076.12,1617,2073,1440.49,1986.93,1433.2Z" transform="translate(-1798.17 -1424.85)"/><path class="cls-2" d="M1868.67,1471.87a32.81,32.81,0,1,0,32.44,32.81A32.62,32.62,0,0,0,1868.67,1471.87Z" transform="translate(-1798.17 -1424.85)"/><line class="cls-3" x1="160.83" y1="78.22" x2="227.83" y2="78.22"/><line class="cls-3" x1="194.33" y1="112.72" x2="194.33" y2="46.72"/></g></svg>