<svg id="basic" xmlns="http://www.w3.org/2000/svg" viewBox="0 0 266.67 266.67"><defs><style>.cls-1{fill:none;}.cls-1,.cls-2{stroke:#333;stroke-width:16.67px;}.cls-2{fill:#fff;stroke-miterlimit:10;}</style></defs><title>img-food</title><g id="food"><path class="cls-1" d="M1921,1409.54,1808.26,1604a13.13,13.13,0,0,0,4.32,17.61c30.69,18.11,125.17,61.88,237.39-.25a13.07,13.07,0,0,0,4.8-17.86l-113.18-193.93A11.82,11.82,0,0,0,1921,1409.54Z" transform="translate(-1798.17 -1395.17)"/><path class="cls-2" d="M1821.45,1581.33,1808.26,1604a13.13,13.13,0,0,0,4.32,17.61c30.69,18.11,125.17,61.88,237.39-.25a13.07,13.07,0,0,0,4.8-17.86l-11-18.86s-44.84,33.45-110.3,33.45S1821.45,1581.33,1821.45,1581.33Z" transform="translate(-1798.17 -1395.17)"/><path class="cls-1" d="M1932.33,1493.69c14.3,0,25.9-11.94,25.9-26.66s-11.6-26.66-25.9-26.66-25.9,11.94-25.9,26.66S1918,1493.69,1932.33,1493.69Z" transform="translate(-1798.17 -1395.17)"/><path class="cls-1" d="M1983.33,1599.69c14.3,0,25.9-11.94,25.9-26.66s-11.6-26.66-25.9-26.66-25.9,11.94-25.9,26.66S1969,1599.69,1983.33,1599.69Z" transform="translate(-1798.17 -1395.17)"/><path class="cls-1" d="M1904.67,1581.58c19.2,0,34.77-16.1,34.77-36s-15.57-36-34.77-36-34.77,16.1-34.77,36S1885.47,1581.58,1904.67,1581.58Z" transform="translate(-1798.17 -1395.17)"/></g></svg>