<svg xmlns="http://www.w3.org/2000/svg" xmlns:xlink="http://www.w3.org/1999/xlink" viewBox="0 0 270.79 242.37"><defs><style>.cls-1{fill:url(#linear-gradient);}.cls-2{fill:#fff;}.cls-3{fill:url(#linear-gradient-2);}.cls-4{fill:url(#linear-gradient-3);}.cls-5{fill:url(#linear-gradient-4);}.cls-6{fill:url(#linear-gradient-5);}.cls-7{fill:url(#linear-gradient-6);}.cls-8{fill:url(#linear-gradient-7);}.cls-9{fill:url(#linear-gradient-8);}.cls-10{fill:url(#linear-gradient-9);}.cls-11{fill:url(#linear-gradient-10);}.cls-12{fill:url(#linear-gradient-11);}.cls-13{fill:url(#linear-gradient-12);}.cls-14{fill:url(#linear-gradient-13);}.cls-15{fill:url(#linear-gradient-14);}.cls-16{fill:url(#linear-gradient-15);}.cls-17{fill:url(#linear-gradient-16);}.cls-18{isolation:isolate;}.cls-19{clip-path:url(#clip-path);}.cls-20,.cls-24,.cls-49{mix-blend-mode:multiply;}.cls-21{fill:url(#linear-gradient-18);}.cls-22{fill:url(#linear-gradient-19);}.cls-23{clip-path:url(#clip-path-2);}.cls-24{opacity:0.5;}.cls-25{fill:url(#linear-gradient-20);}.cls-26{clip-path:url(#clip-path-3);}.cls-27{fill:url(#linear-gradient-22);}.cls-28{clip-path:url(#clip-path-4);}.cls-29{fill:url(#linear-gradient-24);}.cls-30{fill:url(#linear-gradient-25);}.cls-31{clip-path:url(#clip-path-5);}.cls-32{fill:url(#linear-gradient-26);}.cls-33{clip-path:url(#clip-path-6);}.cls-34{fill:url(#linear-gradient-28);}.cls-35{clip-path:url(#clip-path-7);}.cls-36{fill:url(#linear-gradient-30);}.cls-37{fill:url(#linear-gradient-31);}.cls-38{clip-path:url(#clip-path-8);}.cls-39{fill:url(#linear-gradient-32);}.cls-40{clip-path:url(#clip-path-9);}.cls-41{fill:url(#linear-gradient-34);}.cls-42{clip-path:url(#clip-path-10);}.cls-43{fill:url(#linear-gradient-36);}.cls-44{fill:url(#linear-gradient-37);}.cls-45{clip-path:url(#clip-path-11);}.cls-46{fill:url(#linear-gradient-38);}.cls-47{clip-path:url(#clip-path-12);}.cls-48{fill:url(#linear-gradient-40);}.cls-49{opacity:0.3;}.cls-50{fill:url(#linear-gradient-41);}.cls-51{clip-path:url(#clip-path-13);}.cls-52{fill:url(#linear-gradient-43);}.cls-53{fill:url(#linear-gradient-44);}.cls-54{clip-path:url(#clip-path-14);}.cls-55{fill:url(#linear-gradient-45);}.cls-56{clip-path:url(#clip-path-15);}.cls-57{fill:url(#linear-gradient-47);}.cls-58{clip-path:url(#clip-path-16);}.cls-59{fill:url(#linear-gradient-49);}.cls-60{fill:url(#linear-gradient-50);}.cls-61{clip-path:url(#clip-path-17);}.cls-62{fill:url(#linear-gradient-51);}.cls-63{clip-path:url(#clip-path-18);}.cls-64{fill:url(#linear-gradient-53);}.cls-65{clip-path:url(#clip-path-19);}.cls-66{fill:url(#linear-gradient-55);}.cls-67{fill:url(#linear-gradient-56);}.cls-68{clip-path:url(#clip-path-20);}.cls-69{fill:url(#linear-gradient-57);}.cls-70{clip-path:url(#clip-path-21);}.cls-71{fill:url(#linear-gradient-59);}.cls-72{clip-path:url(#clip-path-22);}.cls-73{fill:url(#linear-gradient-61);}.cls-74{fill:url(#linear-gradient-62);}.cls-75{clip-path:url(#clip-path-23);}.cls-76{fill:url(#linear-gradient-63);}.cls-77{clip-path:url(#clip-path-24);}.cls-78{fill:url(#linear-gradient-65);}</style><linearGradient id="linear-gradient" x1="331.96" y1="1567.33" x2="476.9" y2="1567.33" gradientUnits="userSpaceOnUse"><stop offset="0" stop-color="#b41d8d"/><stop offset="1" stop-color="#30f"/></linearGradient><linearGradient id="linear-gradient-2" x1="-63.59" y1="574.56" x2="-63.59" y2="640.28" gradientTransform="translate(-203 1353) rotate(-90)" xlink:href="#linear-gradient"/><linearGradient id="linear-gradient-3" x1="400.96" y1="1606.33" x2="545.9" y2="1606.33" xlink:href="#linear-gradient"/><linearGradient id="linear-gradient-4" x1="-219.59" y1="643.56" x2="-219.59" y2="709.28" gradientTransform="translate(-203 1353) rotate(-90)" xlink:href="#linear-gradient"/><linearGradient id="linear-gradient-5" x1="400.96" y1="1567.33" x2="545.9" y2="1567.33" xlink:href="#linear-gradient"/><linearGradient id="linear-gradient-6" x1="-180.59" y1="643.56" x2="-180.59" y2="709.28" gradientTransform="translate(-203 1353) rotate(-90)" xlink:href="#linear-gradient"/><linearGradient id="linear-gradient-7" x1="400.96" y1="1528.33" x2="545.9" y2="1528.33" xlink:href="#linear-gradient"/><linearGradient id="linear-gradient-8" x1="-180.59" y1="574.56" x2="-180.59" y2="640.28" gradientTransform="translate(-203 1353) rotate(-90)" xlink:href="#linear-gradient"/><linearGradient id="linear-gradient-9" x1="-141.59" y1="643.56" x2="-141.59" y2="709.28" gradientTransform="translate(-203 1353) rotate(-90)" xlink:href="#linear-gradient"/><linearGradient id="linear-gradient-10" x1="-357.74" y1="994.5" x2="-212.8" y2="994.5" gradientTransform="matrix(0.65, -0.76, 0.76, 0.65, -218.42, 708.2)" xlink:href="#linear-gradient"/><linearGradient id="linear-gradient-11" x1="392.24" y1="-115.14" x2="392.24" y2="-49.42" gradientTransform="matrix(-0.76, -0.65, 0.65, -0.76, 673.32, 1745.8)" xlink:href="#linear-gradient"/><linearGradient id="linear-gradient-12" x1="331.96" y1="1528.33" x2="476.9" y2="1528.33" xlink:href="#linear-gradient"/><linearGradient id="linear-gradient-13" x1="-141.59" y1="574.56" x2="-141.59" y2="640.28" gradientTransform="translate(-203 1353) rotate(-90)" xlink:href="#linear-gradient"/><linearGradient id="linear-gradient-14" x1="331.96" y1="1489.33" x2="476.9" y2="1489.33" xlink:href="#linear-gradient"/><linearGradient id="linear-gradient-15" x1="-102.59" y1="574.56" x2="-102.59" y2="640.28" gradientTransform="translate(-203 1353) rotate(-90)" xlink:href="#linear-gradient"/><linearGradient id="linear-gradient-16" x1="331.96" y1="1450.33" x2="476.9" y2="1450.33" xlink:href="#linear-gradient"/><clipPath id="clip-path" transform="translate(-275.1 -1394.32)"><path class="cls-1" d="M332.08,1572.92c14.35,17.17,38.82,24.46,71.45,24.76,23.56.21,58.9-5.59,73.26-24.92.25-.19,0-35.77,0-35.77H332.06C332.06,1537.17,331.82,1572.67,332.08,1572.92Z"/></clipPath><linearGradient id="linear-gradient-18" x1="399.63" y1="1567.33" x2="544.56" y2="1567.33" xlink:href="#linear-gradient"/><linearGradient id="linear-gradient-19" x1="332.06" y1="1538.44" x2="476.79" y2="1538.44" xlink:href="#linear-gradient"/><clipPath id="clip-path-2" transform="translate(-275.1 -1394.32)"><path id="_Clipping_Path_" data-name="&lt;Clipping Path&gt;" class="cls-2" d="M350.15,1532.7c0,10.27,23.72,17.39,53.9,17.39s54.65-7.11,54.65-17.39c-.27-6-22.77-16.35-54.65-15.56C373.87,1517.14,350.43,1526.08,350.15,1532.7Z"/></clipPath><linearGradient id="linear-gradient-20" x1="-174.34" y1="549.58" x2="-174.34" y2="675.75" gradientTransform="translate(-203 1353) rotate(-90)" xlink:href="#linear-gradient"/><clipPath id="clip-path-3" transform="translate(-275.1 -1394.32)"><polygon class="cls-9" points="371.56 1531.26 411.39 1545.25 411.39 1534.37 437.28 1537.48 399.44 1521.94 399.44 1534.37 371.56 1531.26"/></clipPath><linearGradient id="linear-gradient-22" x1="-176.47" y1="569.56" x2="-176.47" y2="645.29" gradientTransform="translate(-478.1 -41.32) rotate(-90)" xlink:href="#linear-gradient"/><clipPath id="clip-path-4" transform="translate(-275.1 -1394.32)"><path class="cls-13" d="M332.08,1533.92c14.35,17.17,38.82,24.46,71.45,24.76,23.56.21,58.9-5.59,73.26-24.92.25-.19,0-35.77,0-35.77H332.06C332.06,1498.17,331.82,1533.67,332.08,1533.92Z"/></clipPath><linearGradient id="linear-gradient-24" x1="399.63" y1="1528.33" x2="544.56" y2="1528.33" xlink:href="#linear-gradient"/><linearGradient id="linear-gradient-25" x1="332.06" y1="1499.44" x2="476.79" y2="1499.44" xlink:href="#linear-gradient"/><clipPath id="clip-path-5" transform="translate(-275.1 -1394.32)"><path id="_Clipping_Path_2" data-name="&lt;Clipping Path&gt;" class="cls-2" d="M350.15,1493.7c0,10.27,23.72,17.39,53.9,17.39s54.65-7.11,54.65-17.39c-.27-6-22.77-16.35-54.65-15.56C373.87,1478.14,350.43,1487.08,350.15,1493.7Z"/></clipPath><linearGradient id="linear-gradient-26" x1="-135.34" y1="549.58" x2="-135.34" y2="675.75" gradientTransform="translate(-203 1353) rotate(-90)" xlink:href="#linear-gradient"/><clipPath id="clip-path-6" transform="translate(-275.1 -1394.32)"><polygon class="cls-14" points="371.56 1492.26 411.39 1506.25 411.39 1495.37 437.28 1498.48 399.44 1482.94 399.44 1495.37 371.56 1492.26"/></clipPath><linearGradient id="linear-gradient-28" x1="-137.47" y1="569.56" x2="-137.47" y2="645.29" gradientTransform="translate(-478.1 -41.32) rotate(-90)" xlink:href="#linear-gradient"/><clipPath id="clip-path-7" transform="translate(-275.1 -1394.32)"><path class="cls-15" d="M332.08,1494.92c14.35,17.17,38.82,24.46,71.45,24.76,23.56.21,58.9-5.59,73.26-24.92.25-.19,0-35.77,0-35.77H332.06C332.06,1459.17,331.82,1494.67,332.08,1494.92Z"/></clipPath><linearGradient id="linear-gradient-30" x1="399.29" y1="1489.33" x2="544.23" y2="1489.33" xlink:href="#linear-gradient"/><linearGradient id="linear-gradient-31" x1="332.06" y1="1460.44" x2="476.79" y2="1460.44" xlink:href="#linear-gradient"/><clipPath id="clip-path-8" transform="translate(-275.1 -1394.32)"><path id="_Clipping_Path_3" data-name="&lt;Clipping Path&gt;" class="cls-2" d="M350.15,1454.7c0,10.27,23.72,17.39,53.9,17.39s54.65-7.11,54.65-17.39c-.27-6-22.77-16.35-54.65-15.56C373.87,1439.14,350.43,1448.08,350.15,1454.7Z"/></clipPath><linearGradient id="linear-gradient-32" x1="-96.34" y1="549.58" x2="-96.34" y2="675.75" gradientTransform="translate(-203 1353) rotate(-90)" xlink:href="#linear-gradient"/><clipPath id="clip-path-9" transform="translate(-275.1 -1394.32)"><polygon class="cls-16" points="371.56 1453.26 411.39 1467.25 411.39 1456.37 437.28 1459.48 399.44 1443.94 399.44 1456.37 371.56 1453.26"/></clipPath><linearGradient id="linear-gradient-34" x1="-98.47" y1="569.56" x2="-98.47" y2="645.29" gradientTransform="translate(-478.1 -41.32) rotate(-90)" xlink:href="#linear-gradient"/><clipPath id="clip-path-10" transform="translate(-275.1 -1394.32)"><path class="cls-17" d="M332.08,1455.92c14.35,17.17,38.82,24.46,71.45,24.76,23.56.21,58.9-5.59,73.26-24.92.25-.19,0-35.77,0-35.77H332.06C332.06,1420.17,331.82,1455.67,332.08,1455.92Z"/></clipPath><linearGradient id="linear-gradient-36" x1="399.29" y1="1450.33" x2="544.23" y2="1450.33" xlink:href="#linear-gradient"/><linearGradient id="linear-gradient-37" x1="332.06" y1="1421.44" x2="476.79" y2="1421.44" xlink:href="#linear-gradient"/><clipPath id="clip-path-11" transform="translate(-275.1 -1394.32)"><path id="_Clipping_Path_4" data-name="&lt;Clipping Path&gt;" class="cls-2" d="M350.15,1415.7c0,10.27,23.72,17.39,53.9,17.39s54.65-7.11,54.65-17.39c-.27-6-22.77-16.35-54.65-15.56C373.87,1400.14,350.43,1409.08,350.15,1415.7Z"/></clipPath><linearGradient id="linear-gradient-38" x1="-57.34" y1="549.58" x2="-57.34" y2="675.75" gradientTransform="translate(-203 1353) rotate(-90)" xlink:href="#linear-gradient"/><clipPath id="clip-path-12" transform="translate(-275.1 -1394.32)"><polygon class="cls-3" points="371.56 1414.26 411.39 1428.25 411.39 1417.37 437.28 1420.48 399.44 1404.94 399.44 1417.37 371.56 1414.26"/></clipPath><linearGradient id="linear-gradient-40" x1="-59.47" y1="569.56" x2="-59.47" y2="645.29" gradientTransform="translate(-478.1 -41.32) rotate(-90)" xlink:href="#linear-gradient"/><linearGradient id="linear-gradient-41" x1="369.57" y1="1536.09" x2="445.98" y2="1536.09" xlink:href="#linear-gradient"/><clipPath id="clip-path-13" transform="translate(-275.1 -1394.32)"><path class="cls-4" d="M401.08,1611.92c14.35,17.17,38.82,24.46,71.45,24.76,23.56.21,58.9-5.59,73.26-24.92.25-.19,0-35.77,0-35.77H401.06C401.06,1576.17,400.82,1611.67,401.08,1611.92Z"/></clipPath><linearGradient id="linear-gradient-43" x1="468.29" y1="1606.33" x2="613.23" y2="1606.33" xlink:href="#linear-gradient"/><linearGradient id="linear-gradient-44" x1="401.06" y1="1577.44" x2="545.79" y2="1577.44" xlink:href="#linear-gradient"/><clipPath id="clip-path-14" transform="translate(-275.1 -1394.32)"><path id="_Clipping_Path_5" data-name="&lt;Clipping Path&gt;" class="cls-2" d="M419.15,1571.7c0,10.27,23.72,17.39,53.9,17.39s54.65-7.11,54.65-17.39c-.27-6-22.77-16.35-54.65-15.56C442.87,1556.14,419.43,1565.08,419.15,1571.7Z"/></clipPath><linearGradient id="linear-gradient-45" x1="-213.34" y1="618.58" x2="-213.34" y2="744.75" gradientTransform="translate(-203 1353) rotate(-90)" xlink:href="#linear-gradient"/><clipPath id="clip-path-15" transform="translate(-275.1 -1394.32)"><polygon class="cls-5" points="440.56 1570.26 480.39 1584.25 480.39 1573.37 506.28 1576.48 468.44 1560.94 468.44 1573.37 440.56 1570.26"/></clipPath><linearGradient id="linear-gradient-47" x1="-215.47" y1="638.56" x2="-215.47" y2="714.29" gradientTransform="translate(-478.1 -41.32) rotate(-90)" xlink:href="#linear-gradient"/><clipPath id="clip-path-16" transform="translate(-275.1 -1394.32)"><path class="cls-6" d="M401.08,1572.92c14.35,17.17,38.82,24.46,71.45,24.76,23.56.21,58.9-5.59,73.26-24.92.25-.19,0-35.77,0-35.77H401.06C401.06,1537.17,400.82,1572.67,401.08,1572.92Z"/></clipPath><linearGradient id="linear-gradient-49" x1="468.29" y1="1567.33" x2="613.23" y2="1567.33" xlink:href="#linear-gradient"/><linearGradient id="linear-gradient-50" x1="401.06" y1="1538.44" x2="545.79" y2="1538.44" xlink:href="#linear-gradient"/><clipPath id="clip-path-17" transform="translate(-275.1 -1394.32)"><path id="_Clipping_Path_6" data-name="&lt;Clipping Path&gt;" class="cls-2" d="M419.15,1532.7c0,10.27,23.72,17.39,53.9,17.39s54.65-7.11,54.65-17.39c-.27-6-22.77-16.35-54.65-15.56C442.87,1517.14,419.43,1526.08,419.15,1532.7Z"/></clipPath><linearGradient id="linear-gradient-51" x1="-174.34" y1="618.58" x2="-174.34" y2="744.75" gradientTransform="translate(-203 1353) rotate(-90)" xlink:href="#linear-gradient"/><clipPath id="clip-path-18" transform="translate(-275.1 -1394.32)"><polygon class="cls-7" points="440.56 1531.26 480.39 1545.25 480.39 1534.37 506.28 1537.48 468.44 1521.94 468.44 1534.37 440.56 1531.26"/></clipPath><linearGradient id="linear-gradient-53" x1="-176.47" y1="638.56" x2="-176.47" y2="714.29" gradientTransform="translate(-478.1 -41.32) rotate(-90)" xlink:href="#linear-gradient"/><clipPath id="clip-path-19" transform="translate(-275.1 -1394.32)"><path class="cls-8" d="M401.08,1533.92c14.35,17.17,38.82,24.46,71.45,24.76,23.56.21,58.9-5.59,73.26-24.92.25-.19,0-35.77,0-35.77H401.06C401.06,1498.17,400.82,1533.67,401.08,1533.92Z"/></clipPath><linearGradient id="linear-gradient-55" x1="468.29" y1="1528.33" x2="613.23" y2="1528.33" xlink:href="#linear-gradient"/><linearGradient id="linear-gradient-56" x1="401.06" y1="1499.44" x2="545.79" y2="1499.44" xlink:href="#linear-gradient"/><clipPath id="clip-path-20" transform="translate(-275.1 -1394.32)"><path id="_Clipping_Path_7" data-name="&lt;Clipping Path&gt;" class="cls-2" d="M419.15,1493.7c0,10.27,23.72,17.39,53.9,17.39s54.65-7.11,54.65-17.39c-.27-6-22.77-16.35-54.65-15.56C442.87,1478.14,419.43,1487.08,419.15,1493.7Z"/></clipPath><linearGradient id="linear-gradient-57" x1="-135.34" y1="618.58" x2="-135.34" y2="744.75" gradientTransform="translate(-203 1353) rotate(-90)" xlink:href="#linear-gradient"/><clipPath id="clip-path-21" transform="translate(-275.1 -1394.32)"><polygon class="cls-10" points="440.56 1492.26 480.39 1506.25 480.39 1495.37 506.28 1498.48 468.44 1482.94 468.44 1495.37 440.56 1492.26"/></clipPath><linearGradient id="linear-gradient-59" x1="-137.47" y1="638.56" x2="-137.47" y2="714.29" gradientTransform="translate(-478.1 -41.32) rotate(-90)" xlink:href="#linear-gradient"/><clipPath id="clip-path-22" transform="translate(-275.1 -1394.32)"><path class="cls-11" d="M305.11,1632.31c22.38.35,43.88-13.4,65.42-37.92,15.55-17.7,34.25-48.24,29-71.75,0-.31-27.08-23.37-27.08-23.37s-94.56,109.57-94.55,109.57S304.75,1632.34,305.11,1632.31Z"/></clipPath><linearGradient id="linear-gradient-61" x1="-289.6" y1="994.5" x2="-144.66" y2="994.5" gradientTransform="matrix(0.65, -0.76, 0.76, 0.65, -218.42, 708.2)" xlink:href="#linear-gradient"/><linearGradient id="linear-gradient-62" x1="-357.64" y1="965.61" x2="-212.91" y2="965.61" gradientTransform="matrix(0.65, -0.76, 0.76, 0.65, -218.42, 708.2)" xlink:href="#linear-gradient"/><clipPath id="clip-path-23" transform="translate(-275.1 -1394.32)"><path id="_Clipping_Path_8" data-name="&lt;Clipping Path&gt;" class="cls-2" d="M286.47,1592.35c7.78,6.71,28.66-6.6,48.37-29.45s30.32-46,22.54-52.73c-4.73-3.72-27.26,6.56-47.48,31.21C290.18,1564.23,281.63,1587.82,286.47,1592.35Z"/></clipPath><linearGradient id="linear-gradient-63" x1="398.5" y1="-140.12" x2="398.5" y2="-13.95" gradientTransform="matrix(-0.76, -0.65, 0.65, -0.76, 673.32, 1745.8)" xlink:href="#linear-gradient"/><clipPath id="clip-path-24" transform="translate(-275.1 -1394.32)"><polygon class="cls-12" points="299.37 1575.2 335.98 1554.18 327.74 1547.08 347.01 1529.51 310.52 1548 319.93 1556.12 299.37 1575.2"/></clipPath><linearGradient id="linear-gradient-65" x1="396.36" y1="-120.14" x2="396.36" y2="-44.41" gradientTransform="matrix(-0.76, -0.65, 0.65, -0.76, 398.21, 351.49)" xlink:href="#linear-gradient"/></defs><title>img-basic</title><g class="cls-18"><g id="basic"><g id="basic-2" data-name="basic"><path class="cls-1" d="M332.08,1572.92c14.35,17.17,38.82,24.46,71.45,24.76,23.56.21,58.9-5.59,73.26-24.92.25-.19,0-35.77,0-35.77H332.06C332.06,1537.17,331.82,1572.67,332.08,1572.92Z" transform="translate(-275.1 -1394.32)"/><g class="cls-19"><g class="cls-20"><path class="cls-21" d="M332.08,1572.92c14.35,17.17,38.82,24.46,71.45,24.76,23.56.21,58.9-5.59,73.26-24.92.25-.19,0-35.77,0-35.77H332.06C332.06,1537.17,331.82,1572.67,332.08,1572.92Z" transform="translate(-275.1 -1394.32)"/></g></g><path class="cls-22" d="M332.06,1537c0,16.9,31.62,28.59,71.86,28.59s72.86-11.7,72.86-28.59c-.36-9.89-30.36-26.89-72.86-25.59C363.68,1511.39,332.43,1526.09,332.06,1537Z" transform="translate(-275.1 -1394.32)"/><path id="_Clipping_Path_9" data-name="&lt;Clipping Path&gt;" class="cls-2" d="M350.15,1532.7c0,10.27,23.72,17.39,53.9,17.39s54.65-7.11,54.65-17.39c-.27-6-22.77-16.35-54.65-15.56C373.87,1517.14,350.43,1526.08,350.15,1532.7Z" transform="translate(-275.1 -1394.32)"/><g class="cls-23"><g class="cls-24"><path class="cls-25" d="M464.31,1525.1l-47.81-12.62-51,1.3L346.58,1531s2.94,5.2,3.85,7.09c-1-2-2-2,1.1-5.54,9.42-8.09,30.3-13.71,54.55-13.71,33.07,0,59.88,10.46,59.89,23.36l6.79-3.21Z" transform="translate(-275.1 -1394.32)"/></g></g><polygon class="cls-9" points="96.46 136.95 136.29 150.93 136.29 140.05 162.18 143.16 124.34 127.62 124.34 140.05 96.46 136.95"/><g class="cls-26"><g class="cls-24"><polygon class="cls-27" points="98.66 139.2 91.45 135.18 119.65 134.38 123.15 124.74 167.19 141.37 164.86 145.57 127.02 130.03 127.02 142.46 99.23 139.37 98.66 139.2"/></g></g><path class="cls-13" d="M332.08,1533.92c14.35,17.17,38.82,24.46,71.45,24.76,23.56.21,58.9-5.59,73.26-24.92.25-.19,0-35.77,0-35.77H332.06C332.06,1498.17,331.82,1533.67,332.08,1533.92Z" transform="translate(-275.1 -1394.32)"/><g class="cls-28"><g class="cls-20"><path class="cls-29" d="M332.08,1533.92c14.35,17.17,38.82,24.46,71.45,24.76,23.56.21,58.9-5.59,73.26-24.92.25-.19,0-35.77,0-35.77H332.06C332.06,1498.17,331.82,1533.67,332.08,1533.92Z" transform="translate(-275.1 -1394.32)"/></g></g><path class="cls-30" d="M332.06,1498c0,16.9,31.62,28.59,71.86,28.59s72.86-11.7,72.86-28.59c-.36-9.89-30.36-26.89-72.86-25.59C363.68,1472.39,332.43,1487.09,332.06,1498Z" transform="translate(-275.1 -1394.32)"/><path id="_Clipping_Path_10" data-name="&lt;Clipping Path&gt;" class="cls-2" d="M350.15,1493.7c0,10.27,23.72,17.39,53.9,17.39s54.65-7.11,54.65-17.39c-.27-6-22.77-16.35-54.65-15.56C373.87,1478.14,350.43,1487.08,350.15,1493.7Z" transform="translate(-275.1 -1394.32)"/><g class="cls-31"><g class="cls-24"><path class="cls-32" d="M464.31,1486.1l-47.81-12.62-51,1.3L346.58,1492s2.94,5.2,3.85,7.09c-1-2-2-2,1.1-5.54,9.42-8.09,30.3-13.71,54.55-13.71,33.07,0,59.88,10.46,59.89,23.36l6.79-3.21Z" transform="translate(-275.1 -1394.32)"/></g></g><polygon class="cls-14" points="96.46 97.95 136.29 111.93 136.29 101.05 162.18 104.16 124.34 88.62 124.34 101.05 96.46 97.95"/><g class="cls-33"><g class="cls-24"><polygon class="cls-34" points="98.66 100.2 91.45 96.18 119.65 95.38 123.15 85.74 167.19 102.36 164.86 106.57 127.02 91.03 127.02 103.46 99.23 100.36 98.66 100.2"/></g></g><path class="cls-15" d="M332.08,1494.92c14.35,17.17,38.82,24.46,71.45,24.76,23.56.21,58.9-5.59,73.26-24.92.25-.19,0-35.77,0-35.77H332.06C332.06,1459.17,331.82,1494.67,332.08,1494.92Z" transform="translate(-275.1 -1394.32)"/><g class="cls-35"><g class="cls-20"><path class="cls-36" d="M332.08,1494.92c14.35,17.17,38.82,24.46,71.45,24.76,23.56.21,58.9-5.59,73.26-24.92.25-.19,0-35.77,0-35.77H332.06C332.06,1459.17,331.82,1494.67,332.08,1494.92Z" transform="translate(-275.1 -1394.32)"/></g></g><path class="cls-37" d="M332.06,1459c0,16.9,31.62,28.59,71.86,28.59s72.86-11.7,72.86-28.59c-.36-9.89-30.36-26.89-72.86-25.59C363.68,1433.39,332.43,1448.09,332.06,1459Z" transform="translate(-275.1 -1394.32)"/><path id="_Clipping_Path_11" data-name="&lt;Clipping Path&gt;" class="cls-2" d="M350.15,1454.7c0,10.27,23.72,17.39,53.9,17.39s54.65-7.11,54.65-17.39c-.27-6-22.77-16.35-54.65-15.56C373.87,1439.14,350.43,1448.08,350.15,1454.7Z" transform="translate(-275.1 -1394.32)"/><g class="cls-38"><g class="cls-24"><path class="cls-39" d="M464.31,1447.1l-47.81-12.62-51,1.3L346.58,1453s2.94,5.2,3.85,7.09c-1-2-2-2,1.1-5.54,9.42-8.09,30.3-13.71,54.55-13.71,33.07,0,59.88,10.46,59.89,23.36l6.79-3.21Z" transform="translate(-275.1 -1394.32)"/></g></g><polygon class="cls-16" points="96.46 58.95 136.29 72.93 136.29 62.05 162.18 65.16 124.34 49.62 124.34 62.05 96.46 58.95"/><g class="cls-40"><g class="cls-24"><polygon class="cls-41" points="98.66 61.2 91.45 57.18 119.65 56.38 123.15 46.74 167.19 63.37 164.86 67.57 127.02 52.03 127.02 64.46 99.23 61.37 98.66 61.2"/></g></g><path class="cls-17" d="M332.08,1455.92c14.35,17.17,38.82,24.46,71.45,24.76,23.56.21,58.9-5.59,73.26-24.92.25-.19,0-35.77,0-35.77H332.06C332.06,1420.17,331.82,1455.67,332.08,1455.92Z" transform="translate(-275.1 -1394.32)"/><g class="cls-42"><g class="cls-20"><path class="cls-43" d="M332.08,1455.92c14.35,17.17,38.82,24.46,71.45,24.76,23.56.21,58.9-5.59,73.26-24.92.25-.19,0-35.77,0-35.77H332.06C332.06,1420.17,331.82,1455.67,332.08,1455.92Z" transform="translate(-275.1 -1394.32)"/></g></g><path class="cls-44" d="M332.06,1420c0,16.9,31.62,28.59,71.86,28.59s72.86-11.7,72.86-28.59c-.36-9.89-30.36-26.89-72.86-25.59C363.68,1394.39,332.43,1409.09,332.06,1420Z" transform="translate(-275.1 -1394.32)"/><path id="_Clipping_Path_12" data-name="&lt;Clipping Path&gt;" class="cls-2" d="M350.15,1415.7c0,10.27,23.72,17.39,53.9,17.39s54.65-7.11,54.65-17.39c-.27-6-22.77-16.35-54.65-15.56C373.87,1400.14,350.43,1409.08,350.15,1415.7Z" transform="translate(-275.1 -1394.32)"/><g class="cls-45"><g class="cls-24"><path class="cls-46" d="M464.31,1408.1l-47.81-12.62-51,1.3L346.58,1414s2.94,5.2,3.85,7.09c-1-2-2-2,1.1-5.54,9.42-8.09,30.3-13.71,54.55-13.71,33.07,0,59.88,10.46,59.89,23.36l6.79-3.21Z" transform="translate(-275.1 -1394.32)"/></g></g><polygon class="cls-3" points="96.46 19.95 136.29 33.93 136.29 23.05 162.18 26.16 124.34 10.62 124.34 23.05 96.46 19.95"/><g class="cls-47"><g class="cls-24"><polygon class="cls-48" points="98.66 22.2 91.45 18.18 119.65 17.38 123.15 7.74 167.19 24.36 164.86 28.57 127.02 13.03 127.02 25.46 99.23 22.36 98.66 22.2"/></g></g><g class="cls-49"><path class="cls-50" d="M391.4,1597.21s-15-1.12-21-3.12,21.33-31.16,21.33-31.16l.56-53.87a21.52,21.52,0,0,1,10.31-18.17A123.67,123.67,0,0,1,446,1474.65l-7.55,121.44S399.37,1598.34,391.4,1597.21Z" transform="translate(-275.1 -1394.32)"/></g><path class="cls-4" d="M401.08,1611.92c14.35,17.17,38.82,24.46,71.45,24.76,23.56.21,58.9-5.59,73.26-24.92.25-.19,0-35.77,0-35.77H401.06C401.06,1576.17,400.82,1611.67,401.08,1611.92Z" transform="translate(-275.1 -1394.32)"/><g class="cls-51"><g class="cls-20"><path class="cls-52" d="M401.08,1611.92c14.35,17.17,38.82,24.46,71.45,24.76,23.56.21,58.9-5.59,73.26-24.92.25-.19,0-35.77,0-35.77H401.06C401.06,1576.17,400.82,1611.67,401.08,1611.92Z" transform="translate(-275.1 -1394.32)"/></g></g><path class="cls-53" d="M401.06,1576c0,16.9,31.62,28.59,71.86,28.59s72.86-11.7,72.86-28.59c-.36-9.89-30.36-26.89-72.86-25.59C432.68,1550.39,401.43,1565.09,401.06,1576Z" transform="translate(-275.1 -1394.32)"/><path id="_Clipping_Path_13" data-name="&lt;Clipping Path&gt;" class="cls-2" d="M419.15,1571.7c0,10.27,23.72,17.39,53.9,17.39s54.65-7.11,54.65-17.39c-.27-6-22.77-16.35-54.65-15.56C442.87,1556.14,419.43,1565.08,419.15,1571.7Z" transform="translate(-275.1 -1394.32)"/><g class="cls-54"><g class="cls-24"><path class="cls-55" d="M533.31,1564.1l-47.81-12.62-51,1.3L415.58,1570s2.94,5.2,3.85,7.09c-1-2-2-2,1.1-5.54,9.42-8.09,30.3-13.71,54.55-13.71,33.07,0,59.88,10.46,59.89,23.36l6.79-3.21Z" transform="translate(-275.1 -1394.32)"/></g></g><polygon class="cls-5" points="165.46 175.95 205.29 189.93 205.29 179.05 231.18 182.16 193.34 166.62 193.34 179.05 165.46 175.95"/><g class="cls-56"><g class="cls-24"><polygon class="cls-57" points="167.66 178.2 160.45 174.18 188.65 173.38 192.15 163.74 236.19 180.37 233.86 184.57 196.02 169.03 196.02 181.46 168.23 178.37 167.66 178.2"/></g></g><path class="cls-6" d="M401.08,1572.92c14.35,17.17,38.82,24.46,71.45,24.76,23.56.21,58.9-5.59,73.26-24.92.25-.19,0-35.77,0-35.77H401.06C401.06,1537.17,400.82,1572.67,401.08,1572.92Z" transform="translate(-275.1 -1394.32)"/><g class="cls-58"><g class="cls-20"><path class="cls-59" d="M401.08,1572.92c14.35,17.17,38.82,24.46,71.45,24.76,23.56.21,58.9-5.59,73.26-24.92.25-.19,0-35.77,0-35.77H401.06C401.06,1537.17,400.82,1572.67,401.08,1572.92Z" transform="translate(-275.1 -1394.32)"/></g></g><path class="cls-60" d="M401.06,1537c0,16.9,31.62,28.59,71.86,28.59s72.86-11.7,72.86-28.59c-.36-9.89-30.36-26.89-72.86-25.59C432.68,1511.39,401.43,1526.09,401.06,1537Z" transform="translate(-275.1 -1394.32)"/><path id="_Clipping_Path_14" data-name="&lt;Clipping Path&gt;" class="cls-2" d="M419.15,1532.7c0,10.27,23.72,17.39,53.9,17.39s54.65-7.11,54.65-17.39c-.27-6-22.77-16.35-54.65-15.56C442.87,1517.14,419.43,1526.08,419.15,1532.7Z" transform="translate(-275.1 -1394.32)"/><g class="cls-61"><g class="cls-24"><path class="cls-62" d="M533.31,1525.1l-47.81-12.62-51,1.3L415.58,1531s2.94,5.2,3.85,7.09c-1-2-2-2,1.1-5.54,9.42-8.09,30.3-13.71,54.55-13.71,33.07,0,59.88,10.46,59.89,23.36l6.79-3.21Z" transform="translate(-275.1 -1394.32)"/></g></g><polygon class="cls-7" points="165.46 136.95 205.29 150.93 205.29 140.05 231.18 143.16 193.34 127.62 193.34 140.05 165.46 136.95"/><g class="cls-63"><g class="cls-24"><polygon class="cls-64" points="167.66 139.2 160.45 135.18 188.65 134.38 192.15 124.74 236.19 141.37 233.86 145.57 196.02 130.03 196.02 142.46 168.23 139.37 167.66 139.2"/></g></g><path class="cls-8" d="M401.08,1533.92c14.35,17.17,38.82,24.46,71.45,24.76,23.56.21,58.9-5.59,73.26-24.92.25-.19,0-35.77,0-35.77H401.06C401.06,1498.17,400.82,1533.67,401.08,1533.92Z" transform="translate(-275.1 -1394.32)"/><g class="cls-65"><g class="cls-20"><path class="cls-66" d="M401.08,1533.92c14.35,17.17,38.82,24.46,71.45,24.76,23.56.21,58.9-5.59,73.26-24.92.25-.19,0-35.77,0-35.77H401.06C401.06,1498.17,400.82,1533.67,401.08,1533.92Z" transform="translate(-275.1 -1394.32)"/></g></g><path class="cls-67" d="M401.06,1498c0,16.9,31.62,28.59,71.86,28.59s72.86-11.7,72.86-28.59c-.36-9.89-30.36-26.89-72.86-25.59C432.68,1472.39,401.43,1487.09,401.06,1498Z" transform="translate(-275.1 -1394.32)"/><path id="_Clipping_Path_15" data-name="&lt;Clipping Path&gt;" class="cls-2" d="M419.15,1493.7c0,10.27,23.72,17.39,53.9,17.39s54.65-7.11,54.65-17.39c-.27-6-22.77-16.35-54.65-15.56C442.87,1478.14,419.43,1487.08,419.15,1493.7Z" transform="translate(-275.1 -1394.32)"/><g class="cls-68"><g class="cls-24"><path class="cls-69" d="M533.31,1486.1l-47.81-12.62-51,1.3L415.58,1492s2.94,5.2,3.85,7.09c-1-2-2-2,1.1-5.54,9.42-8.09,30.3-13.71,54.55-13.71,33.07,0,59.88,10.46,59.89,23.36l6.79-3.21Z" transform="translate(-275.1 -1394.32)"/></g></g><polygon class="cls-10" points="165.46 97.95 205.29 111.93 205.29 101.05 231.18 104.16 193.34 88.62 193.34 101.05 165.46 97.95"/><g class="cls-70"><g class="cls-24"><polygon class="cls-71" points="167.66 100.2 160.45 96.18 188.65 95.38 192.15 85.74 236.19 102.36 233.86 106.57 196.02 91.03 196.02 103.46 168.23 100.36 167.66 100.2"/></g></g><path class="cls-11" d="M305.11,1632.31c22.38.35,43.88-13.4,65.42-37.92,15.55-17.7,34.25-48.24,29-71.75,0-.31-27.08-23.37-27.08-23.37s-94.56,109.57-94.55,109.57S304.75,1632.34,305.11,1632.31Z" transform="translate(-275.1 -1394.32)"/><g class="cls-72"><g class="cls-20"><path class="cls-73" d="M305.11,1632.31c22.38.35,43.88-13.4,65.42-37.92,15.55-17.7,34.25-48.24,29-71.75,0-.31-27.08-23.37-27.08-23.37s-94.56,109.57-94.55,109.57S304.75,1632.34,305.11,1632.31Z" transform="translate(-275.1 -1394.32)"/></g></g><path class="cls-74" d="M277.89,1608.84c12.79,11,42.31-5.26,68.6-35.73s38.75-62.81,26-73.84c-7.72-6.19-40.19,5.42-67,38.45C279.17,1568.18,269.88,1601.45,277.89,1608.84Z" transform="translate(-275.1 -1394.32)"/><path id="_Clipping_Path_16" data-name="&lt;Clipping Path&gt;" class="cls-2" d="M286.47,1592.35c7.78,6.71,28.66-6.6,48.37-29.45s30.32-46,22.54-52.73c-4.73-3.72-27.26,6.56-47.48,31.21C290.18,1564.23,281.63,1587.82,286.47,1592.35Z" transform="translate(-275.1 -1394.32)"/><g class="cls-75"><g class="cls-24"><path class="cls-76" d="M355.29,1501l-40.79,28-32.32,39.44.66,25.6s5.86,1.17,7.88,1.72c-2.17-.55-2.82.21-3.48-4.45,0-12.41,9.42-31.9,25.26-50.26,21.6-25,47-38.5,56.81-30.08l2-7.24Z" transform="translate(-275.1 -1394.32)"/></g></g><polygon class="cls-12" points="24.26 180.88 60.87 159.87 52.64 152.76 71.9 135.19 35.42 153.68 44.83 161.81 24.26 180.88"/><g class="cls-77"><g class="cls-24"><polygon class="cls-78" points="27.4 180.69 19.66 183.52 37.47 161.65 32.46 152.71 73.81 130.22 75.48 134.74 38.99 153.23 48.4 161.35 27.9 180.37 27.4 180.69"/></g></g></g></g></g></svg>