<svg id="basic" xmlns="http://www.w3.org/2000/svg" viewBox="0 0 266.65 266.65"><defs><style>.cls-1{fill:none;stroke:#333;stroke-linecap:round;stroke-linejoin:round;stroke-width:16.65px;}</style></defs><title>img-ai</title><g id="ai"><path class="cls-1" d="M1833.3,1502.71s-4.87-71,72.89-93.63c26.84-7.82,56.2-7.5,82.52,1.52,77.86,26.67,78.4,108.22,52.42,135.82-24,25.45-22.63,52.06-21.12,70.55-49.68,44-132.07,36-132.07,36l1.07-33.69s-48.21,1.82-56.78-50.07c0,0-31.94-.59-24.64-15.48C1812.94,1542.76,1821.51,1540,1833.3,1502.71Z" transform="translate(-1798.18 -1395.18)"/><line class="cls-1" x1="117.43" y1="165.31" x2="117.43" y2="194.77"/><line class="cls-1" x1="117.43" y1="28.48" x2="117.43" y2="57.95"/><line class="cls-1" x1="167.43" y1="165.31" x2="167.43" y2="194.77"/><line class="cls-1" x1="167.43" y1="28.48" x2="167.43" y2="57.95"/><line class="cls-1" x1="197.56" y1="136.57" x2="225.76" y2="136.57"/><line class="cls-1" x1="59.1" y1="136.57" x2="88.63" y2="136.57"/><line class="cls-1" x1="198.26" y1="86.68" x2="225.76" y2="86.68"/><line class="cls-1" x1="59.1" y1="86.68" x2="88.63" y2="86.68"/><path class="cls-1" d="M1971.08,1453.12h-60.95a23.31,23.31,0,0,0-23.33,23.28v60.81a23.31,23.31,0,0,0,23.33,23.28h60.95a23.31,23.31,0,0,0,23.33-23.28V1476.4A23.31,23.31,0,0,0,1971.08,1453.12Z" transform="translate(-1798.18 -1395.18)"/><path class="cls-1" d="M1955.84,1480h-30.47a11.65,11.65,0,0,0-11.67,11.64V1522a11.65,11.65,0,0,0,11.67,11.64h30.47a11.65,11.65,0,0,0,11.67-11.64V1491.6A11.65,11.65,0,0,0,1955.84,1480Z" transform="translate(-1798.18 -1395.18)"/></g></svg>