<svg xmlns="http://www.w3.org/2000/svg" xmlns:xlink="http://www.w3.org/1999/xlink" viewBox="0 0 325.99 399.81"><defs><style>.cls-1{fill:url(#linear-gradient);}.cls-2{fill:#fff;}.cls-3{fill:url(#linear-gradient-2);}.cls-4{fill:url(#linear-gradient-3);}.cls-5{fill:url(#linear-gradient-4);}.cls-6{fill:url(#linear-gradient-5);}.cls-7{fill:url(#linear-gradient-6);}.cls-8{fill:url(#linear-gradient-7);}.cls-9{fill:url(#linear-gradient-8);}.cls-10{fill:url(#linear-gradient-9);}.cls-11{fill:url(#linear-gradient-10);}.cls-12{fill:url(#linear-gradient-11);}.cls-13{fill:url(#linear-gradient-12);}.cls-14{fill:url(#linear-gradient-13);}.cls-15{fill:url(#linear-gradient-14);}.cls-16{fill:url(#linear-gradient-15);}.cls-17{fill:url(#linear-gradient-16);}.cls-18{fill:url(#linear-gradient-17);}.cls-19{fill:url(#linear-gradient-18);}.cls-20{fill:url(#linear-gradient-19);}.cls-21{fill:url(#linear-gradient-20);}.cls-22{fill:url(#linear-gradient-21);}.cls-23{fill:url(#linear-gradient-22);}.cls-24{fill:url(#linear-gradient-23);}.cls-25{fill:url(#linear-gradient-24);}.cls-26{fill:url(#linear-gradient-25);}.cls-27{fill:url(#linear-gradient-26);}.cls-28{fill:url(#linear-gradient-27);}.cls-29{fill:url(#linear-gradient-28);}.cls-30{fill:url(#linear-gradient-29);}.cls-31{fill:url(#linear-gradient-30);}.cls-32{fill:url(#linear-gradient-31);}.cls-33{fill:url(#linear-gradient-32);}.cls-34{fill:url(#linear-gradient-33);}.cls-35{fill:url(#linear-gradient-34);}.cls-36{fill:url(#linear-gradient-35);}.cls-37{fill:url(#linear-gradient-36);}.cls-38{fill:url(#linear-gradient-37);}.cls-39{fill:url(#linear-gradient-38);}.cls-40{fill:url(#linear-gradient-39);}.cls-41{fill:url(#linear-gradient-40);}.cls-42{fill:url(#linear-gradient-41);}.cls-43{isolation:isolate;}.cls-44{clip-path:url(#clip-path);}.cls-116,.cls-175,.cls-45,.cls-49{mix-blend-mode:multiply;}.cls-46{fill:url(#linear-gradient-43);}.cls-47{fill:url(#linear-gradient-44);}.cls-48{clip-path:url(#clip-path-2);}.cls-49{opacity:0.5;}.cls-50{fill:url(#linear-gradient-45);}.cls-51{clip-path:url(#clip-path-3);}.cls-52{fill:url(#linear-gradient-47);}.cls-53{clip-path:url(#clip-path-4);}.cls-54{fill:url(#linear-gradient-49);}.cls-55{fill:url(#linear-gradient-50);}.cls-56{clip-path:url(#clip-path-5);}.cls-57{fill:url(#linear-gradient-51);}.cls-58{clip-path:url(#clip-path-6);}.cls-59{fill:url(#linear-gradient-53);}.cls-60{clip-path:url(#clip-path-7);}.cls-61{fill:url(#linear-gradient-55);}.cls-62{fill:url(#linear-gradient-56);}.cls-63{clip-path:url(#clip-path-8);}.cls-64{fill:url(#linear-gradient-57);}.cls-65{clip-path:url(#clip-path-9);}.cls-66{fill:url(#linear-gradient-59);}.cls-67{clip-path:url(#clip-path-10);}.cls-68{fill:url(#linear-gradient-61);}.cls-69{fill:url(#linear-gradient-62);}.cls-70{clip-path:url(#clip-path-11);}.cls-71{fill:url(#linear-gradient-63);}.cls-72{clip-path:url(#clip-path-12);}.cls-73{fill:url(#linear-gradient-65);}.cls-74{clip-path:url(#clip-path-13);}.cls-75{fill:url(#linear-gradient-67);}.cls-76{fill:url(#linear-gradient-68);}.cls-77{clip-path:url(#clip-path-14);}.cls-78{fill:url(#linear-gradient-69);}.cls-79{clip-path:url(#clip-path-15);}.cls-80{fill:url(#linear-gradient-71);}.cls-81{clip-path:url(#clip-path-16);}.cls-82{fill:url(#linear-gradient-73);}.cls-83{fill:url(#linear-gradient-74);}.cls-84{clip-path:url(#clip-path-17);}.cls-85{fill:url(#linear-gradient-75);}.cls-86{clip-path:url(#clip-path-18);}.cls-87{fill:url(#linear-gradient-77);}.cls-88{clip-path:url(#clip-path-19);}.cls-89{fill:url(#linear-gradient-79);}.cls-90{fill:url(#linear-gradient-80);}.cls-91{clip-path:url(#clip-path-20);}.cls-92{fill:url(#linear-gradient-81);}.cls-93{clip-path:url(#clip-path-21);}.cls-94{fill:url(#linear-gradient-83);}.cls-95{clip-path:url(#clip-path-22);}.cls-96{fill:url(#linear-gradient-85);}.cls-97{fill:url(#linear-gradient-86);}.cls-98{clip-path:url(#clip-path-23);}.cls-99{fill:url(#linear-gradient-87);}.cls-100{clip-path:url(#clip-path-24);}.cls-101{fill:url(#linear-gradient-89);}.cls-102{clip-path:url(#clip-path-25);}.cls-103{fill:url(#linear-gradient-91);}.cls-104{fill:url(#linear-gradient-92);}.cls-105{clip-path:url(#clip-path-26);}.cls-106{fill:url(#linear-gradient-93);}.cls-107{clip-path:url(#clip-path-27);}.cls-108{fill:url(#linear-gradient-95);}.cls-109{clip-path:url(#clip-path-28);}.cls-110{fill:url(#linear-gradient-97);}.cls-111{fill:url(#linear-gradient-98);}.cls-112{clip-path:url(#clip-path-29);}.cls-113{fill:url(#linear-gradient-99);}.cls-114{clip-path:url(#clip-path-30);}.cls-115{fill:url(#linear-gradient-101);}.cls-116{opacity:0.3;}.cls-117{fill:url(#linear-gradient-102);}.cls-118{clip-path:url(#clip-path-31);}.cls-119{fill:url(#linear-gradient-104);}.cls-120{fill:url(#linear-gradient-105);}.cls-121{clip-path:url(#clip-path-32);}.cls-122{fill:url(#linear-gradient-106);}.cls-123{clip-path:url(#clip-path-33);}.cls-124{fill:url(#linear-gradient-108);}.cls-125{clip-path:url(#clip-path-34);}.cls-126{fill:url(#linear-gradient-110);}.cls-127{fill:url(#linear-gradient-111);}.cls-128{clip-path:url(#clip-path-35);}.cls-129{fill:url(#linear-gradient-112);}.cls-130{clip-path:url(#clip-path-36);}.cls-131{fill:url(#linear-gradient-114);}.cls-132{clip-path:url(#clip-path-37);}.cls-133{fill:url(#linear-gradient-116);}.cls-134{fill:url(#linear-gradient-117);}.cls-135{clip-path:url(#clip-path-38);}.cls-136{fill:url(#linear-gradient-118);}.cls-137{clip-path:url(#clip-path-39);}.cls-138{fill:url(#linear-gradient-120);}.cls-139{clip-path:url(#clip-path-40);}.cls-140{fill:url(#linear-gradient-122);}.cls-141{fill:url(#linear-gradient-123);}.cls-142{clip-path:url(#clip-path-41);}.cls-143{fill:url(#linear-gradient-124);}.cls-144{clip-path:url(#clip-path-42);}.cls-145{fill:url(#linear-gradient-126);}.cls-146{clip-path:url(#clip-path-43);}.cls-147{fill:url(#linear-gradient-128);}.cls-148{fill:url(#linear-gradient-129);}.cls-149{clip-path:url(#clip-path-44);}.cls-150{fill:url(#linear-gradient-130);}.cls-151{clip-path:url(#clip-path-45);}.cls-152{fill:url(#linear-gradient-132);}.cls-153{clip-path:url(#clip-path-46);}.cls-154{fill:url(#linear-gradient-134);}.cls-155{fill:url(#linear-gradient-135);}.cls-156{clip-path:url(#clip-path-47);}.cls-157{fill:url(#linear-gradient-136);}.cls-158{clip-path:url(#clip-path-48);}.cls-159{fill:url(#linear-gradient-138);}.cls-160{clip-path:url(#clip-path-49);}.cls-161{fill:url(#linear-gradient-140);}.cls-162{fill:url(#linear-gradient-141);}.cls-163{clip-path:url(#clip-path-50);}.cls-164{fill:url(#linear-gradient-142);}.cls-165{clip-path:url(#clip-path-51);}.cls-166{fill:url(#linear-gradient-144);}.cls-167{clip-path:url(#clip-path-52);}.cls-168{fill:url(#linear-gradient-146);}.cls-169{fill:url(#linear-gradient-147);}.cls-170{clip-path:url(#clip-path-53);}.cls-171{fill:url(#linear-gradient-148);}.cls-172{clip-path:url(#clip-path-54);}.cls-173{fill:url(#linear-gradient-150);}.cls-174{clip-path:url(#clip-path-55);}.cls-175{opacity:0.8;}.cls-176{fill:url(#linear-gradient-152);}.cls-177{clip-path:url(#clip-path-56);}.cls-178{clip-path:url(#clip-path-57);}.cls-179{fill:url(#linear-gradient-154);}.cls-180{clip-path:url(#clip-path-58);}.cls-181{fill:url(#linear-gradient-156);}.cls-182{fill:url(#linear-gradient-157);}.cls-183{clip-path:url(#clip-path-59);}.cls-184{fill:url(#linear-gradient-159);}.cls-185{fill:url(#linear-gradient-160);}.cls-186{clip-path:url(#clip-path-60);}.cls-187{fill:url(#linear-gradient-161);}.cls-188{clip-path:url(#clip-path-61);}.cls-189{fill:url(#linear-gradient-163);}</style><linearGradient id="linear-gradient" x1="421.36" y1="1624.29" x2="566.3" y2="1624.29" gradientUnits="userSpaceOnUse"><stop offset="0" stop-color="#b41d8d"/><stop offset="1" stop-color="#30f"/></linearGradient><linearGradient id="linear-gradient-2" x1="-120.55" y1="663.97" x2="-120.55" y2="729.69" gradientTransform="translate(-203 1353) rotate(-90)" xlink:href="#linear-gradient"/><linearGradient id="linear-gradient-3" x1="280.36" y1="1615.29" x2="425.3" y2="1615.29" xlink:href="#linear-gradient"/><linearGradient id="linear-gradient-4" x1="-228.55" y1="522.97" x2="-228.55" y2="588.69" gradientTransform="translate(-203 1353) rotate(-90)" xlink:href="#linear-gradient"/><linearGradient id="linear-gradient-5" x1="280.36" y1="1576.29" x2="425.3" y2="1576.29" xlink:href="#linear-gradient"/><linearGradient id="linear-gradient-6" x1="-189.55" y1="522.97" x2="-189.55" y2="588.69" gradientTransform="translate(-203 1353) rotate(-90)" xlink:href="#linear-gradient"/><linearGradient id="linear-gradient-7" x1="280.36" y1="1537.29" x2="425.3" y2="1537.29" xlink:href="#linear-gradient"/><linearGradient id="linear-gradient-8" x1="-237.55" y1="663.97" x2="-237.55" y2="729.69" gradientTransform="translate(-203 1353) rotate(-90)" xlink:href="#linear-gradient"/><linearGradient id="linear-gradient-9" x1="-150.55" y1="522.97" x2="-150.55" y2="588.69" gradientTransform="translate(-203 1353) rotate(-90)" xlink:href="#linear-gradient"/><linearGradient id="linear-gradient-10" x1="280.36" y1="1498.29" x2="425.3" y2="1498.29" xlink:href="#linear-gradient"/><linearGradient id="linear-gradient-11" x1="-111.55" y1="522.97" x2="-111.55" y2="588.69" gradientTransform="translate(-203 1353) rotate(-90)" xlink:href="#linear-gradient"/><linearGradient id="linear-gradient-12" x1="280.36" y1="1459.29" x2="425.3" y2="1459.29" xlink:href="#linear-gradient"/><linearGradient id="linear-gradient-13" x1="-72.55" y1="522.97" x2="-72.55" y2="588.69" gradientTransform="translate(-203 1353) rotate(-90)" xlink:href="#linear-gradient"/><linearGradient id="linear-gradient-14" x1="280.36" y1="1420.29" x2="425.3" y2="1420.29" xlink:href="#linear-gradient"/><linearGradient id="linear-gradient-15" x1="-33.55" y1="522.97" x2="-33.55" y2="588.69" gradientTransform="translate(-203 1353) rotate(-90)" xlink:href="#linear-gradient"/><linearGradient id="linear-gradient-16" x1="421.36" y1="1585.29" x2="566.3" y2="1585.29" xlink:href="#linear-gradient"/><linearGradient id="linear-gradient-17" x1="356.36" y1="1654.29" x2="501.3" y2="1654.29" xlink:href="#linear-gradient"/><linearGradient id="linear-gradient-18" x1="-267.55" y1="598.97" x2="-267.55" y2="664.69" gradientTransform="translate(-203 1353) rotate(-90)" xlink:href="#linear-gradient"/><linearGradient id="linear-gradient-19" x1="356.36" y1="1615.29" x2="501.3" y2="1615.29" xlink:href="#linear-gradient"/><linearGradient id="linear-gradient-20" x1="-228.55" y1="598.97" x2="-228.55" y2="664.69" gradientTransform="translate(-203 1353) rotate(-90)" xlink:href="#linear-gradient"/><linearGradient id="linear-gradient-21" x1="356.36" y1="1576.29" x2="501.3" y2="1576.29" xlink:href="#linear-gradient"/><linearGradient id="linear-gradient-22" x1="-189.55" y1="598.97" x2="-189.55" y2="664.69" gradientTransform="translate(-203 1353) rotate(-90)" xlink:href="#linear-gradient"/><linearGradient id="linear-gradient-23" x1="356.36" y1="1537.29" x2="501.3" y2="1537.29" xlink:href="#linear-gradient"/><linearGradient id="linear-gradient-24" x1="-150.55" y1="598.97" x2="-150.55" y2="664.69" gradientTransform="translate(-203 1353) rotate(-90)" xlink:href="#linear-gradient"/><linearGradient id="linear-gradient-25" x1="356.36" y1="1498.29" x2="501.3" y2="1498.29" xlink:href="#linear-gradient"/><linearGradient id="linear-gradient-26" x1="-111.55" y1="598.97" x2="-111.55" y2="664.69" gradientTransform="translate(-203 1353) rotate(-90)" xlink:href="#linear-gradient"/><linearGradient id="linear-gradient-27" x1="356.36" y1="1459.29" x2="501.3" y2="1459.29" xlink:href="#linear-gradient"/><linearGradient id="linear-gradient-28" x1="-72.55" y1="598.97" x2="-72.55" y2="664.69" gradientTransform="translate(-203 1353) rotate(-90)" xlink:href="#linear-gradient"/><linearGradient id="linear-gradient-29" x1="356.36" y1="1420.29" x2="501.3" y2="1420.29" xlink:href="#linear-gradient"/><linearGradient id="linear-gradient-30" x1="-198.55" y1="663.97" x2="-198.55" y2="729.69" gradientTransform="translate(-203 1353) rotate(-90)" xlink:href="#linear-gradient"/><linearGradient id="linear-gradient-31" x1="-33.55" y1="598.97" x2="-33.55" y2="664.69" gradientTransform="translate(-203 1353) rotate(-90)" xlink:href="#linear-gradient"/><linearGradient id="linear-gradient-32" x1="356.36" y1="1381.29" x2="501.3" y2="1381.29" xlink:href="#linear-gradient"/><linearGradient id="linear-gradient-33" x1="5.45" y1="598.97" x2="5.45" y2="664.69" gradientTransform="translate(-203 1353) rotate(-90)" xlink:href="#linear-gradient"/><linearGradient id="linear-gradient-34" x1="430.16" y1="1640.05" x2="507.82" y2="1640.05" xlink:href="#linear-gradient"/><linearGradient id="linear-gradient-35" x1="442.15" y1="1640.05" x2="573.5" y2="1640.05" xlink:href="#linear-gradient"/><linearGradient id="linear-gradient-36" x1="481.05" y1="1640.05" x2="534.6" y2="1640.05" xlink:href="#linear-gradient"/><linearGradient id="linear-gradient-37" x1="-400.73" y1="995.14" x2="-255.79" y2="995.14" gradientTransform="matrix(0.65, -0.76, 0.76, 0.65, -218.42, 708.2)" xlink:href="#linear-gradient"/><linearGradient id="linear-gradient-38" x1="421.36" y1="1546.29" x2="566.3" y2="1546.29" xlink:href="#linear-gradient"/><linearGradient id="linear-gradient-39" x1="391.6" y1="-158.12" x2="391.6" y2="-92.4" gradientTransform="matrix(-0.76, -0.65, 0.65, -0.76, 673.32, 1745.8)" xlink:href="#linear-gradient"/><linearGradient id="linear-gradient-40" x1="-159.55" y1="663.97" x2="-159.55" y2="729.69" gradientTransform="translate(-203 1353) rotate(-90)" xlink:href="#linear-gradient"/><linearGradient id="linear-gradient-41" x1="421.36" y1="1507.29" x2="566.3" y2="1507.29" xlink:href="#linear-gradient"/><clipPath id="clip-path" transform="translate(-247.5 -1325.28)"><path class="cls-1" d="M421.48,1629.88c14.35,17.17,38.82,24.46,71.45,24.76,23.56.21,58.9-5.59,73.26-24.92.25-.19,0-35.77,0-35.77H421.46C421.46,1594.13,421.22,1629.63,421.48,1629.88Z"/></clipPath><linearGradient id="linear-gradient-43" x1="488.69" y1="1624.29" x2="633.63" y2="1624.29" xlink:href="#linear-gradient"/><linearGradient id="linear-gradient-44" x1="421.46" y1="1595.4" x2="566.19" y2="1595.4" xlink:href="#linear-gradient"/><clipPath id="clip-path-2" transform="translate(-247.5 -1325.28)"><path id="_Clipping_Path_" data-name="&lt;Clipping Path&gt;" class="cls-2" d="M439.55,1589.66c0,10.27,23.72,17.39,53.9,17.39s54.65-7.11,54.65-17.39c-.27-6-22.77-16.35-54.65-15.56C463.27,1574.1,439.83,1583,439.55,1589.66Z"/></clipPath><linearGradient id="linear-gradient-45" x1="-231.3" y1="638.98" x2="-231.3" y2="765.15" gradientTransform="translate(-203 1353) rotate(-90)" xlink:href="#linear-gradient"/><clipPath id="clip-path-3" transform="translate(-247.5 -1325.28)"><polygon class="cls-9" points="460.97 1588.22 500.8 1602.21 500.8 1591.33 526.68 1594.44 488.85 1578.9 488.85 1591.33 460.97 1588.22"/></clipPath><linearGradient id="linear-gradient-47" x1="-233.43" y1="658.96" x2="-233.43" y2="734.69" gradientTransform="translate(-450.5 27.72) rotate(-90)" xlink:href="#linear-gradient"/><clipPath id="clip-path-4" transform="translate(-247.5 -1325.28)"><path class="cls-17" d="M421.48,1590.88c14.35,17.17,38.82,24.46,71.45,24.76,23.56.21,58.9-5.59,73.26-24.92.25-.19,0-35.77,0-35.77H421.46C421.46,1555.13,421.22,1590.63,421.48,1590.88Z"/></clipPath><linearGradient id="linear-gradient-49" x1="488.69" y1="1585.29" x2="633.63" y2="1585.29" xlink:href="#linear-gradient"/><linearGradient id="linear-gradient-50" x1="421.46" y1="1556.4" x2="566.19" y2="1556.4" xlink:href="#linear-gradient"/><clipPath id="clip-path-5" transform="translate(-247.5 -1325.28)"><path id="_Clipping_Path_2" data-name="&lt;Clipping Path&gt;" class="cls-2" d="M439.55,1550.66c0,10.27,23.72,17.39,53.9,17.39s54.65-7.11,54.65-17.39c-.27-6-22.77-16.35-54.65-15.56C463.27,1535.1,439.83,1544,439.55,1550.66Z"/></clipPath><linearGradient id="linear-gradient-51" x1="-192.3" y1="638.98" x2="-192.3" y2="765.15" gradientTransform="translate(-203 1353) rotate(-90)" xlink:href="#linear-gradient"/><clipPath id="clip-path-6" transform="translate(-247.5 -1325.28)"><polygon class="cls-31" points="460.97 1549.22 500.8 1563.21 500.8 1552.33 526.68 1555.44 488.85 1539.9 488.85 1552.33 460.97 1549.22"/></clipPath><linearGradient id="linear-gradient-53" x1="-194.43" y1="658.96" x2="-194.43" y2="734.69" gradientTransform="translate(-450.5 27.72) rotate(-90)" xlink:href="#linear-gradient"/><clipPath id="clip-path-7" transform="translate(-247.5 -1325.28)"><path class="cls-39" d="M421.48,1551.88c14.35,17.17,38.82,24.46,71.45,24.76,23.56.21,58.9-5.59,73.26-24.92.25-.19,0-35.77,0-35.77H421.46C421.46,1516.13,421.22,1551.63,421.48,1551.88Z"/></clipPath><linearGradient id="linear-gradient-55" x1="488.69" y1="1546.29" x2="633.63" y2="1546.29" xlink:href="#linear-gradient"/><linearGradient id="linear-gradient-56" x1="421.46" y1="1517.4" x2="566.19" y2="1517.4" xlink:href="#linear-gradient"/><clipPath id="clip-path-8" transform="translate(-247.5 -1325.28)"><path id="_Clipping_Path_3" data-name="&lt;Clipping Path&gt;" class="cls-2" d="M439.55,1511.66c0,10.27,23.72,17.39,53.9,17.39s54.65-7.11,54.65-17.39c-.27-6-22.77-16.35-54.65-15.56C463.27,1496.1,439.83,1505,439.55,1511.66Z"/></clipPath><linearGradient id="linear-gradient-57" x1="-153.3" y1="638.98" x2="-153.3" y2="765.15" gradientTransform="translate(-203 1353) rotate(-90)" xlink:href="#linear-gradient"/><clipPath id="clip-path-9" transform="translate(-247.5 -1325.28)"><polygon class="cls-41" points="460.97 1510.22 500.8 1524.21 500.8 1513.33 526.68 1516.44 488.85 1500.9 488.85 1513.33 460.97 1510.22"/></clipPath><linearGradient id="linear-gradient-59" x1="-155.43" y1="658.96" x2="-155.43" y2="734.69" gradientTransform="translate(-450.5 27.72) rotate(-90)" xlink:href="#linear-gradient"/><clipPath id="clip-path-10" transform="translate(-247.5 -1325.28)"><path class="cls-42" d="M421.48,1512.88c14.35,17.17,38.82,24.46,71.45,24.76,23.56.21,58.9-5.59,73.26-24.92.25-.19,0-35.77,0-35.77H421.46C421.46,1477.13,421.22,1512.63,421.48,1512.88Z"/></clipPath><linearGradient id="linear-gradient-61" x1="488.69" y1="1507.29" x2="633.63" y2="1507.29" xlink:href="#linear-gradient"/><linearGradient id="linear-gradient-62" x1="421.46" y1="1478.4" x2="566.19" y2="1478.4" xlink:href="#linear-gradient"/><clipPath id="clip-path-11" transform="translate(-247.5 -1325.28)"><path id="_Clipping_Path_4" data-name="&lt;Clipping Path&gt;" class="cls-2" d="M439.55,1472.66c0,10.27,23.72,17.39,53.9,17.39s54.65-7.11,54.65-17.39c-.27-6-22.77-16.35-54.65-15.56C463.27,1457.1,439.83,1466,439.55,1472.66Z"/></clipPath><linearGradient id="linear-gradient-63" x1="-114.3" y1="638.98" x2="-114.3" y2="765.15" gradientTransform="translate(-203 1353) rotate(-90)" xlink:href="#linear-gradient"/><clipPath id="clip-path-12" transform="translate(-247.5 -1325.28)"><polygon class="cls-3" points="460.97 1471.22 500.8 1485.21 500.8 1474.33 526.68 1477.44 488.85 1461.9 488.85 1474.33 460.97 1471.22"/></clipPath><linearGradient id="linear-gradient-65" x1="-116.43" y1="658.96" x2="-116.43" y2="734.69" gradientTransform="translate(-450.5 27.72) rotate(-90)" xlink:href="#linear-gradient"/><clipPath id="clip-path-13" transform="translate(-247.5 -1325.28)"><path class="cls-4" d="M280.48,1620.88c14.35,17.17,38.82,24.46,71.45,24.76,23.56.21,58.9-5.59,73.26-24.92.25-.19,0-35.77,0-35.77H280.46C280.46,1585.13,280.22,1620.63,280.48,1620.88Z"/></clipPath><linearGradient id="linear-gradient-67" x1="348.03" y1="1615.29" x2="492.97" y2="1615.29" xlink:href="#linear-gradient"/><linearGradient id="linear-gradient-68" x1="280.46" y1="1586.4" x2="425.19" y2="1586.4" xlink:href="#linear-gradient"/><clipPath id="clip-path-14" transform="translate(-247.5 -1325.28)"><path id="_Clipping_Path_5" data-name="&lt;Clipping Path&gt;" class="cls-2" d="M298.55,1580.66c0,10.27,23.72,17.39,53.9,17.39s54.65-7.11,54.65-17.39c-.27-6-22.77-16.35-54.65-15.56C322.27,1565.1,298.83,1574,298.55,1580.66Z"/></clipPath><linearGradient id="linear-gradient-69" x1="-222.3" y1="497.98" x2="-222.3" y2="624.15" gradientTransform="translate(-203 1353) rotate(-90)" xlink:href="#linear-gradient"/><clipPath id="clip-path-15" transform="translate(-247.5 -1325.28)"><polygon class="cls-5" points="319.97 1579.22 359.8 1593.21 359.8 1582.33 385.69 1585.44 347.85 1569.9 347.85 1582.33 319.97 1579.22"/></clipPath><linearGradient id="linear-gradient-71" x1="-224.43" y1="517.96" x2="-224.43" y2="593.69" gradientTransform="translate(-450.5 27.72) rotate(-90)" xlink:href="#linear-gradient"/><clipPath id="clip-path-16" transform="translate(-247.5 -1325.28)"><path class="cls-6" d="M280.48,1581.88c14.35,17.17,38.82,24.46,71.45,24.76,23.56.21,58.9-5.59,73.26-24.92.25-.19,0-35.77,0-35.77H280.46C280.46,1546.13,280.22,1581.63,280.48,1581.88Z"/></clipPath><linearGradient id="linear-gradient-73" x1="348.03" y1="1576.29" x2="492.97" y2="1576.29" xlink:href="#linear-gradient"/><linearGradient id="linear-gradient-74" x1="280.46" y1="1547.4" x2="425.19" y2="1547.4" xlink:href="#linear-gradient"/><clipPath id="clip-path-17" transform="translate(-247.5 -1325.28)"><path id="_Clipping_Path_6" data-name="&lt;Clipping Path&gt;" class="cls-2" d="M298.55,1541.66c0,10.27,23.72,17.39,53.9,17.39s54.65-7.11,54.65-17.39c-.27-6-22.77-16.35-54.65-15.56C322.27,1526.1,298.83,1535,298.55,1541.66Z"/></clipPath><linearGradient id="linear-gradient-75" x1="-183.3" y1="497.98" x2="-183.3" y2="624.15" gradientTransform="translate(-203 1353) rotate(-90)" xlink:href="#linear-gradient"/><clipPath id="clip-path-18" transform="translate(-247.5 -1325.28)"><polygon class="cls-7" points="319.97 1540.22 359.8 1554.21 359.8 1543.33 385.69 1546.44 347.85 1530.9 347.85 1543.33 319.97 1540.22"/></clipPath><linearGradient id="linear-gradient-77" x1="-185.43" y1="517.96" x2="-185.43" y2="593.69" gradientTransform="translate(-450.5 27.72) rotate(-90)" xlink:href="#linear-gradient"/><clipPath id="clip-path-19" transform="translate(-247.5 -1325.28)"><path class="cls-8" d="M280.48,1542.88c14.35,17.17,38.82,24.46,71.45,24.76,23.56.21,58.9-5.59,73.26-24.92.25-.19,0-35.77,0-35.77H280.46C280.46,1507.13,280.22,1542.63,280.48,1542.88Z"/></clipPath><linearGradient id="linear-gradient-79" x1="347.69" y1="1537.29" x2="492.63" y2="1537.29" xlink:href="#linear-gradient"/><linearGradient id="linear-gradient-80" x1="280.46" y1="1508.4" x2="425.19" y2="1508.4" xlink:href="#linear-gradient"/><clipPath id="clip-path-20" transform="translate(-247.5 -1325.28)"><path id="_Clipping_Path_7" data-name="&lt;Clipping Path&gt;" class="cls-2" d="M298.55,1502.66c0,10.27,23.72,17.39,53.9,17.39s54.65-7.11,54.65-17.39c-.27-6-22.77-16.35-54.65-15.56C322.27,1487.1,298.83,1496,298.55,1502.66Z"/></clipPath><linearGradient id="linear-gradient-81" x1="-144.3" y1="497.98" x2="-144.3" y2="624.15" gradientTransform="translate(-203 1353) rotate(-90)" xlink:href="#linear-gradient"/><clipPath id="clip-path-21" transform="translate(-247.5 -1325.28)"><polygon class="cls-10" points="319.97 1501.22 359.8 1515.21 359.8 1504.33 385.69 1507.44 347.85 1491.9 347.85 1504.33 319.97 1501.22"/></clipPath><linearGradient id="linear-gradient-83" x1="-146.43" y1="517.96" x2="-146.43" y2="593.69" gradientTransform="translate(-450.5 27.72) rotate(-90)" xlink:href="#linear-gradient"/><clipPath id="clip-path-22" transform="translate(-247.5 -1325.28)"><path class="cls-11" d="M280.48,1503.88c14.35,17.17,38.82,24.46,71.45,24.76,23.56.21,58.9-5.59,73.26-24.92.25-.19,0-35.77,0-35.77H280.46C280.46,1468.13,280.22,1503.63,280.48,1503.88Z"/></clipPath><linearGradient id="linear-gradient-85" x1="347.69" y1="1498.29" x2="492.63" y2="1498.29" xlink:href="#linear-gradient"/><linearGradient id="linear-gradient-86" x1="280.46" y1="1469.4" x2="425.19" y2="1469.4" xlink:href="#linear-gradient"/><clipPath id="clip-path-23" transform="translate(-247.5 -1325.28)"><path id="_Clipping_Path_8" data-name="&lt;Clipping Path&gt;" class="cls-2" d="M298.55,1463.66c0,10.27,23.72,17.39,53.9,17.39s54.65-7.11,54.65-17.39c-.27-6-22.77-16.35-54.65-15.56C322.27,1448.1,298.83,1457,298.55,1463.66Z"/></clipPath><linearGradient id="linear-gradient-87" x1="-105.3" y1="497.98" x2="-105.3" y2="624.15" gradientTransform="translate(-203 1353) rotate(-90)" xlink:href="#linear-gradient"/><clipPath id="clip-path-24" transform="translate(-247.5 -1325.28)"><polygon class="cls-12" points="319.97 1462.22 359.8 1476.21 359.8 1465.33 385.69 1468.44 347.85 1452.9 347.85 1465.33 319.97 1462.22"/></clipPath><linearGradient id="linear-gradient-89" x1="-107.43" y1="517.96" x2="-107.43" y2="593.69" gradientTransform="translate(-450.5 27.72) rotate(-90)" xlink:href="#linear-gradient"/><clipPath id="clip-path-25" transform="translate(-247.5 -1325.28)"><path class="cls-13" d="M280.48,1464.88c14.35,17.17,38.82,24.46,71.45,24.76,23.56.21,58.9-5.59,73.26-24.92.25-.19,0-35.77,0-35.77H280.46C280.46,1429.13,280.22,1464.63,280.48,1464.88Z"/></clipPath><linearGradient id="linear-gradient-91" x1="348.03" y1="1459.29" x2="492.97" y2="1459.29" xlink:href="#linear-gradient"/><linearGradient id="linear-gradient-92" x1="280.46" y1="1430.4" x2="425.19" y2="1430.4" xlink:href="#linear-gradient"/><clipPath id="clip-path-26" transform="translate(-247.5 -1325.28)"><path id="_Clipping_Path_9" data-name="&lt;Clipping Path&gt;" class="cls-2" d="M298.55,1424.66c0,10.27,23.72,17.39,53.9,17.39s54.65-7.11,54.65-17.39c-.27-6-22.77-16.35-54.65-15.56C322.27,1409.1,298.83,1418,298.55,1424.66Z"/></clipPath><linearGradient id="linear-gradient-93" x1="-66.3" y1="497.98" x2="-66.3" y2="624.15" gradientTransform="translate(-203 1353) rotate(-90)" xlink:href="#linear-gradient"/><clipPath id="clip-path-27" transform="translate(-247.5 -1325.28)"><polygon class="cls-14" points="319.97 1423.22 359.8 1437.21 359.8 1426.33 385.69 1429.44 347.85 1413.9 347.85 1426.33 319.97 1423.22"/></clipPath><linearGradient id="linear-gradient-95" x1="-68.43" y1="517.96" x2="-68.43" y2="593.69" gradientTransform="translate(-450.5 27.72) rotate(-90)" xlink:href="#linear-gradient"/><clipPath id="clip-path-28" transform="translate(-247.5 -1325.28)"><path class="cls-15" d="M280.48,1425.88c14.35,17.17,38.82,24.46,71.45,24.76,23.56.21,58.9-5.59,73.26-24.92.25-.19,0-35.77,0-35.77H280.46C280.46,1390.13,280.22,1425.63,280.48,1425.88Z"/></clipPath><linearGradient id="linear-gradient-97" x1="347.69" y1="1420.29" x2="492.63" y2="1420.29" xlink:href="#linear-gradient"/><linearGradient id="linear-gradient-98" x1="280.46" y1="1391.4" x2="425.19" y2="1391.4" xlink:href="#linear-gradient"/><clipPath id="clip-path-29" transform="translate(-247.5 -1325.28)"><path id="_Clipping_Path_10" data-name="&lt;Clipping Path&gt;" class="cls-2" d="M298.55,1385.66c0,10.27,23.72,17.39,53.9,17.39s54.65-7.11,54.65-17.39c-.27-6-22.77-16.35-54.65-15.56C322.27,1370.1,298.83,1379,298.55,1385.66Z"/></clipPath><linearGradient id="linear-gradient-99" x1="-27.3" y1="497.98" x2="-27.3" y2="624.15" gradientTransform="translate(-203 1353) rotate(-90)" xlink:href="#linear-gradient"/><clipPath id="clip-path-30" transform="translate(-247.5 -1325.28)"><polygon class="cls-16" points="319.97 1384.22 359.8 1398.21 359.8 1387.33 385.69 1390.44 347.85 1374.9 347.85 1387.33 319.97 1384.22"/></clipPath><linearGradient id="linear-gradient-101" x1="-29.43" y1="517.96" x2="-29.43" y2="593.69" gradientTransform="translate(-450.5 27.72) rotate(-90)" xlink:href="#linear-gradient"/><linearGradient id="linear-gradient-102" x1="321.58" y1="1504.83" x2="359.75" y2="1504.83" xlink:href="#linear-gradient"/><clipPath id="clip-path-31" transform="translate(-247.5 -1325.28)"><path class="cls-18" d="M356.48,1659.88c14.35,17.17,38.82,24.46,71.45,24.76,23.56.21,58.9-5.59,73.26-24.92.25-.19,0-35.77,0-35.77H356.46C356.46,1624.13,356.22,1659.63,356.48,1659.88Z"/></clipPath><linearGradient id="linear-gradient-104" x1="424.03" y1="1654.29" x2="568.97" y2="1654.29" xlink:href="#linear-gradient"/><linearGradient id="linear-gradient-105" x1="356.46" y1="1625.4" x2="501.19" y2="1625.4" xlink:href="#linear-gradient"/><clipPath id="clip-path-32" transform="translate(-247.5 -1325.28)"><path id="_Clipping_Path_11" data-name="&lt;Clipping Path&gt;" class="cls-2" d="M374.55,1619.66c0,10.27,23.72,17.39,53.9,17.39s54.65-7.11,54.65-17.39c-.27-6-22.77-16.35-54.65-15.56C398.27,1604.1,374.83,1613,374.55,1619.66Z"/></clipPath><linearGradient id="linear-gradient-106" x1="-261.3" y1="573.98" x2="-261.3" y2="700.15" gradientTransform="translate(-203 1353) rotate(-90)" xlink:href="#linear-gradient"/><clipPath id="clip-path-33" transform="translate(-247.5 -1325.28)"><polygon class="cls-19" points="395.97 1618.22 435.8 1632.21 435.8 1621.33 461.69 1624.44 423.85 1608.9 423.85 1621.33 395.97 1618.22"/></clipPath><linearGradient id="linear-gradient-108" x1="-263.43" y1="593.96" x2="-263.43" y2="669.69" gradientTransform="translate(-450.5 27.72) rotate(-90)" xlink:href="#linear-gradient"/><clipPath id="clip-path-34" transform="translate(-247.5 -1325.28)"><path class="cls-20" d="M356.48,1620.88c14.35,17.17,38.82,24.46,71.45,24.76,23.56.21,58.9-5.59,73.26-24.92.25-.19,0-35.77,0-35.77H356.46C356.46,1585.13,356.22,1620.63,356.48,1620.88Z"/></clipPath><linearGradient id="linear-gradient-110" x1="424.03" y1="1615.29" x2="568.97" y2="1615.29" xlink:href="#linear-gradient"/><linearGradient id="linear-gradient-111" x1="356.46" y1="1586.4" x2="501.19" y2="1586.4" xlink:href="#linear-gradient"/><clipPath id="clip-path-35" transform="translate(-247.5 -1325.28)"><path id="_Clipping_Path_12" data-name="&lt;Clipping Path&gt;" class="cls-2" d="M374.55,1580.66c0,10.27,23.72,17.39,53.9,17.39s54.65-7.11,54.65-17.39c-.27-6-22.77-16.35-54.65-15.56C398.27,1565.1,374.83,1574,374.55,1580.66Z"/></clipPath><linearGradient id="linear-gradient-112" x1="-222.3" y1="573.98" x2="-222.3" y2="700.15" gradientTransform="translate(-203 1353) rotate(-90)" xlink:href="#linear-gradient"/><clipPath id="clip-path-36" transform="translate(-247.5 -1325.28)"><polygon class="cls-21" points="395.97 1579.22 435.8 1593.21 435.8 1582.33 461.69 1585.44 423.85 1569.9 423.85 1582.33 395.97 1579.22"/></clipPath><linearGradient id="linear-gradient-114" x1="-224.43" y1="593.96" x2="-224.43" y2="669.69" gradientTransform="translate(-450.5 27.72) rotate(-90)" xlink:href="#linear-gradient"/><clipPath id="clip-path-37" transform="translate(-247.5 -1325.28)"><path class="cls-22" d="M356.48,1581.88c14.35,17.17,38.82,24.46,71.45,24.76,23.56.21,58.9-5.59,73.26-24.92.25-.19,0-35.77,0-35.77H356.46C356.46,1546.13,356.22,1581.63,356.48,1581.88Z"/></clipPath><linearGradient id="linear-gradient-116" x1="423.69" y1="1576.29" x2="568.63" y2="1576.29" xlink:href="#linear-gradient"/><linearGradient id="linear-gradient-117" x1="356.46" y1="1547.4" x2="501.19" y2="1547.4" xlink:href="#linear-gradient"/><clipPath id="clip-path-38" transform="translate(-247.5 -1325.28)"><path id="_Clipping_Path_13" data-name="&lt;Clipping Path&gt;" class="cls-2" d="M374.55,1541.66c0,10.27,23.72,17.39,53.9,17.39s54.65-7.11,54.65-17.39c-.27-6-22.77-16.35-54.65-15.56C398.27,1526.1,374.83,1535,374.55,1541.66Z"/></clipPath><linearGradient id="linear-gradient-118" x1="-183.3" y1="573.98" x2="-183.3" y2="700.15" gradientTransform="translate(-203 1353) rotate(-90)" xlink:href="#linear-gradient"/><clipPath id="clip-path-39" transform="translate(-247.5 -1325.28)"><polygon class="cls-23" points="395.97 1540.22 435.8 1554.21 435.8 1543.33 461.69 1546.44 423.85 1530.9 423.85 1543.33 395.97 1540.22"/></clipPath><linearGradient id="linear-gradient-120" x1="-185.43" y1="593.96" x2="-185.43" y2="669.69" gradientTransform="translate(-450.5 27.72) rotate(-90)" xlink:href="#linear-gradient"/><clipPath id="clip-path-40" transform="translate(-247.5 -1325.28)"><path class="cls-24" d="M356.48,1542.88c14.35,17.17,38.82,24.46,71.45,24.76,23.56.21,58.9-5.59,73.26-24.92.25-.19,0-35.77,0-35.77H356.46C356.46,1507.13,356.22,1542.63,356.48,1542.88Z"/></clipPath><linearGradient id="linear-gradient-122" x1="423.69" y1="1537.29" x2="568.63" y2="1537.29" xlink:href="#linear-gradient"/><linearGradient id="linear-gradient-123" x1="356.46" y1="1508.4" x2="501.19" y2="1508.4" xlink:href="#linear-gradient"/><clipPath id="clip-path-41" transform="translate(-247.5 -1325.28)"><path id="_Clipping_Path_14" data-name="&lt;Clipping Path&gt;" class="cls-2" d="M374.55,1502.66c0,10.27,23.72,17.39,53.9,17.39s54.65-7.11,54.65-17.39c-.27-6-22.77-16.35-54.65-15.56C398.27,1487.1,374.83,1496,374.55,1502.66Z"/></clipPath><linearGradient id="linear-gradient-124" x1="-144.3" y1="573.98" x2="-144.3" y2="700.15" gradientTransform="translate(-203 1353) rotate(-90)" xlink:href="#linear-gradient"/><clipPath id="clip-path-42" transform="translate(-247.5 -1325.28)"><polygon class="cls-25" points="395.97 1501.22 435.8 1515.21 435.8 1504.33 461.69 1507.44 423.85 1491.9 423.85 1504.33 395.97 1501.22"/></clipPath><linearGradient id="linear-gradient-126" x1="-146.43" y1="593.96" x2="-146.43" y2="669.69" gradientTransform="translate(-450.5 27.72) rotate(-90)" xlink:href="#linear-gradient"/><clipPath id="clip-path-43" transform="translate(-247.5 -1325.28)"><path class="cls-26" d="M356.48,1503.88c14.35,17.17,38.82,24.46,71.45,24.76,23.56.21,58.9-5.59,73.26-24.92.25-.19,0-35.77,0-35.77H356.46C356.46,1468.13,356.22,1503.63,356.48,1503.88Z"/></clipPath><linearGradient id="linear-gradient-128" x1="423.69" y1="1498.29" x2="568.63" y2="1498.29" xlink:href="#linear-gradient"/><linearGradient id="linear-gradient-129" x1="356.46" y1="1469.4" x2="501.19" y2="1469.4" xlink:href="#linear-gradient"/><clipPath id="clip-path-44" transform="translate(-247.5 -1325.28)"><path id="_Clipping_Path_15" data-name="&lt;Clipping Path&gt;" class="cls-2" d="M374.55,1463.66c0,10.27,23.72,17.39,53.9,17.39s54.65-7.11,54.65-17.39c-.27-6-22.77-16.35-54.65-15.56C398.27,1448.1,374.83,1457,374.55,1463.66Z"/></clipPath><linearGradient id="linear-gradient-130" x1="-105.3" y1="573.98" x2="-105.3" y2="700.15" gradientTransform="translate(-203 1353) rotate(-90)" xlink:href="#linear-gradient"/><clipPath id="clip-path-45" transform="translate(-247.5 -1325.28)"><polygon class="cls-27" points="395.97 1462.22 435.8 1476.21 435.8 1465.33 461.69 1468.44 423.85 1452.9 423.85 1465.33 395.97 1462.22"/></clipPath><linearGradient id="linear-gradient-132" x1="-107.43" y1="593.96" x2="-107.43" y2="669.69" gradientTransform="translate(-450.5 27.72) rotate(-90)" xlink:href="#linear-gradient"/><clipPath id="clip-path-46" transform="translate(-247.5 -1325.28)"><path class="cls-28" d="M356.48,1464.88c14.35,17.17,38.82,24.46,71.45,24.76,23.56.21,58.9-5.59,73.26-24.92.25-.19,0-35.77,0-35.77H356.46C356.46,1429.13,356.22,1464.63,356.48,1464.88Z"/></clipPath><linearGradient id="linear-gradient-134" x1="423.69" y1="1459.29" x2="568.63" y2="1459.29" xlink:href="#linear-gradient"/><linearGradient id="linear-gradient-135" x1="356.46" y1="1430.4" x2="501.19" y2="1430.4" xlink:href="#linear-gradient"/><clipPath id="clip-path-47" transform="translate(-247.5 -1325.28)"><path id="_Clipping_Path_16" data-name="&lt;Clipping Path&gt;" class="cls-2" d="M374.55,1424.66c0,10.27,23.72,17.39,53.9,17.39s54.65-7.11,54.65-17.39c-.27-6-22.77-16.35-54.65-15.56C398.27,1409.1,374.83,1418,374.55,1424.66Z"/></clipPath><linearGradient id="linear-gradient-136" x1="-66.3" y1="573.98" x2="-66.3" y2="700.15" gradientTransform="translate(-203 1353) rotate(-90)" xlink:href="#linear-gradient"/><clipPath id="clip-path-48" transform="translate(-247.5 -1325.28)"><polygon class="cls-29" points="395.97 1423.22 435.8 1437.21 435.8 1426.33 461.69 1429.44 423.85 1413.9 423.85 1426.33 395.97 1423.22"/></clipPath><linearGradient id="linear-gradient-138" x1="-68.43" y1="593.96" x2="-68.43" y2="669.69" gradientTransform="translate(-450.5 27.72) rotate(-90)" xlink:href="#linear-gradient"/><clipPath id="clip-path-49" transform="translate(-247.5 -1325.28)"><path class="cls-30" d="M356.48,1425.88c14.35,17.17,38.82,24.46,71.45,24.76,23.56.21,58.9-5.59,73.26-24.92.25-.19,0-35.77,0-35.77H356.46C356.46,1390.13,356.22,1425.63,356.48,1425.88Z"/></clipPath><linearGradient id="linear-gradient-140" x1="423.69" y1="1420.29" x2="568.63" y2="1420.29" xlink:href="#linear-gradient"/><linearGradient id="linear-gradient-141" x1="356.46" y1="1391.4" x2="501.19" y2="1391.4" xlink:href="#linear-gradient"/><clipPath id="clip-path-50" transform="translate(-247.5 -1325.28)"><path id="_Clipping_Path_17" data-name="&lt;Clipping Path&gt;" class="cls-2" d="M374.55,1385.66c0,10.27,23.72,17.39,53.9,17.39s54.65-7.11,54.65-17.39c-.27-6-22.77-16.35-54.65-15.56C398.27,1370.1,374.83,1379,374.55,1385.66Z"/></clipPath><linearGradient id="linear-gradient-142" x1="-27.3" y1="573.98" x2="-27.3" y2="700.15" gradientTransform="translate(-203 1353) rotate(-90)" xlink:href="#linear-gradient"/><clipPath id="clip-path-51" transform="translate(-247.5 -1325.28)"><polygon class="cls-32" points="395.97 1384.22 435.8 1398.21 435.8 1387.33 461.69 1390.44 423.85 1374.9 423.85 1387.33 395.97 1384.22"/></clipPath><linearGradient id="linear-gradient-144" x1="-29.43" y1="593.96" x2="-29.43" y2="669.69" gradientTransform="translate(-450.5 27.72) rotate(-90)" xlink:href="#linear-gradient"/><clipPath id="clip-path-52" transform="translate(-247.5 -1325.28)"><path class="cls-33" d="M356.48,1386.88c14.35,17.17,38.82,24.46,71.45,24.76,23.56.21,58.9-5.59,73.26-24.92.25-.19,0-35.77,0-35.77H356.46C356.46,1351.13,356.22,1386.63,356.48,1386.88Z"/></clipPath><linearGradient id="linear-gradient-146" x1="423.69" y1="1381.29" x2="568.63" y2="1381.29" xlink:href="#linear-gradient"/><linearGradient id="linear-gradient-147" x1="356.46" y1="1352.4" x2="501.19" y2="1352.4" xlink:href="#linear-gradient"/><clipPath id="clip-path-53" transform="translate(-247.5 -1325.28)"><path id="_Clipping_Path_18" data-name="&lt;Clipping Path&gt;" class="cls-2" d="M374.55,1346.66c0,10.27,23.72,17.39,53.9,17.39s54.65-7.11,54.65-17.39c-.27-6-22.77-16.35-54.65-15.56C398.27,1331.1,374.83,1340,374.55,1346.66Z"/></clipPath><linearGradient id="linear-gradient-148" x1="11.7" y1="573.98" x2="11.7" y2="700.15" gradientTransform="translate(-203 1353) rotate(-90)" xlink:href="#linear-gradient"/><clipPath id="clip-path-54" transform="translate(-247.5 -1325.28)"><polygon class="cls-34" points="395.97 1345.22 435.8 1359.21 435.8 1348.33 461.69 1351.44 423.85 1335.9 423.85 1348.33 395.97 1345.22"/></clipPath><linearGradient id="linear-gradient-150" x1="9.57" y1="593.96" x2="9.57" y2="669.69" gradientTransform="translate(-450.5 27.72) rotate(-90)" xlink:href="#linear-gradient"/><clipPath id="clip-path-55" transform="translate(-247.5 -1325.28)"><path class="cls-35" d="M495.83,1705.72a65.67,65.67,0,1,1,0-131.35h12v131.35Z"/></clipPath><linearGradient id="linear-gradient-152" x1="167.34" y1="329.71" x2="280.8" y2="329.71" xlink:href="#linear-gradient"/><clipPath id="clip-path-56" transform="translate(-247.5 -1325.28)"><circle class="cls-36" cx="507.82" cy="1640.05" r="65.67"/></clipPath><clipPath id="clip-path-57" transform="translate(-247.5 -1325.28)"><circle class="cls-2" cx="507.82" cy="1640.05" r="53.68"/></clipPath><linearGradient id="linear-gradient-154" x1="450.64" y1="1639.22" x2="572.61" y2="1639.22" xlink:href="#linear-gradient"/><clipPath id="clip-path-58" transform="translate(-247.5 -1325.28)"><polygon class="cls-37" points="513.18 1610.6 481.05 1646.3 506.04 1646.3 498.9 1669.5 534.6 1635.59 506.04 1635.59 513.18 1610.6"/></clipPath><linearGradient id="linear-gradient-156" x1="245.86" y1="314.77" x2="293.71" y2="314.77" xlink:href="#linear-gradient"/><linearGradient id="linear-gradient-157" x1="152.22" y1="330.45" x2="325.99" y2="330.45" xlink:href="#linear-gradient"/><clipPath id="clip-path-59" transform="translate(-247.5 -1325.28)"><path class="cls-38" d="M277.51,1665.27c22.38.35,43.88-13.4,65.42-37.92,15.55-17.7,34.25-48.24,29-71.75,0-.31-27.08-23.37-27.08-23.37s-94.56,109.57-94.55,109.57S277.15,1665.3,277.51,1665.27Z"/></clipPath><linearGradient id="linear-gradient-159" x1="-332.58" y1="995.14" x2="-187.64" y2="995.14" gradientTransform="matrix(0.65, -0.76, 0.76, 0.65, -218.42, 708.2)" xlink:href="#linear-gradient"/><linearGradient id="linear-gradient-160" x1="-400.63" y1="966.25" x2="-255.9" y2="966.25" gradientTransform="matrix(0.65, -0.76, 0.76, 0.65, -218.42, 708.2)" xlink:href="#linear-gradient"/><clipPath id="clip-path-60" transform="translate(-247.5 -1325.28)"><path id="_Clipping_Path_19" data-name="&lt;Clipping Path&gt;" class="cls-2" d="M258.87,1625.31c7.78,6.71,28.66-6.6,48.37-29.45s30.32-46,22.54-52.73c-4.73-3.72-27.26,6.56-47.48,31.21C262.58,1597.19,254,1620.78,258.87,1625.31Z"/></clipPath><linearGradient id="linear-gradient-161" x1="397.86" y1="-183.11" x2="397.86" y2="-56.93" gradientTransform="matrix(-0.76, -0.65, 0.65, -0.76, 673.32, 1745.8)" xlink:href="#linear-gradient"/><clipPath id="clip-path-61" transform="translate(-247.5 -1325.28)"><polygon class="cls-40" points="271.77 1608.16 308.38 1587.14 300.14 1580.04 319.41 1562.47 282.92 1580.96 292.33 1589.08 271.77 1608.16"/></clipPath><linearGradient id="linear-gradient-163" x1="395.72" y1="-163.13" x2="395.72" y2="-87.39" gradientTransform="matrix(-0.76, -0.65, 0.65, -0.76, 425.81, 420.53)" xlink:href="#linear-gradient"/></defs><title>img-premium</title><g class="cls-43"><g id="premium"><g id="premium-2" data-name="premium"><path class="cls-1" d="M421.48,1629.88c14.35,17.17,38.82,24.46,71.45,24.76,23.56.21,58.9-5.59,73.26-24.92.25-.19,0-35.77,0-35.77H421.46C421.46,1594.13,421.22,1629.63,421.48,1629.88Z" transform="translate(-247.5 -1325.28)"/><g class="cls-44"><g class="cls-45"><path class="cls-46" d="M421.48,1629.88c14.35,17.17,38.82,24.46,71.45,24.76,23.56.21,58.9-5.59,73.26-24.92.25-.19,0-35.77,0-35.77H421.46C421.46,1594.13,421.22,1629.63,421.48,1629.88Z" transform="translate(-247.5 -1325.28)"/></g></g><path class="cls-47" d="M421.46,1593.94c0,16.9,31.62,28.59,71.86,28.59s72.86-11.7,72.86-28.59c-.36-9.89-30.36-26.89-72.86-25.59C453.08,1568.35,421.83,1583,421.46,1593.94Z" transform="translate(-247.5 -1325.28)"/><path id="_Clipping_Path_20" data-name="&lt;Clipping Path&gt;" class="cls-2" d="M439.55,1589.66c0,10.27,23.72,17.39,53.9,17.39s54.65-7.11,54.65-17.39c-.27-6-22.77-16.35-54.65-15.56C463.27,1574.1,439.83,1583,439.55,1589.66Z" transform="translate(-247.5 -1325.28)"/><g class="cls-48"><g class="cls-49"><path class="cls-50" d="M553.72,1582.06l-47.81-12.62-51,1.3L436,1588s2.94,5.2,3.85,7.09c-1-2-2-2,1.1-5.54,9.42-8.09,30.3-13.71,54.55-13.71,33.07,0,59.88,10.46,59.89,23.36l6.79-3.21Z" transform="translate(-247.5 -1325.28)"/></g></g><polygon class="cls-9" points="213.46 262.95 253.29 276.93 253.29 266.05 279.18 269.16 241.34 253.62 241.34 266.05 213.46 262.95"/><g class="cls-51"><g class="cls-49"><polygon class="cls-52" points="215.66 265.2 208.45 261.18 236.65 260.38 240.15 250.74 284.19 267.37 281.86 271.57 244.02 256.03 244.02 268.46 216.23 265.37 215.66 265.2"/></g></g><path class="cls-17" d="M421.48,1590.88c14.35,17.17,38.82,24.46,71.45,24.76,23.56.21,58.9-5.59,73.26-24.92.25-.19,0-35.77,0-35.77H421.46C421.46,1555.13,421.22,1590.63,421.48,1590.88Z" transform="translate(-247.5 -1325.28)"/><g class="cls-53"><g class="cls-45"><path class="cls-54" d="M421.48,1590.88c14.35,17.17,38.82,24.46,71.45,24.76,23.56.21,58.9-5.59,73.26-24.92.25-.19,0-35.77,0-35.77H421.46C421.46,1555.13,421.22,1590.63,421.48,1590.88Z" transform="translate(-247.5 -1325.28)"/></g></g><path class="cls-55" d="M421.46,1554.94c0,16.9,31.62,28.59,71.86,28.59s72.86-11.7,72.86-28.59c-.36-9.89-30.36-26.89-72.86-25.59C453.08,1529.35,421.83,1544,421.46,1554.94Z" transform="translate(-247.5 -1325.28)"/><path id="_Clipping_Path_21" data-name="&lt;Clipping Path&gt;" class="cls-2" d="M439.55,1550.66c0,10.27,23.72,17.39,53.9,17.39s54.65-7.11,54.65-17.39c-.27-6-22.77-16.35-54.65-15.56C463.27,1535.1,439.83,1544,439.55,1550.66Z" transform="translate(-247.5 -1325.28)"/><g class="cls-56"><g class="cls-49"><path class="cls-57" d="M553.72,1543.06l-47.81-12.62-51,1.3L436,1549s2.94,5.2,3.85,7.09c-1-2-2-2,1.1-5.54,9.42-8.09,30.3-13.71,54.55-13.71,33.07,0,59.88,10.46,59.89,23.36l6.79-3.21Z" transform="translate(-247.5 -1325.28)"/></g></g><polygon class="cls-31" points="213.46 223.95 253.29 237.93 253.29 227.05 279.18 230.16 241.34 214.62 241.34 227.05 213.46 223.95"/><g class="cls-58"><g class="cls-49"><polygon class="cls-59" points="215.66 226.2 208.45 222.18 236.65 221.38 240.15 211.74 284.19 228.37 281.86 232.57 244.02 217.03 244.02 229.46 216.23 226.37 215.66 226.2"/></g></g><path class="cls-39" d="M421.48,1551.88c14.35,17.17,38.82,24.46,71.45,24.76,23.56.21,58.9-5.59,73.26-24.92.25-.19,0-35.77,0-35.77H421.46C421.46,1516.13,421.22,1551.63,421.48,1551.88Z" transform="translate(-247.5 -1325.28)"/><g class="cls-60"><g class="cls-45"><path class="cls-61" d="M421.48,1551.88c14.35,17.17,38.82,24.46,71.45,24.76,23.56.21,58.9-5.59,73.26-24.92.25-.19,0-35.77,0-35.77H421.46C421.46,1516.13,421.22,1551.63,421.48,1551.88Z" transform="translate(-247.5 -1325.28)"/></g></g><path class="cls-62" d="M421.46,1515.94c0,16.9,31.62,28.59,71.86,28.59s72.86-11.7,72.86-28.59c-.36-9.89-30.36-26.89-72.86-25.59C453.08,1490.35,421.83,1505,421.46,1515.94Z" transform="translate(-247.5 -1325.28)"/><path id="_Clipping_Path_22" data-name="&lt;Clipping Path&gt;" class="cls-2" d="M439.55,1511.66c0,10.27,23.72,17.39,53.9,17.39s54.65-7.11,54.65-17.39c-.27-6-22.77-16.35-54.65-15.56C463.27,1496.1,439.83,1505,439.55,1511.66Z" transform="translate(-247.5 -1325.28)"/><g class="cls-63"><g class="cls-49"><path class="cls-64" d="M553.72,1504.06l-47.81-12.62-51,1.3L436,1510s2.94,5.2,3.85,7.09c-1-2-2-2,1.1-5.54,9.42-8.09,30.3-13.71,54.55-13.71,33.07,0,59.88,10.46,59.89,23.36l6.79-3.21Z" transform="translate(-247.5 -1325.28)"/></g></g><polygon class="cls-41" points="213.46 184.95 253.29 198.93 253.29 188.05 279.18 191.16 241.34 175.62 241.34 188.05 213.46 184.95"/><g class="cls-65"><g class="cls-49"><polygon class="cls-66" points="215.66 187.2 208.45 183.18 236.65 182.38 240.15 172.74 284.19 189.37 281.86 193.57 244.02 178.03 244.02 190.46 216.23 187.37 215.66 187.2"/></g></g><path class="cls-42" d="M421.48,1512.88c14.35,17.17,38.82,24.46,71.45,24.76,23.56.21,58.9-5.59,73.26-24.92.25-.19,0-35.77,0-35.77H421.46C421.46,1477.13,421.22,1512.63,421.48,1512.88Z" transform="translate(-247.5 -1325.28)"/><g class="cls-67"><g class="cls-45"><path class="cls-68" d="M421.48,1512.88c14.35,17.17,38.82,24.46,71.45,24.76,23.56.21,58.9-5.59,73.26-24.92.25-.19,0-35.77,0-35.77H421.46C421.46,1477.13,421.22,1512.63,421.48,1512.88Z" transform="translate(-247.5 -1325.28)"/></g></g><path class="cls-69" d="M421.46,1476.94c0,16.9,31.62,28.59,71.86,28.59s72.86-11.7,72.86-28.59c-.36-9.89-30.36-26.89-72.86-25.59C453.08,1451.35,421.83,1466,421.46,1476.94Z" transform="translate(-247.5 -1325.28)"/><path id="_Clipping_Path_23" data-name="&lt;Clipping Path&gt;" class="cls-2" d="M439.55,1472.66c0,10.27,23.72,17.39,53.9,17.39s54.65-7.11,54.65-17.39c-.27-6-22.77-16.35-54.65-15.56C463.27,1457.1,439.83,1466,439.55,1472.66Z" transform="translate(-247.5 -1325.28)"/><g class="cls-70"><g class="cls-49"><path class="cls-71" d="M553.72,1465.06l-47.81-12.62-51,1.3L436,1471s2.94,5.2,3.85,7.09c-1-2-2-2,1.1-5.54,9.42-8.09,30.3-13.71,54.55-13.71,33.07,0,59.88,10.46,59.89,23.36l6.79-3.21Z" transform="translate(-247.5 -1325.28)"/></g></g><polygon class="cls-3" points="213.46 145.95 253.29 159.93 253.29 149.05 279.18 152.16 241.34 136.62 241.34 149.05 213.46 145.95"/><g class="cls-72"><g class="cls-49"><polygon class="cls-73" points="215.66 148.2 208.45 144.18 236.65 143.38 240.15 133.74 284.19 150.37 281.86 154.57 244.02 139.03 244.02 151.46 216.23 148.37 215.66 148.2"/></g></g><path class="cls-4" d="M280.48,1620.88c14.35,17.17,38.82,24.46,71.45,24.76,23.56.21,58.9-5.59,73.26-24.92.25-.19,0-35.77,0-35.77H280.46C280.46,1585.13,280.22,1620.63,280.48,1620.88Z" transform="translate(-247.5 -1325.28)"/><g class="cls-74"><g class="cls-45"><path class="cls-75" d="M280.48,1620.88c14.35,17.17,38.82,24.46,71.45,24.76,23.56.21,58.9-5.59,73.26-24.92.25-.19,0-35.77,0-35.77H280.46C280.46,1585.13,280.22,1620.63,280.48,1620.88Z" transform="translate(-247.5 -1325.28)"/></g></g><path class="cls-76" d="M280.46,1584.94c0,16.9,31.62,28.59,71.86,28.59s72.86-11.7,72.86-28.59c-.36-9.89-30.36-26.89-72.86-25.59C312.08,1559.35,280.83,1574,280.46,1584.94Z" transform="translate(-247.5 -1325.28)"/><path id="_Clipping_Path_24" data-name="&lt;Clipping Path&gt;" class="cls-2" d="M298.55,1580.66c0,10.27,23.72,17.39,53.9,17.39s54.65-7.11,54.65-17.39c-.27-6-22.77-16.35-54.65-15.56C322.27,1565.1,298.83,1574,298.55,1580.66Z" transform="translate(-247.5 -1325.28)"/><g class="cls-77"><g class="cls-49"><path class="cls-78" d="M412.72,1573.06l-47.81-12.62-51,1.3L295,1579s2.94,5.2,3.85,7.09c-1-2-2-2,1.1-5.54,9.42-8.09,30.3-13.71,54.55-13.71,33.07,0,59.88,10.46,59.89,23.36l6.79-3.21Z" transform="translate(-247.5 -1325.28)"/></g></g><polygon class="cls-5" points="72.46 253.95 112.29 267.93 112.29 257.05 138.18 260.16 100.34 244.62 100.34 257.05 72.46 253.95"/><g class="cls-79"><g class="cls-49"><polygon class="cls-80" points="74.66 256.2 67.45 252.18 95.65 251.38 99.15 241.74 143.19 258.37 140.86 262.57 103.02 247.03 103.02 259.46 75.23 256.37 74.66 256.2"/></g></g><path class="cls-6" d="M280.48,1581.88c14.35,17.17,38.82,24.46,71.45,24.76,23.56.21,58.9-5.59,73.26-24.92.25-.19,0-35.77,0-35.77H280.46C280.46,1546.13,280.22,1581.63,280.48,1581.88Z" transform="translate(-247.5 -1325.28)"/><g class="cls-81"><g class="cls-45"><path class="cls-82" d="M280.48,1581.88c14.35,17.17,38.82,24.46,71.45,24.76,23.56.21,58.9-5.59,73.26-24.92.25-.19,0-35.77,0-35.77H280.46C280.46,1546.13,280.22,1581.63,280.48,1581.88Z" transform="translate(-247.5 -1325.28)"/></g></g><path class="cls-83" d="M280.46,1545.94c0,16.9,31.62,28.59,71.86,28.59s72.86-11.7,72.86-28.59c-.36-9.89-30.36-26.89-72.86-25.59C312.08,1520.35,280.83,1535,280.46,1545.94Z" transform="translate(-247.5 -1325.28)"/><path id="_Clipping_Path_25" data-name="&lt;Clipping Path&gt;" class="cls-2" d="M298.55,1541.66c0,10.27,23.72,17.39,53.9,17.39s54.65-7.11,54.65-17.39c-.27-6-22.77-16.35-54.65-15.56C322.27,1526.1,298.83,1535,298.55,1541.66Z" transform="translate(-247.5 -1325.28)"/><g class="cls-84"><g class="cls-49"><path class="cls-85" d="M412.72,1534.06l-47.81-12.62-51,1.3L295,1540s2.94,5.2,3.85,7.09c-1-2-2-2,1.1-5.54,9.42-8.09,30.3-13.71,54.55-13.71,33.07,0,59.88,10.46,59.89,23.36l6.79-3.21Z" transform="translate(-247.5 -1325.28)"/></g></g><polygon class="cls-7" points="72.46 214.95 112.29 228.93 112.29 218.05 138.18 221.16 100.34 205.62 100.34 218.05 72.46 214.95"/><g class="cls-86"><g class="cls-49"><polygon class="cls-87" points="74.66 217.2 67.45 213.18 95.65 212.38 99.15 202.74 143.19 219.37 140.86 223.57 103.02 208.03 103.02 220.46 75.23 217.37 74.66 217.2"/></g></g><path class="cls-8" d="M280.48,1542.88c14.35,17.17,38.82,24.46,71.45,24.76,23.56.21,58.9-5.59,73.26-24.92.25-.19,0-35.77,0-35.77H280.46C280.46,1507.13,280.22,1542.63,280.48,1542.88Z" transform="translate(-247.5 -1325.28)"/><g class="cls-88"><g class="cls-45"><path class="cls-89" d="M280.48,1542.88c14.35,17.17,38.82,24.46,71.45,24.76,23.56.21,58.9-5.59,73.26-24.92.25-.19,0-35.77,0-35.77H280.46C280.46,1507.13,280.22,1542.63,280.48,1542.88Z" transform="translate(-247.5 -1325.28)"/></g></g><path class="cls-90" d="M280.46,1506.94c0,16.9,31.62,28.59,71.86,28.59s72.86-11.7,72.86-28.59c-.36-9.89-30.36-26.89-72.86-25.59C312.08,1481.35,280.83,1496,280.46,1506.94Z" transform="translate(-247.5 -1325.28)"/><path id="_Clipping_Path_26" data-name="&lt;Clipping Path&gt;" class="cls-2" d="M298.55,1502.66c0,10.27,23.72,17.39,53.9,17.39s54.65-7.11,54.65-17.39c-.27-6-22.77-16.35-54.65-15.56C322.27,1487.1,298.83,1496,298.55,1502.66Z" transform="translate(-247.5 -1325.28)"/><g class="cls-91"><g class="cls-49"><path class="cls-92" d="M412.72,1495.06l-47.81-12.62-51,1.3L295,1501s2.94,5.2,3.85,7.09c-1-2-2-2,1.1-5.54,9.42-8.09,30.3-13.71,54.55-13.71,33.07,0,59.88,10.46,59.89,23.36l6.79-3.21Z" transform="translate(-247.5 -1325.28)"/></g></g><polygon class="cls-10" points="72.46 175.95 112.29 189.93 112.29 179.05 138.18 182.16 100.34 166.62 100.34 179.05 72.46 175.95"/><g class="cls-93"><g class="cls-49"><polygon class="cls-94" points="74.66 178.2 67.45 174.18 95.65 173.38 99.15 163.74 143.19 180.37 140.86 184.57 103.02 169.03 103.02 181.46 75.23 178.37 74.66 178.2"/></g></g><path class="cls-11" d="M280.48,1503.88c14.35,17.17,38.82,24.46,71.45,24.76,23.56.21,58.9-5.59,73.26-24.92.25-.19,0-35.77,0-35.77H280.46C280.46,1468.13,280.22,1503.63,280.48,1503.88Z" transform="translate(-247.5 -1325.28)"/><g class="cls-95"><g class="cls-45"><path class="cls-96" d="M280.48,1503.88c14.35,17.17,38.82,24.46,71.45,24.76,23.56.21,58.9-5.59,73.26-24.92.25-.19,0-35.77,0-35.77H280.46C280.46,1468.13,280.22,1503.63,280.48,1503.88Z" transform="translate(-247.5 -1325.28)"/></g></g><path class="cls-97" d="M280.46,1467.94c0,16.9,31.62,28.59,71.86,28.59s72.86-11.7,72.86-28.59c-.36-9.89-30.36-26.89-72.86-25.59C312.08,1442.35,280.83,1457,280.46,1467.94Z" transform="translate(-247.5 -1325.28)"/><path id="_Clipping_Path_27" data-name="&lt;Clipping Path&gt;" class="cls-2" d="M298.55,1463.66c0,10.27,23.72,17.39,53.9,17.39s54.65-7.11,54.65-17.39c-.27-6-22.77-16.35-54.65-15.56C322.27,1448.1,298.83,1457,298.55,1463.66Z" transform="translate(-247.5 -1325.28)"/><g class="cls-98"><g class="cls-49"><path class="cls-99" d="M412.72,1456.06l-47.81-12.62-51,1.3L295,1462s2.94,5.2,3.85,7.09c-1-2-2-2,1.1-5.54,9.42-8.09,30.3-13.71,54.55-13.71,33.07,0,59.88,10.46,59.89,23.36l6.79-3.21Z" transform="translate(-247.5 -1325.28)"/></g></g><polygon class="cls-12" points="72.46 136.95 112.29 150.93 112.29 140.05 138.18 143.16 100.34 127.62 100.34 140.05 72.46 136.95"/><g class="cls-100"><g class="cls-49"><polygon class="cls-101" points="74.66 139.2 67.45 135.18 95.65 134.38 99.15 124.74 143.19 141.37 140.86 145.57 103.02 130.03 103.02 142.46 75.23 139.37 74.66 139.2"/></g></g><path class="cls-13" d="M280.48,1464.88c14.35,17.17,38.82,24.46,71.45,24.76,23.56.21,58.9-5.59,73.26-24.92.25-.19,0-35.77,0-35.77H280.46C280.46,1429.13,280.22,1464.63,280.48,1464.88Z" transform="translate(-247.5 -1325.28)"/><g class="cls-102"><g class="cls-45"><path class="cls-103" d="M280.48,1464.88c14.35,17.17,38.82,24.46,71.45,24.76,23.56.21,58.9-5.59,73.26-24.92.25-.19,0-35.77,0-35.77H280.46C280.46,1429.13,280.22,1464.63,280.48,1464.88Z" transform="translate(-247.5 -1325.28)"/></g></g><path class="cls-104" d="M280.46,1428.94c0,16.9,31.62,28.59,71.86,28.59s72.86-11.7,72.86-28.59c-.36-9.89-30.36-26.89-72.86-25.59C312.08,1403.35,280.83,1418,280.46,1428.94Z" transform="translate(-247.5 -1325.28)"/><path id="_Clipping_Path_28" data-name="&lt;Clipping Path&gt;" class="cls-2" d="M298.55,1424.66c0,10.27,23.72,17.39,53.9,17.39s54.65-7.11,54.65-17.39c-.27-6-22.77-16.35-54.65-15.56C322.27,1409.1,298.83,1418,298.55,1424.66Z" transform="translate(-247.5 -1325.28)"/><g class="cls-105"><g class="cls-49"><path class="cls-106" d="M412.72,1417.06l-47.81-12.62-51,1.3L295,1423s2.94,5.2,3.85,7.09c-1-2-2-2,1.1-5.54,9.42-8.09,30.3-13.71,54.55-13.71,33.07,0,59.88,10.46,59.89,23.36l6.79-3.21Z" transform="translate(-247.5 -1325.28)"/></g></g><polygon class="cls-14" points="72.46 97.95 112.29 111.93 112.29 101.05 138.18 104.16 100.34 88.62 100.34 101.05 72.46 97.95"/><g class="cls-107"><g class="cls-49"><polygon class="cls-108" points="74.66 100.2 67.45 96.18 95.65 95.38 99.15 85.74 143.19 102.36 140.86 106.57 103.02 91.03 103.02 103.46 75.23 100.36 74.66 100.2"/></g></g><path class="cls-15" d="M280.48,1425.88c14.35,17.17,38.82,24.46,71.45,24.76,23.56.21,58.9-5.59,73.26-24.92.25-.19,0-35.77,0-35.77H280.46C280.46,1390.13,280.22,1425.63,280.48,1425.88Z" transform="translate(-247.5 -1325.28)"/><g class="cls-109"><g class="cls-45"><path class="cls-110" d="M280.48,1425.88c14.35,17.17,38.82,24.46,71.45,24.76,23.56.21,58.9-5.59,73.26-24.92.25-.19,0-35.77,0-35.77H280.46C280.46,1390.13,280.22,1425.63,280.48,1425.88Z" transform="translate(-247.5 -1325.28)"/></g></g><path class="cls-111" d="M280.46,1389.94c0,16.9,31.62,28.59,71.86,28.59s72.86-11.7,72.86-28.59c-.36-9.89-30.36-26.89-72.86-25.59C312.08,1364.35,280.83,1379,280.46,1389.94Z" transform="translate(-247.5 -1325.28)"/><path id="_Clipping_Path_29" data-name="&lt;Clipping Path&gt;" class="cls-2" d="M298.55,1385.66c0,10.27,23.72,17.39,53.9,17.39s54.65-7.11,54.65-17.39c-.27-6-22.77-16.35-54.65-15.56C322.27,1370.1,298.83,1379,298.55,1385.66Z" transform="translate(-247.5 -1325.28)"/><g class="cls-112"><g class="cls-49"><path class="cls-113" d="M412.72,1378.06l-47.81-12.62-51,1.3L295,1384s2.94,5.2,3.85,7.09c-1-2-2-2,1.1-5.54,9.42-8.09,30.3-13.71,54.55-13.71,33.07,0,59.88,10.46,59.89,23.36l6.79-3.21Z" transform="translate(-247.5 -1325.28)"/></g></g><polygon class="cls-16" points="72.46 58.95 112.29 72.93 112.29 62.05 138.18 65.16 100.34 49.62 100.34 62.05 72.46 58.95"/><g class="cls-114"><g class="cls-49"><polygon class="cls-115" points="74.66 61.2 67.45 57.18 95.65 56.38 99.15 46.74 143.19 63.37 140.86 67.57 103.02 52.03 103.02 64.46 75.23 61.37 74.66 61.2"/></g></g><g class="cls-116"><path class="cls-117" d="M345.74,1364.48v259.46S313.5,1641,323.5,1643a164.82,164.82,0,0,0,22.24,2.44h14V1364.28A114.29,114.29,0,0,0,345.74,1364.48Z" transform="translate(-247.5 -1325.28)"/></g><path class="cls-18" d="M356.48,1659.88c14.35,17.17,38.82,24.46,71.45,24.76,23.56.21,58.9-5.59,73.26-24.92.25-.19,0-35.77,0-35.77H356.46C356.46,1624.13,356.22,1659.63,356.48,1659.88Z" transform="translate(-247.5 -1325.28)"/><g class="cls-118"><g class="cls-45"><path class="cls-119" d="M356.48,1659.88c14.35,17.17,38.82,24.46,71.45,24.76,23.56.21,58.9-5.59,73.26-24.92.25-.19,0-35.77,0-35.77H356.46C356.46,1624.13,356.22,1659.63,356.48,1659.88Z" transform="translate(-247.5 -1325.28)"/></g></g><path class="cls-120" d="M356.46,1623.94c0,16.9,31.62,28.59,71.86,28.59s72.86-11.7,72.86-28.59c-.36-9.89-30.36-26.89-72.86-25.59C388.08,1598.35,356.83,1613,356.46,1623.94Z" transform="translate(-247.5 -1325.28)"/><path id="_Clipping_Path_30" data-name="&lt;Clipping Path&gt;" class="cls-2" d="M374.55,1619.66c0,10.27,23.72,17.39,53.9,17.39s54.65-7.11,54.65-17.39c-.27-6-22.77-16.35-54.65-15.56C398.27,1604.1,374.83,1613,374.55,1619.66Z" transform="translate(-247.5 -1325.28)"/><g class="cls-121"><g class="cls-49"><path class="cls-122" d="M488.72,1612.06l-47.81-12.62-51,1.3L371,1618s2.94,5.2,3.85,7.09c-1-2-2-2,1.1-5.54,9.42-8.09,30.3-13.71,54.55-13.71,33.07,0,59.88,10.46,59.89,23.36l6.79-3.21Z" transform="translate(-247.5 -1325.28)"/></g></g><polygon class="cls-19" points="148.46 292.95 188.29 306.93 188.29 296.05 214.18 299.16 176.34 283.62 176.34 296.05 148.46 292.95"/><g class="cls-123"><g class="cls-49"><polygon class="cls-124" points="150.66 295.2 143.45 291.18 171.65 290.38 175.15 280.74 219.19 297.37 216.86 301.57 179.02 286.03 179.02 298.46 151.23 295.37 150.66 295.2"/></g></g><path class="cls-20" d="M356.48,1620.88c14.35,17.17,38.82,24.46,71.45,24.76,23.56.21,58.9-5.59,73.26-24.92.25-.19,0-35.77,0-35.77H356.46C356.46,1585.13,356.22,1620.63,356.48,1620.88Z" transform="translate(-247.5 -1325.28)"/><g class="cls-125"><g class="cls-45"><path class="cls-126" d="M356.48,1620.88c14.35,17.17,38.82,24.46,71.45,24.76,23.56.21,58.9-5.59,73.26-24.92.25-.19,0-35.77,0-35.77H356.46C356.46,1585.13,356.22,1620.63,356.48,1620.88Z" transform="translate(-247.5 -1325.28)"/></g></g><path class="cls-127" d="M356.46,1584.94c0,16.9,31.62,28.59,71.86,28.59s72.86-11.7,72.86-28.59c-.36-9.89-30.36-26.89-72.86-25.59C388.08,1559.35,356.83,1574,356.46,1584.94Z" transform="translate(-247.5 -1325.28)"/><path id="_Clipping_Path_31" data-name="&lt;Clipping Path&gt;" class="cls-2" d="M374.55,1580.66c0,10.27,23.72,17.39,53.9,17.39s54.65-7.11,54.65-17.39c-.27-6-22.77-16.35-54.65-15.56C398.27,1565.1,374.83,1574,374.55,1580.66Z" transform="translate(-247.5 -1325.28)"/><g class="cls-128"><g class="cls-49"><path class="cls-129" d="M488.72,1573.06l-47.81-12.62-51,1.3L371,1579s2.94,5.2,3.85,7.09c-1-2-2-2,1.1-5.54,9.42-8.09,30.3-13.71,54.55-13.71,33.07,0,59.88,10.46,59.89,23.36l6.79-3.21Z" transform="translate(-247.5 -1325.28)"/></g></g><polygon class="cls-21" points="148.46 253.95 188.29 267.93 188.29 257.05 214.18 260.16 176.34 244.62 176.34 257.05 148.46 253.95"/><g class="cls-130"><g class="cls-49"><polygon class="cls-131" points="150.66 256.2 143.45 252.18 171.65 251.38 175.15 241.74 219.19 258.37 216.86 262.57 179.02 247.03 179.02 259.46 151.23 256.37 150.66 256.2"/></g></g><path class="cls-22" d="M356.48,1581.88c14.35,17.17,38.82,24.46,71.45,24.76,23.56.21,58.9-5.59,73.26-24.92.25-.19,0-35.77,0-35.77H356.46C356.46,1546.13,356.22,1581.63,356.48,1581.88Z" transform="translate(-247.5 -1325.28)"/><g class="cls-132"><g class="cls-45"><path class="cls-133" d="M356.48,1581.88c14.35,17.17,38.82,24.46,71.45,24.76,23.56.21,58.9-5.59,73.26-24.92.25-.19,0-35.77,0-35.77H356.46C356.46,1546.13,356.22,1581.63,356.48,1581.88Z" transform="translate(-247.5 -1325.28)"/></g></g><path class="cls-134" d="M356.46,1545.94c0,16.9,31.62,28.59,71.86,28.59s72.86-11.7,72.86-28.59c-.36-9.89-30.36-26.89-72.86-25.59C388.08,1520.35,356.83,1535,356.46,1545.94Z" transform="translate(-247.5 -1325.28)"/><path id="_Clipping_Path_32" data-name="&lt;Clipping Path&gt;" class="cls-2" d="M374.55,1541.66c0,10.27,23.72,17.39,53.9,17.39s54.65-7.11,54.65-17.39c-.27-6-22.77-16.35-54.65-15.56C398.27,1526.1,374.83,1535,374.55,1541.66Z" transform="translate(-247.5 -1325.28)"/><g class="cls-135"><g class="cls-49"><path class="cls-136" d="M488.72,1534.06l-47.81-12.62-51,1.3L371,1540s2.94,5.2,3.85,7.09c-1-2-2-2,1.1-5.54,9.42-8.09,30.3-13.71,54.55-13.71,33.07,0,59.88,10.46,59.89,23.36l6.79-3.21Z" transform="translate(-247.5 -1325.28)"/></g></g><polygon class="cls-23" points="148.46 214.95 188.29 228.93 188.29 218.05 214.18 221.16 176.34 205.62 176.34 218.05 148.46 214.95"/><g class="cls-137"><g class="cls-49"><polygon class="cls-138" points="150.66 217.2 143.45 213.18 171.65 212.38 175.15 202.74 219.19 219.37 216.86 223.57 179.02 208.03 179.02 220.46 151.23 217.37 150.66 217.2"/></g></g><path class="cls-24" d="M356.48,1542.88c14.35,17.17,38.82,24.46,71.45,24.76,23.56.21,58.9-5.59,73.26-24.92.25-.19,0-35.77,0-35.77H356.46C356.46,1507.13,356.22,1542.63,356.48,1542.88Z" transform="translate(-247.5 -1325.28)"/><g class="cls-139"><g class="cls-45"><path class="cls-140" d="M356.48,1542.88c14.35,17.17,38.82,24.46,71.45,24.76,23.56.21,58.9-5.59,73.26-24.92.25-.19,0-35.77,0-35.77H356.46C356.46,1507.13,356.22,1542.63,356.48,1542.88Z" transform="translate(-247.5 -1325.28)"/></g></g><path class="cls-141" d="M356.46,1506.94c0,16.9,31.62,28.59,71.86,28.59s72.86-11.7,72.86-28.59c-.36-9.89-30.36-26.89-72.86-25.59C388.08,1481.35,356.83,1496,356.46,1506.94Z" transform="translate(-247.5 -1325.28)"/><path id="_Clipping_Path_33" data-name="&lt;Clipping Path&gt;" class="cls-2" d="M374.55,1502.66c0,10.27,23.72,17.39,53.9,17.39s54.65-7.11,54.65-17.39c-.27-6-22.77-16.35-54.65-15.56C398.27,1487.1,374.83,1496,374.55,1502.66Z" transform="translate(-247.5 -1325.28)"/><g class="cls-142"><g class="cls-49"><path class="cls-143" d="M488.72,1495.06l-47.81-12.62-51,1.3L371,1501s2.94,5.2,3.85,7.09c-1-2-2-2,1.1-5.54,9.42-8.09,30.3-13.71,54.55-13.71,33.07,0,59.88,10.46,59.89,23.36l6.79-3.21Z" transform="translate(-247.5 -1325.28)"/></g></g><polygon class="cls-25" points="148.46 175.95 188.29 189.93 188.29 179.05 214.18 182.16 176.34 166.62 176.34 179.05 148.46 175.95"/><g class="cls-144"><g class="cls-49"><polygon class="cls-145" points="150.66 178.2 143.45 174.18 171.65 173.38 175.15 163.74 219.19 180.37 216.86 184.57 179.02 169.03 179.02 181.46 151.23 178.37 150.66 178.2"/></g></g><path class="cls-26" d="M356.48,1503.88c14.35,17.17,38.82,24.46,71.45,24.76,23.56.21,58.9-5.59,73.26-24.92.25-.19,0-35.77,0-35.77H356.46C356.46,1468.13,356.22,1503.63,356.48,1503.88Z" transform="translate(-247.5 -1325.28)"/><g class="cls-146"><g class="cls-45"><path class="cls-147" d="M356.48,1503.88c14.35,17.17,38.82,24.46,71.45,24.76,23.56.21,58.9-5.59,73.26-24.92.25-.19,0-35.77,0-35.77H356.46C356.46,1468.13,356.22,1503.63,356.48,1503.88Z" transform="translate(-247.5 -1325.28)"/></g></g><path class="cls-148" d="M356.46,1467.94c0,16.9,31.62,28.59,71.86,28.59s72.86-11.7,72.86-28.59c-.36-9.89-30.36-26.89-72.86-25.59C388.08,1442.35,356.83,1457,356.46,1467.94Z" transform="translate(-247.5 -1325.28)"/><path id="_Clipping_Path_34" data-name="&lt;Clipping Path&gt;" class="cls-2" d="M374.55,1463.66c0,10.27,23.72,17.39,53.9,17.39s54.65-7.11,54.65-17.39c-.27-6-22.77-16.35-54.65-15.56C398.27,1448.1,374.83,1457,374.55,1463.66Z" transform="translate(-247.5 -1325.28)"/><g class="cls-149"><g class="cls-49"><path class="cls-150" d="M488.72,1456.06l-47.81-12.62-51,1.3L371,1462s2.94,5.2,3.85,7.09c-1-2-2-2,1.1-5.54,9.42-8.09,30.3-13.71,54.55-13.71,33.07,0,59.88,10.46,59.89,23.36l6.79-3.21Z" transform="translate(-247.5 -1325.28)"/></g></g><polygon class="cls-27" points="148.46 136.95 188.29 150.93 188.29 140.05 214.18 143.16 176.34 127.62 176.34 140.05 148.46 136.95"/><g class="cls-151"><g class="cls-49"><polygon class="cls-152" points="150.66 139.2 143.45 135.18 171.65 134.38 175.15 124.74 219.19 141.37 216.86 145.57 179.02 130.03 179.02 142.46 151.23 139.37 150.66 139.2"/></g></g><path class="cls-28" d="M356.48,1464.88c14.35,17.17,38.82,24.46,71.45,24.76,23.56.21,58.9-5.59,73.26-24.92.25-.19,0-35.77,0-35.77H356.46C356.46,1429.13,356.22,1464.63,356.48,1464.88Z" transform="translate(-247.5 -1325.28)"/><g class="cls-153"><g class="cls-45"><path class="cls-154" d="M356.48,1464.88c14.35,17.17,38.82,24.46,71.45,24.76,23.56.21,58.9-5.59,73.26-24.92.25-.19,0-35.77,0-35.77H356.46C356.46,1429.13,356.22,1464.63,356.48,1464.88Z" transform="translate(-247.5 -1325.28)"/></g></g><path class="cls-155" d="M356.46,1428.94c0,16.9,31.62,28.59,71.86,28.59s72.86-11.7,72.86-28.59c-.36-9.89-30.36-26.89-72.86-25.59C388.08,1403.35,356.83,1418,356.46,1428.94Z" transform="translate(-247.5 -1325.28)"/><path id="_Clipping_Path_35" data-name="&lt;Clipping Path&gt;" class="cls-2" d="M374.55,1424.66c0,10.27,23.72,17.39,53.9,17.39s54.65-7.11,54.65-17.39c-.27-6-22.77-16.35-54.65-15.56C398.27,1409.1,374.83,1418,374.55,1424.66Z" transform="translate(-247.5 -1325.28)"/><g class="cls-156"><g class="cls-49"><path class="cls-157" d="M488.72,1417.06l-47.81-12.62-51,1.3L371,1423s2.94,5.2,3.85,7.09c-1-2-2-2,1.1-5.54,9.42-8.09,30.3-13.71,54.55-13.71,33.07,0,59.88,10.46,59.89,23.36l6.79-3.21Z" transform="translate(-247.5 -1325.28)"/></g></g><polygon class="cls-29" points="148.46 97.95 188.29 111.93 188.29 101.05 214.18 104.16 176.34 88.62 176.34 101.05 148.46 97.95"/><g class="cls-158"><g class="cls-49"><polygon class="cls-159" points="150.66 100.2 143.45 96.18 171.65 95.38 175.15 85.74 219.19 102.36 216.86 106.57 179.02 91.03 179.02 103.46 151.23 100.36 150.66 100.2"/></g></g><path class="cls-30" d="M356.48,1425.88c14.35,17.17,38.82,24.46,71.45,24.76,23.56.21,58.9-5.59,73.26-24.92.25-.19,0-35.77,0-35.77H356.46C356.46,1390.13,356.22,1425.63,356.48,1425.88Z" transform="translate(-247.5 -1325.28)"/><g class="cls-160"><g class="cls-45"><path class="cls-161" d="M356.48,1425.88c14.35,17.17,38.82,24.46,71.45,24.76,23.56.21,58.9-5.59,73.26-24.92.25-.19,0-35.77,0-35.77H356.46C356.46,1390.13,356.22,1425.63,356.48,1425.88Z" transform="translate(-247.5 -1325.28)"/></g></g><path class="cls-162" d="M356.46,1389.94c0,16.9,31.62,28.59,71.86,28.59s72.86-11.7,72.86-28.59c-.36-9.89-30.36-26.89-72.86-25.59C388.08,1364.35,356.83,1379,356.46,1389.94Z" transform="translate(-247.5 -1325.28)"/><path id="_Clipping_Path_36" data-name="&lt;Clipping Path&gt;" class="cls-2" d="M374.55,1385.66c0,10.27,23.72,17.39,53.9,17.39s54.65-7.11,54.65-17.39c-.27-6-22.77-16.35-54.65-15.56C398.27,1370.1,374.83,1379,374.55,1385.66Z" transform="translate(-247.5 -1325.28)"/><g class="cls-163"><g class="cls-49"><path class="cls-164" d="M488.72,1378.06l-47.81-12.62-51,1.3L371,1384s2.94,5.2,3.85,7.09c-1-2-2-2,1.1-5.54,9.42-8.09,30.3-13.71,54.55-13.71,33.07,0,59.88,10.46,59.89,23.36l6.79-3.21Z" transform="translate(-247.5 -1325.28)"/></g></g><polygon class="cls-32" points="148.46 58.95 188.29 72.93 188.29 62.05 214.18 65.16 176.34 49.62 176.34 62.05 148.46 58.95"/><g class="cls-165"><g class="cls-49"><polygon class="cls-166" points="150.66 61.2 143.45 57.18 171.65 56.38 175.15 46.74 219.19 63.37 216.86 67.57 179.02 52.03 179.02 64.46 151.23 61.37 150.66 61.2"/></g></g><path class="cls-33" d="M356.48,1386.88c14.35,17.17,38.82,24.46,71.45,24.76,23.56.21,58.9-5.59,73.26-24.92.25-.19,0-35.77,0-35.77H356.46C356.46,1351.13,356.22,1386.63,356.48,1386.88Z" transform="translate(-247.5 -1325.28)"/><g class="cls-167"><g class="cls-45"><path class="cls-168" d="M356.48,1386.88c14.35,17.17,38.82,24.46,71.45,24.76,23.56.21,58.9-5.59,73.26-24.92.25-.19,0-35.77,0-35.77H356.46C356.46,1351.13,356.22,1386.63,356.48,1386.88Z" transform="translate(-247.5 -1325.28)"/></g></g><path class="cls-169" d="M356.46,1350.94c0,16.9,31.62,28.59,71.86,28.59s72.86-11.7,72.86-28.59c-.36-9.89-30.36-26.89-72.86-25.59C388.08,1325.35,356.83,1340,356.46,1350.94Z" transform="translate(-247.5 -1325.28)"/><path id="_Clipping_Path_37" data-name="&lt;Clipping Path&gt;" class="cls-2" d="M374.55,1346.66c0,10.27,23.72,17.39,53.9,17.39s54.65-7.11,54.65-17.39c-.27-6-22.77-16.35-54.65-15.56C398.27,1331.1,374.83,1340,374.55,1346.66Z" transform="translate(-247.5 -1325.28)"/><g class="cls-170"><g class="cls-49"><path class="cls-171" d="M488.72,1339.06l-47.81-12.62-51,1.3L371,1345s2.94,5.2,3.85,7.09c-1-2-2-2,1.1-5.54,9.42-8.09,30.3-13.71,54.55-13.71,33.07,0,59.88,10.46,59.89,23.36l6.79-3.21Z" transform="translate(-247.5 -1325.28)"/></g></g><polygon class="cls-34" points="148.46 19.95 188.29 33.93 188.29 23.05 214.18 26.16 176.34 10.62 176.34 23.05 148.46 19.95"/><g class="cls-172"><g class="cls-49"><polygon class="cls-173" points="150.66 22.2 143.45 18.18 171.65 17.38 175.15 7.74 219.19 24.36 216.86 28.57 179.02 13.03 179.02 25.46 151.23 22.36 150.66 22.2"/></g></g><path class="cls-35" d="M495.83,1705.72a65.67,65.67,0,1,1,0-131.35h12v131.35Z" transform="translate(-247.5 -1325.28)"/><g class="cls-174"><g class="cls-175"><rect class="cls-176" x="167.34" y="272.34" width="113.45" height="114.74"/></g></g><circle class="cls-36" cx="260.32" cy="314.77" r="65.67"/><g class="cls-177"><circle class="cls-2" cx="260.32" cy="314.77" r="53.68"/><g class="cls-178"><g class="cls-49"><path class="cls-179" d="M543.61,1693.73l29-42.86-3-45.69-65.3-28-53.68,24.35v40a53.68,53.68,0,1,1,53.69,53.68l7.37,6.09Z" transform="translate(-247.5 -1325.28)"/></g></g><polygon class="cls-37" points="265.68 285.32 233.54 321.02 258.53 321.02 251.39 344.23 287.1 310.31 258.53 310.31 265.68 285.32"/><g class="cls-180"><g class="cls-49"><polygon class="cls-181" points="260.5 287.29 269.73 280.83 271.57 306.1 293.71 309.24 255.52 348.71 245.86 346.63 281.56 312.71 253 312.71 260.12 287.8 260.5 287.29"/></g></g><g class="cls-116"><polygon class="cls-182" points="197.6 261.09 325.99 374.54 187.08 399.81 152.22 314.77 197.6 261.09"/></g></g><path class="cls-38" d="M277.51,1665.27c22.38.35,43.88-13.4,65.42-37.92,15.55-17.7,34.25-48.24,29-71.75,0-.31-27.08-23.37-27.08-23.37s-94.56,109.57-94.55,109.57S277.15,1665.3,277.51,1665.27Z" transform="translate(-247.5 -1325.28)"/><g class="cls-183"><g class="cls-45"><path class="cls-184" d="M277.51,1665.27c22.38.35,43.88-13.4,65.42-37.92,15.55-17.7,34.25-48.24,29-71.75,0-.31-27.08-23.37-27.08-23.37s-94.56,109.57-94.55,109.57S277.15,1665.3,277.51,1665.27Z" transform="translate(-247.5 -1325.28)"/></g></g><path class="cls-185" d="M250.29,1641.8c12.79,11,42.31-5.26,68.6-35.73s38.75-62.81,26-73.84c-7.72-6.19-40.19,5.42-67,38.45C251.57,1601.14,242.28,1634.41,250.29,1641.8Z" transform="translate(-247.5 -1325.28)"/><path id="_Clipping_Path_38" data-name="&lt;Clipping Path&gt;" class="cls-2" d="M258.87,1625.31c7.78,6.71,28.66-6.6,48.37-29.45s30.32-46,22.54-52.73c-4.73-3.72-27.26,6.56-47.48,31.21C262.58,1597.19,254,1620.78,258.87,1625.31Z" transform="translate(-247.5 -1325.28)"/><g class="cls-186"><g class="cls-49"><path class="cls-187" d="M327.69,1533.91l-40.79,28-32.32,39.44.66,25.6s5.86,1.17,7.88,1.72c-2.17-.55-2.82.21-3.48-4.45,0-12.41,9.42-31.9,25.26-50.26,21.6-25,47-38.5,56.81-30.08l2-7.24Z" transform="translate(-247.5 -1325.28)"/></g></g><polygon class="cls-40" points="24.26 282.88 60.87 261.87 52.64 254.76 71.9 237.19 35.42 255.68 44.83 263.81 24.26 282.88"/><g class="cls-188"><g class="cls-49"><polygon class="cls-189" points="27.4 282.69 19.66 285.52 37.47 263.65 32.46 254.71 73.81 232.22 75.48 236.74 38.99 255.23 48.4 263.35 27.9 282.37 27.4 282.69"/></g></g></g></g></g></svg>