<svg xmlns="http://www.w3.org/2000/svg" xmlns:xlink="http://www.w3.org/1999/xlink" viewBox="0 0 285.94 358.81"><defs><style>.cls-1{fill:url(#linear-gradient);}.cls-2{fill:#fff;}.cls-3{fill:url(#linear-gradient-2);}.cls-4{fill:url(#linear-gradient-3);}.cls-5{fill:url(#linear-gradient-4);}.cls-6{fill:url(#linear-gradient-5);}.cls-7{fill:url(#linear-gradient-6);}.cls-8{fill:url(#linear-gradient-7);}.cls-9{fill:url(#linear-gradient-8);}.cls-10{fill:url(#linear-gradient-9);}.cls-11{fill:url(#linear-gradient-10);}.cls-12{fill:url(#linear-gradient-11);}.cls-13{fill:url(#linear-gradient-12);}.cls-14{fill:url(#linear-gradient-13);}.cls-15{fill:url(#linear-gradient-14);}.cls-16{fill:url(#linear-gradient-15);}.cls-17{fill:url(#linear-gradient-16);}.cls-18{fill:url(#linear-gradient-17);}.cls-19{fill:url(#linear-gradient-18);}.cls-20{fill:url(#linear-gradient-19);}.cls-21{fill:url(#linear-gradient-20);}.cls-22{fill:url(#linear-gradient-21);}.cls-23{fill:url(#linear-gradient-22);}.cls-24{fill:url(#linear-gradient-23);}.cls-25{fill:url(#linear-gradient-24);}.cls-26{fill:url(#linear-gradient-25);}.cls-27{fill:url(#linear-gradient-26);}.cls-28{fill:url(#linear-gradient-27);}.cls-29{fill:url(#linear-gradient-28);}.cls-30{fill:url(#linear-gradient-29);}.cls-31{isolation:isolate;}.cls-32{clip-path:url(#clip-path);}.cls-33{opacity:0.6;}.cls-105,.cls-33,.cls-37,.cls-56{mix-blend-mode:multiply;}.cls-34{fill:url(#linear-gradient-31);}.cls-35{fill:url(#linear-gradient-32);}.cls-36{clip-path:url(#clip-path-2);}.cls-37{opacity:0.5;}.cls-38{fill:url(#linear-gradient-33);}.cls-39{clip-path:url(#clip-path-3);}.cls-40{fill:url(#linear-gradient-35);}.cls-41{clip-path:url(#clip-path-4);}.cls-42{fill:url(#linear-gradient-37);}.cls-43{fill:url(#linear-gradient-38);}.cls-44{clip-path:url(#clip-path-5);}.cls-45{fill:url(#linear-gradient-39);}.cls-46{clip-path:url(#clip-path-6);}.cls-47{fill:url(#linear-gradient-41);}.cls-48{clip-path:url(#clip-path-7);}.cls-49{fill:url(#linear-gradient-43);}.cls-50{fill:url(#linear-gradient-44);}.cls-51{clip-path:url(#clip-path-8);}.cls-52{fill:url(#linear-gradient-45);}.cls-53{clip-path:url(#clip-path-9);}.cls-54{fill:url(#linear-gradient-47);}.cls-55{clip-path:url(#clip-path-10);}.cls-57{fill:url(#linear-gradient-49);}.cls-58{fill:url(#linear-gradient-50);}.cls-59{clip-path:url(#clip-path-11);}.cls-60{fill:url(#linear-gradient-51);}.cls-61{clip-path:url(#clip-path-12);}.cls-62{fill:url(#linear-gradient-53);}.cls-63{clip-path:url(#clip-path-13);}.cls-64{fill:url(#linear-gradient-55);}.cls-65{fill:url(#linear-gradient-56);}.cls-66{clip-path:url(#clip-path-14);}.cls-67{fill:url(#linear-gradient-57);}.cls-68{clip-path:url(#clip-path-15);}.cls-69{fill:url(#linear-gradient-59);}.cls-70{clip-path:url(#clip-path-16);}.cls-71{fill:url(#linear-gradient-61);}.cls-72{fill:url(#linear-gradient-62);}.cls-73{clip-path:url(#clip-path-17);}.cls-74{fill:url(#linear-gradient-63);}.cls-75{clip-path:url(#clip-path-18);}.cls-76{fill:url(#linear-gradient-65);}.cls-77{clip-path:url(#clip-path-19);}.cls-78{fill:url(#linear-gradient-67);}.cls-79{fill:url(#linear-gradient-68);}.cls-80{clip-path:url(#clip-path-20);}.cls-81{fill:url(#linear-gradient-69);}.cls-82{clip-path:url(#clip-path-21);}.cls-83{fill:url(#linear-gradient-71);}.cls-84{clip-path:url(#clip-path-22);}.cls-85{fill:url(#linear-gradient-73);}.cls-86{fill:url(#linear-gradient-74);}.cls-87{clip-path:url(#clip-path-23);}.cls-88{fill:url(#linear-gradient-75);}.cls-89{clip-path:url(#clip-path-24);}.cls-90{fill:url(#linear-gradient-77);}.cls-91{clip-path:url(#clip-path-25);}.cls-92{fill:url(#linear-gradient-79);}.cls-93{fill:url(#linear-gradient-80);}.cls-94{clip-path:url(#clip-path-26);}.cls-95{fill:url(#linear-gradient-81);}.cls-96{clip-path:url(#clip-path-27);}.cls-97{fill:url(#linear-gradient-83);}.cls-98{clip-path:url(#clip-path-28);}.cls-99{fill:url(#linear-gradient-85);}.cls-100{fill:url(#linear-gradient-86);}.cls-101{clip-path:url(#clip-path-29);}.cls-102{fill:url(#linear-gradient-87);}.cls-103{clip-path:url(#clip-path-30);}.cls-104{fill:url(#linear-gradient-89);}.cls-105{opacity:0.3;}.cls-106{fill:url(#linear-gradient-90);}.cls-107{clip-path:url(#clip-path-31);}.cls-108{fill:url(#linear-gradient-92);}.cls-109{fill:url(#linear-gradient-93);}.cls-110{clip-path:url(#clip-path-32);}.cls-111{fill:url(#linear-gradient-94);}.cls-112{clip-path:url(#clip-path-33);}.cls-113{fill:url(#linear-gradient-96);}.cls-114{clip-path:url(#clip-path-34);}.cls-115{fill:url(#linear-gradient-98);}.cls-116{fill:url(#linear-gradient-99);}.cls-117{clip-path:url(#clip-path-35);}.cls-118{fill:url(#linear-gradient-100);}.cls-119{clip-path:url(#clip-path-36);}.cls-120{fill:url(#linear-gradient-102);}.cls-121{clip-path:url(#clip-path-37);}.cls-122{fill:url(#linear-gradient-104);}.cls-123{fill:url(#linear-gradient-105);}.cls-124{clip-path:url(#clip-path-38);}.cls-125{fill:url(#linear-gradient-106);}.cls-126{clip-path:url(#clip-path-39);}.cls-127{fill:url(#linear-gradient-108);}.cls-128{fill:url(#linear-gradient-109);}.cls-129{clip-path:url(#clip-path-40);}.cls-130{fill:url(#linear-gradient-111);}.cls-131{clip-path:url(#clip-path-41);}.cls-132{clip-path:url(#clip-path-42);}.cls-133{fill:url(#linear-gradient-113);}.cls-134{clip-path:url(#clip-path-43);}.cls-135{fill:url(#linear-gradient-115);}.cls-136{fill:url(#linear-gradient-116);}</style><linearGradient id="linear-gradient" x1="339.53" y1="1596.79" x2="484.47" y2="1596.79" gradientUnits="userSpaceOnUse"><stop offset="0" stop-color="#b41d8d"/><stop offset="1" stop-color="#30f"/></linearGradient><linearGradient id="linear-gradient-2" x1="-93.05" y1="582.14" x2="-93.05" y2="647.86" gradientTransform="translate(-203 1353) rotate(-90)" xlink:href="#linear-gradient"/><linearGradient id="linear-gradient-3" x1="339.53" y1="1440.79" x2="484.47" y2="1440.79" xlink:href="#linear-gradient"/><linearGradient id="linear-gradient-4" x1="-54.05" y1="582.14" x2="-54.05" y2="647.86" gradientTransform="translate(-203 1353) rotate(-90)" xlink:href="#linear-gradient"/><linearGradient id="linear-gradient-5" x1="339.53" y1="1401.79" x2="484.47" y2="1401.79" xlink:href="#linear-gradient"/><linearGradient id="linear-gradient-6" x1="-15.05" y1="582.14" x2="-15.05" y2="647.86" gradientTransform="translate(-203 1353) rotate(-90)" xlink:href="#linear-gradient"/><linearGradient id="linear-gradient-7" x1="267.53" y1="1617.79" x2="412.47" y2="1617.79" xlink:href="#linear-gradient"/><linearGradient id="linear-gradient-8" x1="-210.05" y1="582.14" x2="-210.05" y2="647.86" gradientTransform="translate(-203 1353) rotate(-90)" xlink:href="#linear-gradient"/><linearGradient id="linear-gradient-9" x1="-231.05" y1="510.14" x2="-231.05" y2="575.86" gradientTransform="translate(-203 1353) rotate(-90)" xlink:href="#linear-gradient"/><linearGradient id="linear-gradient-10" x1="267.53" y1="1578.79" x2="412.47" y2="1578.79" xlink:href="#linear-gradient"/><linearGradient id="linear-gradient-11" x1="-192.05" y1="510.14" x2="-192.05" y2="575.86" gradientTransform="translate(-203 1353) rotate(-90)" xlink:href="#linear-gradient"/><linearGradient id="linear-gradient-12" x1="267.53" y1="1539.79" x2="412.47" y2="1539.79" xlink:href="#linear-gradient"/><linearGradient id="linear-gradient-13" x1="-153.05" y1="510.14" x2="-153.05" y2="575.86" gradientTransform="translate(-203 1353) rotate(-90)" xlink:href="#linear-gradient"/><linearGradient id="linear-gradient-14" x1="267.53" y1="1500.79" x2="412.47" y2="1500.79" xlink:href="#linear-gradient"/><linearGradient id="linear-gradient-15" x1="-114.05" y1="510.14" x2="-114.05" y2="575.86" gradientTransform="translate(-203 1353) rotate(-90)" xlink:href="#linear-gradient"/><linearGradient id="linear-gradient-16" x1="339.53" y1="1557.79" x2="484.47" y2="1557.79" xlink:href="#linear-gradient"/><linearGradient id="linear-gradient-17" x1="408.53" y1="1635.79" x2="553.47" y2="1635.79" xlink:href="#linear-gradient"/><linearGradient id="linear-gradient-18" x1="-249.05" y1="651.14" x2="-249.05" y2="716.86" gradientTransform="translate(-203 1353) rotate(-90)" xlink:href="#linear-gradient"/><linearGradient id="linear-gradient-19" x1="408.53" y1="1596.79" x2="553.47" y2="1596.79" xlink:href="#linear-gradient"/><linearGradient id="linear-gradient-20" x1="-210.05" y1="651.14" x2="-210.05" y2="716.86" gradientTransform="translate(-203 1353) rotate(-90)" xlink:href="#linear-gradient"/><linearGradient id="linear-gradient-21" x1="408.53" y1="1557.79" x2="553.47" y2="1557.79" xlink:href="#linear-gradient"/><linearGradient id="linear-gradient-22" x1="-171.05" y1="651.14" x2="-171.05" y2="716.86" gradientTransform="translate(-203 1353) rotate(-90)" xlink:href="#linear-gradient"/><linearGradient id="linear-gradient-23" x1="328.33" y1="1619.55" x2="405.99" y2="1619.55" xlink:href="#linear-gradient"/><linearGradient id="linear-gradient-24" x1="340.32" y1="1619.55" x2="471.67" y2="1619.55" xlink:href="#linear-gradient"/><linearGradient id="linear-gradient-25" x1="379.22" y1="1619.55" x2="432.77" y2="1619.55" xlink:href="#linear-gradient"/><linearGradient id="linear-gradient-26" x1="-171.05" y1="582.14" x2="-171.05" y2="647.86" gradientTransform="translate(-203 1353) rotate(-90)" xlink:href="#linear-gradient"/><linearGradient id="linear-gradient-27" x1="339.53" y1="1518.79" x2="484.47" y2="1518.79" xlink:href="#linear-gradient"/><linearGradient id="linear-gradient-28" x1="-132.05" y1="582.14" x2="-132.05" y2="647.86" gradientTransform="translate(-203 1353) rotate(-90)" xlink:href="#linear-gradient"/><linearGradient id="linear-gradient-29" x1="339.53" y1="1479.79" x2="484.47" y2="1479.79" xlink:href="#linear-gradient"/><clipPath id="clip-path" transform="translate(-267.53 -1345.78)"><path class="cls-1" d="M339.65,1602.38c14.35,17.17,38.82,24.46,71.45,24.76,23.56.21,58.9-5.59,73.26-24.92.25-.19,0-35.77,0-35.77H339.63C339.63,1566.63,339.39,1602.13,339.65,1602.38Z"/></clipPath><linearGradient id="linear-gradient-31" x1="407.2" y1="1596.79" x2="552.14" y2="1596.79" xlink:href="#linear-gradient"/><linearGradient id="linear-gradient-32" x1="339.63" y1="1567.9" x2="484.36" y2="1567.9" xlink:href="#linear-gradient"/><clipPath id="clip-path-2" transform="translate(-267.53 -1345.78)"><path id="_Clipping_Path_" data-name="&lt;Clipping Path&gt;" class="cls-2" d="M357.72,1562.16c0,10.27,23.72,17.39,53.9,17.39s54.65-7.11,54.65-17.39c-.27-6-22.77-16.35-54.65-15.56C381.44,1546.6,358,1555.54,357.72,1562.16Z"/></clipPath><linearGradient id="linear-gradient-33" x1="-203.8" y1="557.15" x2="-203.8" y2="683.32" gradientTransform="translate(-203 1353) rotate(-90)" xlink:href="#linear-gradient"/><clipPath id="clip-path-3" transform="translate(-267.53 -1345.78)"><polygon class="cls-9" points="379.14 1560.72 418.97 1574.71 418.97 1563.83 444.86 1566.94 407.02 1551.4 407.02 1563.83 379.14 1560.72"/></clipPath><linearGradient id="linear-gradient-35" x1="-205.93" y1="577.13" x2="-205.93" y2="652.86" gradientTransform="translate(-470.53 7.22) rotate(-90)" xlink:href="#linear-gradient"/><clipPath id="clip-path-4" transform="translate(-267.53 -1345.78)"><path class="cls-17" d="M339.65,1563.38c14.35,17.17,38.82,24.46,71.45,24.76,23.56.21,58.9-5.59,73.26-24.92.25-.19,0-35.77,0-35.77H339.63C339.63,1527.63,339.39,1563.13,339.65,1563.38Z"/></clipPath><linearGradient id="linear-gradient-37" x1="407.2" y1="1557.79" x2="552.14" y2="1557.79" xlink:href="#linear-gradient"/><linearGradient id="linear-gradient-38" x1="339.63" y1="1528.9" x2="484.36" y2="1528.9" xlink:href="#linear-gradient"/><clipPath id="clip-path-5" transform="translate(-267.53 -1345.78)"><path id="_Clipping_Path_2" data-name="&lt;Clipping Path&gt;" class="cls-2" d="M357.72,1523.16c0,10.27,23.72,17.39,53.9,17.39s54.65-7.11,54.65-17.39c-.27-6-22.77-16.35-54.65-15.56C381.44,1507.6,358,1516.54,357.72,1523.16Z"/></clipPath><linearGradient id="linear-gradient-39" x1="-164.8" y1="557.15" x2="-164.8" y2="683.32" gradientTransform="translate(-203 1353) rotate(-90)" xlink:href="#linear-gradient"/><clipPath id="clip-path-6" transform="translate(-267.53 -1345.78)"><polygon class="cls-27" points="379.14 1521.72 418.97 1535.71 418.97 1524.83 444.86 1527.94 407.02 1512.4 407.02 1524.83 379.14 1521.72"/></clipPath><linearGradient id="linear-gradient-41" x1="-166.93" y1="577.13" x2="-166.93" y2="652.86" gradientTransform="translate(-470.53 7.22) rotate(-90)" xlink:href="#linear-gradient"/><clipPath id="clip-path-7" transform="translate(-267.53 -1345.78)"><path class="cls-28" d="M339.65,1524.38c14.35,17.17,38.82,24.46,71.45,24.76,23.56.21,58.9-5.59,73.26-24.92.25-.19,0-35.77,0-35.77H339.63C339.63,1488.63,339.39,1524.13,339.65,1524.38Z"/></clipPath><linearGradient id="linear-gradient-43" x1="406.86" y1="1518.79" x2="551.8" y2="1518.79" xlink:href="#linear-gradient"/><linearGradient id="linear-gradient-44" x1="339.63" y1="1489.9" x2="484.36" y2="1489.9" xlink:href="#linear-gradient"/><clipPath id="clip-path-8" transform="translate(-267.53 -1345.78)"><path id="_Clipping_Path_3" data-name="&lt;Clipping Path&gt;" class="cls-2" d="M357.72,1484.16c0,10.27,23.72,17.39,53.9,17.39s54.65-7.11,54.65-17.39c-.27-6-22.77-16.35-54.65-15.56C381.44,1468.6,358,1477.54,357.72,1484.16Z"/></clipPath><linearGradient id="linear-gradient-45" x1="-125.8" y1="557.15" x2="-125.8" y2="683.32" gradientTransform="translate(-203 1353) rotate(-90)" xlink:href="#linear-gradient"/><clipPath id="clip-path-9" transform="translate(-267.53 -1345.78)"><polygon class="cls-29" points="379.14 1482.72 418.97 1496.71 418.97 1485.83 444.86 1488.94 407.02 1473.4 407.02 1485.83 379.14 1482.72"/></clipPath><linearGradient id="linear-gradient-47" x1="-127.93" y1="577.13" x2="-127.93" y2="652.86" gradientTransform="translate(-470.53 7.22) rotate(-90)" xlink:href="#linear-gradient"/><clipPath id="clip-path-10" transform="translate(-267.53 -1345.78)"><path class="cls-30" d="M339.65,1485.38c14.35,17.17,38.82,24.46,71.45,24.76,23.56.21,58.9-5.59,73.26-24.92.25-.19,0-35.77,0-35.77H339.63C339.63,1449.63,339.39,1485.13,339.65,1485.38Z"/></clipPath><linearGradient id="linear-gradient-49" x1="406.86" y1="1479.79" x2="551.8" y2="1479.79" xlink:href="#linear-gradient"/><linearGradient id="linear-gradient-50" x1="339.63" y1="1450.9" x2="484.36" y2="1450.9" xlink:href="#linear-gradient"/><clipPath id="clip-path-11" transform="translate(-267.53 -1345.78)"><path id="_Clipping_Path_4" data-name="&lt;Clipping Path&gt;" class="cls-2" d="M357.72,1445.16c0,10.27,23.72,17.39,53.9,17.39s54.65-7.11,54.65-17.39c-.27-6-22.77-16.35-54.65-15.56C381.44,1429.6,358,1438.54,357.72,1445.16Z"/></clipPath><linearGradient id="linear-gradient-51" x1="-86.8" y1="557.15" x2="-86.8" y2="683.32" gradientTransform="translate(-203 1353) rotate(-90)" xlink:href="#linear-gradient"/><clipPath id="clip-path-12" transform="translate(-267.53 -1345.78)"><polygon class="cls-3" points="379.14 1443.72 418.97 1457.71 418.97 1446.83 444.86 1449.94 407.02 1434.4 407.02 1446.83 379.14 1443.72"/></clipPath><linearGradient id="linear-gradient-53" x1="-88.93" y1="577.13" x2="-88.93" y2="652.86" gradientTransform="translate(-470.53 7.22) rotate(-90)" xlink:href="#linear-gradient"/><clipPath id="clip-path-13" transform="translate(-267.53 -1345.78)"><path class="cls-4" d="M339.65,1446.38c14.35,17.17,38.82,24.46,71.45,24.76,23.56.21,58.9-5.59,73.26-24.92.25-.19,0-35.77,0-35.77H339.63C339.63,1410.63,339.39,1446.13,339.65,1446.38Z"/></clipPath><linearGradient id="linear-gradient-55" x1="406.86" y1="1440.79" x2="551.8" y2="1440.79" xlink:href="#linear-gradient"/><linearGradient id="linear-gradient-56" x1="339.63" y1="1411.9" x2="484.36" y2="1411.9" xlink:href="#linear-gradient"/><clipPath id="clip-path-14" transform="translate(-267.53 -1345.78)"><path id="_Clipping_Path_5" data-name="&lt;Clipping Path&gt;" class="cls-2" d="M357.72,1406.16c0,10.27,23.72,17.39,53.9,17.39s54.65-7.11,54.65-17.39c-.27-6-22.77-16.35-54.65-15.56C381.44,1390.6,358,1399.54,357.72,1406.16Z"/></clipPath><linearGradient id="linear-gradient-57" x1="-47.8" y1="557.15" x2="-47.8" y2="683.32" gradientTransform="translate(-203 1353) rotate(-90)" xlink:href="#linear-gradient"/><clipPath id="clip-path-15" transform="translate(-267.53 -1345.78)"><polygon class="cls-5" points="379.14 1404.72 418.97 1418.71 418.97 1407.83 444.86 1410.94 407.02 1395.4 407.02 1407.83 379.14 1404.72"/></clipPath><linearGradient id="linear-gradient-59" x1="-49.93" y1="577.13" x2="-49.93" y2="652.86" gradientTransform="translate(-470.53 7.22) rotate(-90)" xlink:href="#linear-gradient"/><clipPath id="clip-path-16" transform="translate(-267.53 -1345.78)"><path class="cls-6" d="M339.65,1407.38c14.35,17.17,38.82,24.46,71.45,24.76,23.56.21,58.9-5.59,73.26-24.92.25-.19,0-35.77,0-35.77H339.63C339.63,1371.63,339.39,1407.13,339.65,1407.38Z"/></clipPath><linearGradient id="linear-gradient-61" x1="406.86" y1="1401.79" x2="551.8" y2="1401.79" xlink:href="#linear-gradient"/><linearGradient id="linear-gradient-62" x1="339.63" y1="1372.9" x2="484.36" y2="1372.9" xlink:href="#linear-gradient"/><clipPath id="clip-path-17" transform="translate(-267.53 -1345.78)"><path id="_Clipping_Path_6" data-name="&lt;Clipping Path&gt;" class="cls-2" d="M357.72,1367.16c0,10.27,23.72,17.39,53.9,17.39s54.65-7.11,54.65-17.39c-.27-6-22.77-16.35-54.65-15.56C381.44,1351.6,358,1360.54,357.72,1367.16Z"/></clipPath><linearGradient id="linear-gradient-63" x1="-8.8" y1="557.15" x2="-8.8" y2="683.32" gradientTransform="translate(-203 1353) rotate(-90)" xlink:href="#linear-gradient"/><clipPath id="clip-path-18" transform="translate(-267.53 -1345.78)"><polygon class="cls-7" points="379.14 1365.72 418.97 1379.71 418.97 1368.83 444.86 1371.94 407.02 1356.4 407.02 1368.83 379.14 1365.72"/></clipPath><linearGradient id="linear-gradient-65" x1="-10.93" y1="577.13" x2="-10.93" y2="652.86" gradientTransform="translate(-470.53 7.22) rotate(-90)" xlink:href="#linear-gradient"/><clipPath id="clip-path-19" transform="translate(-267.53 -1345.78)"><path class="cls-8" d="M267.65,1623.38c14.35,17.17,38.82,24.46,71.45,24.76,23.56.21,58.9-5.59,73.26-24.92.25-.19,0-35.77,0-35.77H267.63C267.63,1587.63,267.39,1623.13,267.65,1623.38Z"/></clipPath><linearGradient id="linear-gradient-67" x1="335.2" y1="1617.79" x2="480.14" y2="1617.79" xlink:href="#linear-gradient"/><linearGradient id="linear-gradient-68" x1="267.63" y1="1588.9" x2="412.36" y2="1588.9" xlink:href="#linear-gradient"/><clipPath id="clip-path-20" transform="translate(-267.53 -1345.78)"><path id="_Clipping_Path_7" data-name="&lt;Clipping Path&gt;" class="cls-2" d="M285.72,1583.16c0,10.27,23.72,17.39,53.9,17.39s54.65-7.11,54.65-17.39c-.27-6-22.77-16.35-54.65-15.56C309.44,1567.6,286,1576.54,285.72,1583.16Z"/></clipPath><linearGradient id="linear-gradient-69" x1="-224.8" y1="485.15" x2="-224.8" y2="611.32" gradientTransform="translate(-203 1353) rotate(-90)" xlink:href="#linear-gradient"/><clipPath id="clip-path-21" transform="translate(-267.53 -1345.78)"><polygon class="cls-10" points="307.14 1581.72 346.97 1595.71 346.97 1584.83 372.86 1587.94 335.02 1572.4 335.02 1584.83 307.14 1581.72"/></clipPath><linearGradient id="linear-gradient-71" x1="-226.93" y1="505.13" x2="-226.93" y2="580.86" gradientTransform="translate(-470.53 7.22) rotate(-90)" xlink:href="#linear-gradient"/><clipPath id="clip-path-22" transform="translate(-267.53 -1345.78)"><path class="cls-11" d="M267.65,1584.38c14.35,17.17,38.82,24.46,71.45,24.76,23.56.21,58.9-5.59,73.26-24.92.25-.19,0-35.77,0-35.77H267.63C267.63,1548.63,267.39,1584.13,267.65,1584.38Z"/></clipPath><linearGradient id="linear-gradient-73" x1="335.2" y1="1578.79" x2="480.14" y2="1578.79" xlink:href="#linear-gradient"/><linearGradient id="linear-gradient-74" x1="267.63" y1="1549.9" x2="412.36" y2="1549.9" xlink:href="#linear-gradient"/><clipPath id="clip-path-23" transform="translate(-267.53 -1345.78)"><path id="_Clipping_Path_8" data-name="&lt;Clipping Path&gt;" class="cls-2" d="M285.72,1544.16c0,10.27,23.72,17.39,53.9,17.39s54.65-7.11,54.65-17.39c-.27-6-22.77-16.35-54.65-15.56C309.44,1528.6,286,1537.54,285.72,1544.16Z"/></clipPath><linearGradient id="linear-gradient-75" x1="-185.8" y1="485.15" x2="-185.8" y2="611.32" gradientTransform="translate(-203 1353) rotate(-90)" xlink:href="#linear-gradient"/><clipPath id="clip-path-24" transform="translate(-267.53 -1345.78)"><polygon class="cls-12" points="307.14 1542.72 346.97 1556.71 346.97 1545.83 372.86 1548.94 335.02 1533.4 335.02 1545.83 307.14 1542.72"/></clipPath><linearGradient id="linear-gradient-77" x1="-187.93" y1="505.13" x2="-187.93" y2="580.86" gradientTransform="translate(-470.53 7.22) rotate(-90)" xlink:href="#linear-gradient"/><clipPath id="clip-path-25" transform="translate(-267.53 -1345.78)"><path class="cls-13" d="M267.65,1545.38c14.35,17.17,38.82,24.46,71.45,24.76,23.56.21,58.9-5.59,73.26-24.92.25-.19,0-35.77,0-35.77H267.63C267.63,1509.63,267.39,1545.13,267.65,1545.38Z"/></clipPath><linearGradient id="linear-gradient-79" x1="334.86" y1="1539.79" x2="479.8" y2="1539.79" xlink:href="#linear-gradient"/><linearGradient id="linear-gradient-80" x1="267.63" y1="1510.9" x2="412.36" y2="1510.9" xlink:href="#linear-gradient"/><clipPath id="clip-path-26" transform="translate(-267.53 -1345.78)"><path id="_Clipping_Path_9" data-name="&lt;Clipping Path&gt;" class="cls-2" d="M285.72,1505.16c0,10.27,23.72,17.39,53.9,17.39s54.65-7.11,54.65-17.39c-.27-6-22.77-16.35-54.65-15.56C309.44,1489.6,286,1498.54,285.72,1505.16Z"/></clipPath><linearGradient id="linear-gradient-81" x1="-146.8" y1="485.15" x2="-146.8" y2="611.32" gradientTransform="translate(-203 1353) rotate(-90)" xlink:href="#linear-gradient"/><clipPath id="clip-path-27" transform="translate(-267.53 -1345.78)"><polygon class="cls-14" points="307.14 1503.72 346.97 1517.71 346.97 1506.83 372.86 1509.94 335.02 1494.4 335.02 1506.83 307.14 1503.72"/></clipPath><linearGradient id="linear-gradient-83" x1="-148.93" y1="505.13" x2="-148.93" y2="580.86" gradientTransform="translate(-470.53 7.22) rotate(-90)" xlink:href="#linear-gradient"/><clipPath id="clip-path-28" transform="translate(-267.53 -1345.78)"><path class="cls-15" d="M267.65,1506.38c14.35,17.17,38.82,24.46,71.45,24.76,23.56.21,58.9-5.59,73.26-24.92.25-.19,0-35.77,0-35.77H267.63C267.63,1470.63,267.39,1506.13,267.65,1506.38Z"/></clipPath><linearGradient id="linear-gradient-85" x1="334.86" y1="1500.79" x2="479.8" y2="1500.79" xlink:href="#linear-gradient"/><linearGradient id="linear-gradient-86" x1="267.63" y1="1471.9" x2="412.36" y2="1471.9" xlink:href="#linear-gradient"/><clipPath id="clip-path-29" transform="translate(-267.53 -1345.78)"><path id="_Clipping_Path_10" data-name="&lt;Clipping Path&gt;" class="cls-2" d="M285.72,1466.16c0,10.27,23.72,17.39,53.9,17.39s54.65-7.11,54.65-17.39c-.27-6-22.77-16.35-54.65-15.56C309.44,1450.6,286,1459.54,285.72,1466.16Z"/></clipPath><linearGradient id="linear-gradient-87" x1="-107.8" y1="485.15" x2="-107.8" y2="611.32" gradientTransform="translate(-203 1353) rotate(-90)" xlink:href="#linear-gradient"/><clipPath id="clip-path-30" transform="translate(-267.53 -1345.78)"><polygon class="cls-16" points="307.14 1464.72 346.97 1478.71 346.97 1467.83 372.86 1470.94 335.02 1455.4 335.02 1467.83 307.14 1464.72"/></clipPath><linearGradient id="linear-gradient-89" x1="-109.93" y1="505.13" x2="-109.93" y2="580.86" gradientTransform="translate(-470.53 7.22) rotate(-90)" xlink:href="#linear-gradient"/><linearGradient id="linear-gradient-90" x1="399.81" y1="1565.55" x2="449.35" y2="1565.55" xlink:href="#linear-gradient"/><clipPath id="clip-path-31" transform="translate(-267.53 -1345.78)"><path class="cls-18" d="M408.65,1641.38c14.35,17.17,38.82,24.46,71.45,24.76,23.56.21,58.9-5.59,73.26-24.92.25-.19,0-35.77,0-35.77H408.63C408.63,1605.63,408.39,1641.13,408.65,1641.38Z"/></clipPath><linearGradient id="linear-gradient-92" x1="475.86" y1="1635.79" x2="620.8" y2="1635.79" xlink:href="#linear-gradient"/><linearGradient id="linear-gradient-93" x1="408.63" y1="1606.9" x2="553.36" y2="1606.9" xlink:href="#linear-gradient"/><clipPath id="clip-path-32" transform="translate(-267.53 -1345.78)"><path id="_Clipping_Path_11" data-name="&lt;Clipping Path&gt;" class="cls-2" d="M426.72,1601.16c0,10.27,23.72,17.39,53.9,17.39s54.65-7.11,54.65-17.39c-.27-6-22.77-16.35-54.65-15.56C450.44,1585.6,427,1594.54,426.72,1601.16Z"/></clipPath><linearGradient id="linear-gradient-94" x1="-242.8" y1="626.15" x2="-242.8" y2="752.32" gradientTransform="translate(-203 1353) rotate(-90)" xlink:href="#linear-gradient"/><clipPath id="clip-path-33" transform="translate(-267.53 -1345.78)"><polygon class="cls-19" points="448.14 1599.72 487.97 1613.71 487.97 1602.83 513.86 1605.94 476.02 1590.4 476.02 1602.83 448.14 1599.72"/></clipPath><linearGradient id="linear-gradient-96" x1="-244.93" y1="646.13" x2="-244.93" y2="721.86" gradientTransform="translate(-470.53 7.22) rotate(-90)" xlink:href="#linear-gradient"/><clipPath id="clip-path-34" transform="translate(-267.53 -1345.78)"><path class="cls-20" d="M408.65,1602.38c14.35,17.17,38.82,24.46,71.45,24.76,23.56.21,58.9-5.59,73.26-24.92.25-.19,0-35.77,0-35.77H408.63C408.63,1566.63,408.39,1602.13,408.65,1602.38Z"/></clipPath><linearGradient id="linear-gradient-98" x1="475.86" y1="1596.79" x2="620.8" y2="1596.79" xlink:href="#linear-gradient"/><linearGradient id="linear-gradient-99" x1="408.63" y1="1567.9" x2="553.36" y2="1567.9" xlink:href="#linear-gradient"/><clipPath id="clip-path-35" transform="translate(-267.53 -1345.78)"><path id="_Clipping_Path_12" data-name="&lt;Clipping Path&gt;" class="cls-2" d="M426.72,1562.16c0,10.27,23.72,17.39,53.9,17.39s54.65-7.11,54.65-17.39c-.27-6-22.77-16.35-54.65-15.56C450.44,1546.6,427,1555.54,426.72,1562.16Z"/></clipPath><linearGradient id="linear-gradient-100" x1="-203.8" y1="626.15" x2="-203.8" y2="752.32" gradientTransform="translate(-203 1353) rotate(-90)" xlink:href="#linear-gradient"/><clipPath id="clip-path-36" transform="translate(-267.53 -1345.78)"><polygon class="cls-21" points="448.14 1560.72 487.97 1574.71 487.97 1563.83 513.86 1566.94 476.02 1551.4 476.02 1563.83 448.14 1560.72"/></clipPath><linearGradient id="linear-gradient-102" x1="-205.93" y1="646.13" x2="-205.93" y2="721.86" gradientTransform="translate(-470.53 7.22) rotate(-90)" xlink:href="#linear-gradient"/><clipPath id="clip-path-37" transform="translate(-267.53 -1345.78)"><path class="cls-22" d="M408.65,1563.38c14.35,17.17,38.82,24.46,71.45,24.76,23.56.21,58.9-5.59,73.26-24.92.25-.19,0-35.77,0-35.77H408.63C408.63,1527.63,408.39,1563.13,408.65,1563.38Z"/></clipPath><linearGradient id="linear-gradient-104" x1="475.86" y1="1557.79" x2="620.8" y2="1557.79" xlink:href="#linear-gradient"/><linearGradient id="linear-gradient-105" x1="408.63" y1="1528.9" x2="553.36" y2="1528.9" xlink:href="#linear-gradient"/><clipPath id="clip-path-38" transform="translate(-267.53 -1345.78)"><path id="_Clipping_Path_13" data-name="&lt;Clipping Path&gt;" class="cls-2" d="M426.72,1523.16c0,10.27,23.72,17.39,53.9,17.39s54.65-7.11,54.65-17.39c-.27-6-22.77-16.35-54.65-15.56C450.44,1507.6,427,1516.54,426.72,1523.16Z"/></clipPath><linearGradient id="linear-gradient-106" x1="-164.8" y1="626.15" x2="-164.8" y2="752.32" gradientTransform="translate(-203 1353) rotate(-90)" xlink:href="#linear-gradient"/><clipPath id="clip-path-39" transform="translate(-267.53 -1345.78)"><polygon class="cls-23" points="448.14 1521.72 487.97 1535.71 487.97 1524.83 513.86 1527.94 476.02 1512.4 476.02 1524.83 448.14 1521.72"/></clipPath><linearGradient id="linear-gradient-108" x1="-166.93" y1="646.13" x2="-166.93" y2="721.86" gradientTransform="translate(-470.53 7.22) rotate(-90)" xlink:href="#linear-gradient"/><linearGradient id="linear-gradient-109" x1="322.72" y1="1601.15" x2="394.91" y2="1601.15" xlink:href="#linear-gradient"/><clipPath id="clip-path-40" transform="translate(-267.53 -1345.78)"><path class="cls-24" d="M394,1685.22a65.67,65.67,0,1,1,0-131.35h12v131.35Z"/></clipPath><linearGradient id="linear-gradient-111" x1="45.49" y1="288.71" x2="158.94" y2="288.71" xlink:href="#linear-gradient"/><clipPath id="clip-path-41" transform="translate(-267.53 -1345.78)"><circle class="cls-25" cx="405.99" cy="1619.55" r="65.67"/></clipPath><clipPath id="clip-path-42" transform="translate(-267.53 -1345.78)"><circle class="cls-2" cx="405.99" cy="1619.55" r="53.68"/></clipPath><linearGradient id="linear-gradient-113" x1="348.81" y1="1618.72" x2="470.78" y2="1618.72" xlink:href="#linear-gradient"/><clipPath id="clip-path-43" transform="translate(-267.53 -1345.78)"><polygon class="cls-26" points="411.35 1590.1 379.22 1625.8 404.21 1625.8 397.07 1649 432.77 1615.09 404.21 1615.09 411.35 1590.1"/></clipPath><linearGradient id="linear-gradient-115" x1="124" y1="273.77" x2="171.85" y2="273.77" xlink:href="#linear-gradient"/><linearGradient id="linear-gradient-116" x1="30.36" y1="289.45" x2="204.14" y2="289.45" xlink:href="#linear-gradient"/></defs><title>img-standard</title><g class="cls-31"><g id="basic"><g id="standard"><path class="cls-1" d="M339.65,1602.38c14.35,17.17,38.82,24.46,71.45,24.76,23.56.21,58.9-5.59,73.26-24.92.25-.19,0-35.77,0-35.77H339.63C339.63,1566.63,339.39,1602.13,339.65,1602.38Z" transform="translate(-267.53 -1345.78)"/><g class="cls-32"><g class="cls-33"><path class="cls-34" d="M339.65,1602.38c14.35,17.17,38.82,24.46,71.45,24.76,23.56.21,58.9-5.59,73.26-24.92.25-.19,0-35.77,0-35.77H339.63C339.63,1566.63,339.39,1602.13,339.65,1602.38Z" transform="translate(-267.53 -1345.78)"/></g></g><path class="cls-35" d="M339.63,1566.44c0,16.9,31.62,28.59,71.86,28.59s72.86-11.7,72.86-28.59c-.36-9.89-30.36-26.89-72.86-25.59C371.25,1540.85,340,1555.55,339.63,1566.44Z" transform="translate(-267.53 -1345.78)"/><path id="_Clipping_Path_14" data-name="&lt;Clipping Path&gt;" class="cls-2" d="M357.72,1562.16c0,10.27,23.72,17.39,53.9,17.39s54.65-7.11,54.65-17.39c-.27-6-22.77-16.35-54.65-15.56C381.44,1546.6,358,1555.54,357.72,1562.16Z" transform="translate(-267.53 -1345.78)"/><g class="cls-36"><g class="cls-37"><path class="cls-38" d="M471.89,1554.56l-47.81-12.62-51,1.3-18.95,17.22s2.94,5.2,3.85,7.09c-1-2-2-2,1.1-5.54,9.42-8.09,30.3-13.71,54.55-13.71,33.07,0,59.88,10.46,59.89,23.36l6.79-3.21Z" transform="translate(-267.53 -1345.78)"/></g></g><polygon class="cls-9" points="111.61 214.95 151.44 228.93 151.44 218.05 177.32 221.16 139.49 205.62 139.49 218.05 111.61 214.95"/><g class="cls-39"><g class="cls-37"><polygon class="cls-40" points="113.8 217.2 106.6 213.18 134.79 212.38 138.29 202.74 182.33 219.37 180 223.57 142.16 208.03 142.16 220.46 114.37 217.37 113.8 217.2"/></g></g><path class="cls-17" d="M339.65,1563.38c14.35,17.17,38.82,24.46,71.45,24.76,23.56.21,58.9-5.59,73.26-24.92.25-.19,0-35.77,0-35.77H339.63C339.63,1527.63,339.39,1563.13,339.65,1563.38Z" transform="translate(-267.53 -1345.78)"/><g class="cls-41"><g class="cls-33"><path class="cls-42" d="M339.65,1563.38c14.35,17.17,38.82,24.46,71.45,24.76,23.56.21,58.9-5.59,73.26-24.92.25-.19,0-35.77,0-35.77H339.63C339.63,1527.63,339.39,1563.13,339.65,1563.38Z" transform="translate(-267.53 -1345.78)"/></g></g><path class="cls-43" d="M339.63,1527.44c0,16.9,31.62,28.59,71.86,28.59s72.86-11.7,72.86-28.59c-.36-9.89-30.36-26.89-72.86-25.59C371.25,1501.85,340,1516.55,339.63,1527.44Z" transform="translate(-267.53 -1345.78)"/><path id="_Clipping_Path_15" data-name="&lt;Clipping Path&gt;" class="cls-2" d="M357.72,1523.16c0,10.27,23.72,17.39,53.9,17.39s54.65-7.11,54.65-17.39c-.27-6-22.77-16.35-54.65-15.56C381.44,1507.6,358,1516.54,357.72,1523.16Z" transform="translate(-267.53 -1345.78)"/><g class="cls-44"><g class="cls-37"><path class="cls-45" d="M471.89,1515.56l-47.81-12.62-51,1.3-18.95,17.22s2.94,5.2,3.85,7.09c-1-2-2-2,1.1-5.54,9.42-8.09,30.3-13.71,54.55-13.71,33.07,0,59.88,10.46,59.89,23.36l6.79-3.21Z" transform="translate(-267.53 -1345.78)"/></g></g><polygon class="cls-27" points="111.61 175.95 151.44 189.93 151.44 179.05 177.32 182.16 139.49 166.62 139.49 179.05 111.61 175.95"/><g class="cls-46"><g class="cls-37"><polygon class="cls-47" points="113.8 178.2 106.6 174.18 134.79 173.38 138.29 163.74 182.33 180.37 180 184.57 142.16 169.03 142.16 181.46 114.37 178.37 113.8 178.2"/></g></g><path class="cls-28" d="M339.65,1524.38c14.35,17.17,38.82,24.46,71.45,24.76,23.56.21,58.9-5.59,73.26-24.92.25-.19,0-35.77,0-35.77H339.63C339.63,1488.63,339.39,1524.13,339.65,1524.38Z" transform="translate(-267.53 -1345.78)"/><g class="cls-48"><g class="cls-33"><path class="cls-49" d="M339.65,1524.38c14.35,17.17,38.82,24.46,71.45,24.76,23.56.21,58.9-5.59,73.26-24.92.25-.19,0-35.77,0-35.77H339.63C339.63,1488.63,339.39,1524.13,339.65,1524.38Z" transform="translate(-267.53 -1345.78)"/></g></g><path class="cls-50" d="M339.63,1488.44c0,16.9,31.62,28.59,71.86,28.59s72.86-11.7,72.86-28.59c-.36-9.89-30.36-26.89-72.86-25.59C371.25,1462.85,340,1477.55,339.63,1488.44Z" transform="translate(-267.53 -1345.78)"/><path id="_Clipping_Path_16" data-name="&lt;Clipping Path&gt;" class="cls-2" d="M357.72,1484.16c0,10.27,23.72,17.39,53.9,17.39s54.65-7.11,54.65-17.39c-.27-6-22.77-16.35-54.65-15.56C381.44,1468.6,358,1477.54,357.72,1484.16Z" transform="translate(-267.53 -1345.78)"/><g class="cls-51"><g class="cls-37"><path class="cls-52" d="M471.89,1476.56l-47.81-12.62-51,1.3-18.95,17.22s2.94,5.2,3.85,7.09c-1-2-2-2,1.1-5.54,9.42-8.09,30.3-13.71,54.55-13.71,33.07,0,59.88,10.46,59.89,23.36l6.79-3.21Z" transform="translate(-267.53 -1345.78)"/></g></g><polygon class="cls-29" points="111.61 136.95 151.44 150.93 151.44 140.05 177.32 143.16 139.49 127.62 139.49 140.05 111.61 136.95"/><g class="cls-53"><g class="cls-37"><polygon class="cls-54" points="113.8 139.2 106.6 135.18 134.79 134.38 138.29 124.74 182.33 141.37 180 145.57 142.16 130.03 142.16 142.46 114.37 139.37 113.8 139.2"/></g></g><path class="cls-30" d="M339.65,1485.38c14.35,17.17,38.82,24.46,71.45,24.76,23.56.21,58.9-5.59,73.26-24.92.25-.19,0-35.77,0-35.77H339.63C339.63,1449.63,339.39,1485.13,339.65,1485.38Z" transform="translate(-267.53 -1345.78)"/><g class="cls-55"><g class="cls-56"><path class="cls-57" d="M339.65,1485.38c14.35,17.17,38.82,24.46,71.45,24.76,23.56.21,58.9-5.59,73.26-24.92.25-.19,0-35.77,0-35.77H339.63C339.63,1449.63,339.39,1485.13,339.65,1485.38Z" transform="translate(-267.53 -1345.78)"/></g></g><path class="cls-58" d="M339.63,1449.44c0,16.9,31.62,28.59,71.86,28.59s72.86-11.7,72.86-28.59c-.36-9.89-30.36-26.89-72.86-25.59C371.25,1423.85,340,1438.55,339.63,1449.44Z" transform="translate(-267.53 -1345.78)"/><path id="_Clipping_Path_17" data-name="&lt;Clipping Path&gt;" class="cls-2" d="M357.72,1445.16c0,10.27,23.72,17.39,53.9,17.39s54.65-7.11,54.65-17.39c-.27-6-22.77-16.35-54.65-15.56C381.44,1429.6,358,1438.54,357.72,1445.16Z" transform="translate(-267.53 -1345.78)"/><g class="cls-59"><g class="cls-37"><path class="cls-60" d="M471.89,1437.56l-47.81-12.62-51,1.3-18.95,17.22s2.94,5.2,3.85,7.09c-1-2-2-2,1.1-5.54,9.42-8.09,30.3-13.71,54.55-13.71,33.07,0,59.88,10.46,59.89,23.36l6.79-3.21Z" transform="translate(-267.53 -1345.78)"/></g></g><polygon class="cls-3" points="111.61 97.95 151.44 111.93 151.44 101.05 177.32 104.16 139.49 88.62 139.49 101.05 111.61 97.95"/><g class="cls-61"><g class="cls-37"><polygon class="cls-62" points="113.8 100.2 106.6 96.18 134.79 95.38 138.29 85.74 182.33 102.36 180 106.57 142.16 91.03 142.16 103.46 114.37 100.36 113.8 100.2"/></g></g><path class="cls-4" d="M339.65,1446.38c14.35,17.17,38.82,24.46,71.45,24.76,23.56.21,58.9-5.59,73.26-24.92.25-.19,0-35.77,0-35.77H339.63C339.63,1410.63,339.39,1446.13,339.65,1446.38Z" transform="translate(-267.53 -1345.78)"/><g class="cls-63"><g class="cls-56"><path class="cls-64" d="M339.65,1446.38c14.35,17.17,38.82,24.46,71.45,24.76,23.56.21,58.9-5.59,73.26-24.92.25-.19,0-35.77,0-35.77H339.63C339.63,1410.63,339.39,1446.13,339.65,1446.38Z" transform="translate(-267.53 -1345.78)"/></g></g><path class="cls-65" d="M339.63,1410.44c0,16.9,31.62,28.59,71.86,28.59s72.86-11.7,72.86-28.59c-.36-9.89-30.36-26.89-72.86-25.59C371.25,1384.85,340,1399.55,339.63,1410.44Z" transform="translate(-267.53 -1345.78)"/><path id="_Clipping_Path_18" data-name="&lt;Clipping Path&gt;" class="cls-2" d="M357.72,1406.16c0,10.27,23.72,17.39,53.9,17.39s54.65-7.11,54.65-17.39c-.27-6-22.77-16.35-54.65-15.56C381.44,1390.6,358,1399.54,357.72,1406.16Z" transform="translate(-267.53 -1345.78)"/><g class="cls-66"><g class="cls-37"><path class="cls-67" d="M471.89,1398.56l-47.81-12.62-51,1.3-18.95,17.22s2.94,5.2,3.85,7.09c-1-2-2-2,1.1-5.54,9.42-8.09,30.3-13.71,54.55-13.71,33.07,0,59.88,10.46,59.89,23.36l6.79-3.21Z" transform="translate(-267.53 -1345.78)"/></g></g><polygon class="cls-5" points="111.61 58.95 151.44 72.93 151.44 62.05 177.32 65.16 139.49 49.62 139.49 62.05 111.61 58.95"/><g class="cls-68"><g class="cls-37"><polygon class="cls-69" points="113.8 61.2 106.6 57.18 134.79 56.38 138.29 46.74 182.33 63.37 180 67.57 142.16 52.03 142.16 64.46 114.37 61.37 113.8 61.2"/></g></g><path class="cls-6" d="M339.65,1407.38c14.35,17.17,38.82,24.46,71.45,24.76,23.56.21,58.9-5.59,73.26-24.92.25-.19,0-35.77,0-35.77H339.63C339.63,1371.63,339.39,1407.13,339.65,1407.38Z" transform="translate(-267.53 -1345.78)"/><g class="cls-70"><g class="cls-56"><path class="cls-71" d="M339.65,1407.38c14.35,17.17,38.82,24.46,71.45,24.76,23.56.21,58.9-5.59,73.26-24.92.25-.19,0-35.77,0-35.77H339.63C339.63,1371.63,339.39,1407.13,339.65,1407.38Z" transform="translate(-267.53 -1345.78)"/></g></g><path class="cls-72" d="M339.63,1371.44c0,16.9,31.62,28.59,71.86,28.59s72.86-11.7,72.86-28.59c-.36-9.89-30.36-26.89-72.86-25.59C371.25,1345.85,340,1360.55,339.63,1371.44Z" transform="translate(-267.53 -1345.78)"/><path id="_Clipping_Path_19" data-name="&lt;Clipping Path&gt;" class="cls-2" d="M357.72,1367.16c0,10.27,23.72,17.39,53.9,17.39s54.65-7.11,54.65-17.39c-.27-6-22.77-16.35-54.65-15.56C381.44,1351.6,358,1360.54,357.72,1367.16Z" transform="translate(-267.53 -1345.78)"/><g class="cls-73"><g class="cls-37"><path class="cls-74" d="M471.89,1359.56l-47.81-12.62-51,1.3-18.95,17.22s2.94,5.2,3.85,7.09c-1-2-2-2,1.1-5.54,9.42-8.09,30.3-13.71,54.55-13.71,33.07,0,59.88,10.46,59.89,23.36l6.79-3.21Z" transform="translate(-267.53 -1345.78)"/></g></g><polygon class="cls-7" points="111.61 19.95 151.44 33.93 151.44 23.05 177.32 26.16 139.49 10.62 139.49 23.05 111.61 19.95"/><g class="cls-75"><g class="cls-37"><polygon class="cls-76" points="113.8 22.2 106.6 18.18 134.79 17.38 138.29 7.74 182.33 24.36 180 28.57 142.16 13.03 142.16 25.46 114.37 22.36 113.8 22.2"/></g></g><path class="cls-8" d="M267.65,1623.38c14.35,17.17,38.82,24.46,71.45,24.76,23.56.21,58.9-5.59,73.26-24.92.25-.19,0-35.77,0-35.77H267.63C267.63,1587.63,267.39,1623.13,267.65,1623.38Z" transform="translate(-267.53 -1345.78)"/><g class="cls-77"><g class="cls-56"><path class="cls-78" d="M267.65,1623.38c14.35,17.17,38.82,24.46,71.45,24.76,23.56.21,58.9-5.59,73.26-24.92.25-.19,0-35.77,0-35.77H267.63C267.63,1587.63,267.39,1623.13,267.65,1623.38Z" transform="translate(-267.53 -1345.78)"/></g></g><path class="cls-79" d="M267.63,1587.44c0,16.9,31.62,28.59,71.86,28.59s72.86-11.7,72.86-28.59c-.36-9.89-30.36-26.89-72.86-25.59C299.25,1561.85,268,1576.55,267.63,1587.44Z" transform="translate(-267.53 -1345.78)"/><path id="_Clipping_Path_20" data-name="&lt;Clipping Path&gt;" class="cls-2" d="M285.72,1583.16c0,10.27,23.72,17.39,53.9,17.39s54.65-7.11,54.65-17.39c-.27-6-22.77-16.35-54.65-15.56C309.44,1567.6,286,1576.54,285.72,1583.16Z" transform="translate(-267.53 -1345.78)"/><g class="cls-80"><g class="cls-37"><path class="cls-81" d="M399.89,1575.56l-47.81-12.62-51,1.3-18.95,17.22s2.94,5.2,3.85,7.09c-1-2-2-2,1.1-5.54,9.42-8.09,30.3-13.71,54.55-13.71,33.07,0,59.88,10.46,59.89,23.36l6.79-3.21Z" transform="translate(-267.53 -1345.78)"/></g></g><polygon class="cls-10" points="39.6 235.95 79.44 249.93 79.44 239.05 105.32 242.16 67.49 226.62 67.49 239.05 39.6 235.95"/><g class="cls-82"><g class="cls-37"><polygon class="cls-83" points="41.8 238.2 34.6 234.18 62.79 233.38 66.29 223.74 110.33 240.37 108 244.57 70.16 229.03 70.16 241.46 42.37 238.37 41.8 238.2"/></g></g><path class="cls-11" d="M267.65,1584.38c14.35,17.17,38.82,24.46,71.45,24.76,23.56.21,58.9-5.59,73.26-24.92.25-.19,0-35.77,0-35.77H267.63C267.63,1548.63,267.39,1584.13,267.65,1584.38Z" transform="translate(-267.53 -1345.78)"/><g class="cls-84"><g class="cls-56"><path class="cls-85" d="M267.65,1584.38c14.35,17.17,38.82,24.46,71.45,24.76,23.56.21,58.9-5.59,73.26-24.92.25-.19,0-35.77,0-35.77H267.63C267.63,1548.63,267.39,1584.13,267.65,1584.38Z" transform="translate(-267.53 -1345.78)"/></g></g><path class="cls-86" d="M267.63,1548.44c0,16.9,31.62,28.59,71.86,28.59s72.86-11.7,72.86-28.59c-.36-9.89-30.36-26.89-72.86-25.59C299.25,1522.85,268,1537.55,267.63,1548.44Z" transform="translate(-267.53 -1345.78)"/><path id="_Clipping_Path_21" data-name="&lt;Clipping Path&gt;" class="cls-2" d="M285.72,1544.16c0,10.27,23.72,17.39,53.9,17.39s54.65-7.11,54.65-17.39c-.27-6-22.77-16.35-54.65-15.56C309.44,1528.6,286,1537.54,285.72,1544.16Z" transform="translate(-267.53 -1345.78)"/><g class="cls-87"><g class="cls-37"><path class="cls-88" d="M399.89,1536.56l-47.81-12.62-51,1.3-18.95,17.22s2.94,5.2,3.85,7.09c-1-2-2-2,1.1-5.54,9.42-8.09,30.3-13.71,54.55-13.71,33.07,0,59.88,10.46,59.89,23.36l6.79-3.21Z" transform="translate(-267.53 -1345.78)"/></g></g><polygon class="cls-12" points="39.6 196.95 79.44 210.93 79.44 200.05 105.32 203.16 67.49 187.62 67.49 200.05 39.6 196.95"/><g class="cls-89"><g class="cls-37"><polygon class="cls-90" points="41.8 199.2 34.6 195.18 62.79 194.38 66.29 184.74 110.33 201.37 108 205.57 70.16 190.03 70.16 202.46 42.37 199.37 41.8 199.2"/></g></g><path class="cls-13" d="M267.65,1545.38c14.35,17.17,38.82,24.46,71.45,24.76,23.56.21,58.9-5.59,73.26-24.92.25-.19,0-35.77,0-35.77H267.63C267.63,1509.63,267.39,1545.13,267.65,1545.38Z" transform="translate(-267.53 -1345.78)"/><g class="cls-91"><g class="cls-56"><path class="cls-92" d="M267.65,1545.38c14.35,17.17,38.82,24.46,71.45,24.76,23.56.21,58.9-5.59,73.26-24.92.25-.19,0-35.77,0-35.77H267.63C267.63,1509.63,267.39,1545.13,267.65,1545.38Z" transform="translate(-267.53 -1345.78)"/></g></g><path class="cls-93" d="M267.63,1509.44c0,16.9,31.62,28.59,71.86,28.59s72.86-11.7,72.86-28.59c-.36-9.89-30.36-26.89-72.86-25.59C299.25,1483.85,268,1498.55,267.63,1509.44Z" transform="translate(-267.53 -1345.78)"/><path id="_Clipping_Path_22" data-name="&lt;Clipping Path&gt;" class="cls-2" d="M285.72,1505.16c0,10.27,23.72,17.39,53.9,17.39s54.65-7.11,54.65-17.39c-.27-6-22.77-16.35-54.65-15.56C309.44,1489.6,286,1498.54,285.72,1505.16Z" transform="translate(-267.53 -1345.78)"/><g class="cls-94"><g class="cls-37"><path class="cls-95" d="M399.89,1497.56l-47.81-12.62-51,1.3-18.95,17.22s2.94,5.2,3.85,7.09c-1-2-2-2,1.1-5.54,9.42-8.09,30.3-13.71,54.55-13.71,33.07,0,59.88,10.46,59.89,23.36l6.79-3.21Z" transform="translate(-267.53 -1345.78)"/></g></g><polygon class="cls-14" points="39.6 157.95 79.44 171.93 79.44 161.05 105.32 164.16 67.49 148.62 67.49 161.05 39.6 157.95"/><g class="cls-96"><g class="cls-37"><polygon class="cls-97" points="41.8 160.2 34.6 156.18 62.79 155.38 66.29 145.74 110.33 162.37 108 166.57 70.16 151.03 70.16 163.46 42.37 160.37 41.8 160.2"/></g></g><path class="cls-15" d="M267.65,1506.38c14.35,17.17,38.82,24.46,71.45,24.76,23.56.21,58.9-5.59,73.26-24.92.25-.19,0-35.77,0-35.77H267.63C267.63,1470.63,267.39,1506.13,267.65,1506.38Z" transform="translate(-267.53 -1345.78)"/><g class="cls-98"><g class="cls-56"><path class="cls-99" d="M267.65,1506.38c14.35,17.17,38.82,24.46,71.45,24.76,23.56.21,58.9-5.59,73.26-24.92.25-.19,0-35.77,0-35.77H267.63C267.63,1470.63,267.39,1506.13,267.65,1506.38Z" transform="translate(-267.53 -1345.78)"/></g></g><path class="cls-100" d="M267.63,1470.44c0,16.9,31.62,28.59,71.86,28.59s72.86-11.7,72.86-28.59c-.36-9.89-30.36-26.89-72.86-25.59C299.25,1444.85,268,1459.55,267.63,1470.44Z" transform="translate(-267.53 -1345.78)"/><path id="_Clipping_Path_23" data-name="&lt;Clipping Path&gt;" class="cls-2" d="M285.72,1466.16c0,10.27,23.72,17.39,53.9,17.39s54.65-7.11,54.65-17.39c-.27-6-22.77-16.35-54.65-15.56C309.44,1450.6,286,1459.54,285.72,1466.16Z" transform="translate(-267.53 -1345.78)"/><g class="cls-101"><g class="cls-37"><path class="cls-102" d="M399.89,1458.56l-47.81-12.62-51,1.3-18.95,17.22s2.94,5.2,3.85,7.09c-1-2-2-2,1.1-5.54,9.42-8.09,30.3-13.71,54.55-13.71,33.07,0,59.88,10.46,59.89,23.36l6.79-3.21Z" transform="translate(-267.53 -1345.78)"/></g></g><polygon class="cls-16" points="39.6 118.95 79.44 132.93 79.44 122.05 105.32 125.16 67.49 109.62 67.49 122.05 39.6 118.95"/><g class="cls-103"><g class="cls-37"><polygon class="cls-104" points="41.8 121.2 34.6 117.18 62.79 116.38 66.29 106.74 110.33 123.36 108 127.57 70.16 112.03 70.16 124.46 42.37 121.36 41.8 121.2"/></g></g><g class="cls-105"><path class="cls-106" d="M398.64,1626.67s-15-1.12-21-3.12S399,1592.39,399,1592.39l.56-53.87a21.52,21.52,0,0,1,10.31-18.17,123.67,123.67,0,0,1,43.36-16.25l-7.55,121.44S406.62,1627.8,398.64,1626.67Z" transform="translate(-267.53 -1345.78)"/></g><path class="cls-18" d="M408.65,1641.38c14.35,17.17,38.82,24.46,71.45,24.76,23.56.21,58.9-5.59,73.26-24.92.25-.19,0-35.77,0-35.77H408.63C408.63,1605.63,408.39,1641.13,408.65,1641.38Z" transform="translate(-267.53 -1345.78)"/><g class="cls-107"><g class="cls-56"><path class="cls-108" d="M408.65,1641.38c14.35,17.17,38.82,24.46,71.45,24.76,23.56.21,58.9-5.59,73.26-24.92.25-.19,0-35.77,0-35.77H408.63C408.63,1605.63,408.39,1641.13,408.65,1641.38Z" transform="translate(-267.53 -1345.78)"/></g></g><path class="cls-109" d="M408.63,1605.44c0,16.9,31.62,28.59,71.86,28.59s72.86-11.7,72.86-28.59c-.36-9.89-30.36-26.89-72.86-25.59C440.25,1579.85,409,1594.55,408.63,1605.44Z" transform="translate(-267.53 -1345.78)"/><path id="_Clipping_Path_24" data-name="&lt;Clipping Path&gt;" class="cls-2" d="M426.72,1601.16c0,10.27,23.72,17.39,53.9,17.39s54.65-7.11,54.65-17.39c-.27-6-22.77-16.35-54.65-15.56C450.44,1585.6,427,1594.54,426.72,1601.16Z" transform="translate(-267.53 -1345.78)"/><g class="cls-110"><g class="cls-37"><path class="cls-111" d="M540.89,1593.56l-47.81-12.62-51,1.3-18.95,17.22s2.94,5.2,3.85,7.09c-1-2-2-2,1.1-5.54,9.42-8.09,30.3-13.71,54.55-13.71,33.07,0,59.88,10.46,59.89,23.36l6.79-3.21Z" transform="translate(-267.53 -1345.78)"/></g></g><polygon class="cls-19" points="180.6 253.95 220.44 267.93 220.44 257.05 246.32 260.16 208.49 244.62 208.49 257.05 180.6 253.95"/><g class="cls-112"><g class="cls-37"><polygon class="cls-113" points="182.8 256.2 175.6 252.18 203.79 251.38 207.29 241.74 251.33 258.37 249 262.57 211.16 247.03 211.16 259.46 183.37 256.37 182.8 256.2"/></g></g><path class="cls-20" d="M408.65,1602.38c14.35,17.17,38.82,24.46,71.45,24.76,23.56.21,58.9-5.59,73.26-24.92.25-.19,0-35.77,0-35.77H408.63C408.63,1566.63,408.39,1602.13,408.65,1602.38Z" transform="translate(-267.53 -1345.78)"/><g class="cls-114"><g class="cls-56"><path class="cls-115" d="M408.65,1602.38c14.35,17.17,38.82,24.46,71.45,24.76,23.56.21,58.9-5.59,73.26-24.92.25-.19,0-35.77,0-35.77H408.63C408.63,1566.63,408.39,1602.13,408.65,1602.38Z" transform="translate(-267.53 -1345.78)"/></g></g><path class="cls-116" d="M408.63,1566.44c0,16.9,31.62,28.59,71.86,28.59s72.86-11.7,72.86-28.59c-.36-9.89-30.36-26.89-72.86-25.59C440.25,1540.85,409,1555.55,408.63,1566.44Z" transform="translate(-267.53 -1345.78)"/><path id="_Clipping_Path_25" data-name="&lt;Clipping Path&gt;" class="cls-2" d="M426.72,1562.16c0,10.27,23.72,17.39,53.9,17.39s54.65-7.11,54.65-17.39c-.27-6-22.77-16.35-54.65-15.56C450.44,1546.6,427,1555.54,426.72,1562.16Z" transform="translate(-267.53 -1345.78)"/><g class="cls-117"><g class="cls-37"><path class="cls-118" d="M540.89,1554.56l-47.81-12.62-51,1.3-18.95,17.22s2.94,5.2,3.85,7.09c-1-2-2-2,1.1-5.54,9.42-8.09,30.3-13.71,54.55-13.71,33.07,0,59.88,10.46,59.89,23.36l6.79-3.21Z" transform="translate(-267.53 -1345.78)"/></g></g><polygon class="cls-21" points="180.6 214.95 220.44 228.93 220.44 218.05 246.32 221.16 208.49 205.62 208.49 218.05 180.6 214.95"/><g class="cls-119"><g class="cls-37"><polygon class="cls-120" points="182.8 217.2 175.6 213.18 203.79 212.38 207.29 202.74 251.33 219.37 249 223.57 211.16 208.03 211.16 220.46 183.37 217.37 182.8 217.2"/></g></g><path class="cls-22" d="M408.65,1563.38c14.35,17.17,38.82,24.46,71.45,24.76,23.56.21,58.9-5.59,73.26-24.92.25-.19,0-35.77,0-35.77H408.63C408.63,1527.63,408.39,1563.13,408.65,1563.38Z" transform="translate(-267.53 -1345.78)"/><g class="cls-121"><g class="cls-56"><path class="cls-122" d="M408.65,1563.38c14.35,17.17,38.82,24.46,71.45,24.76,23.56.21,58.9-5.59,73.26-24.92.25-.19,0-35.77,0-35.77H408.63C408.63,1527.63,408.39,1563.13,408.65,1563.38Z" transform="translate(-267.53 -1345.78)"/></g></g><path class="cls-123" d="M408.63,1527.44c0,16.9,31.62,28.59,71.86,28.59s72.86-11.7,72.86-28.59c-.36-9.89-30.36-26.89-72.86-25.59C440.25,1501.85,409,1516.55,408.63,1527.44Z" transform="translate(-267.53 -1345.78)"/><path id="_Clipping_Path_26" data-name="&lt;Clipping Path&gt;" class="cls-2" d="M426.72,1523.16c0,10.27,23.72,17.39,53.9,17.39s54.65-7.11,54.65-17.39c-.27-6-22.77-16.35-54.65-15.56C450.44,1507.6,427,1516.54,426.72,1523.16Z" transform="translate(-267.53 -1345.78)"/><g class="cls-124"><g class="cls-37"><path class="cls-125" d="M540.89,1515.56l-47.81-12.62-51,1.3-18.95,17.22s2.94,5.2,3.85,7.09c-1-2-2-2,1.1-5.54,9.42-8.09,30.3-13.71,54.55-13.71,33.07,0,59.88,10.46,59.89,23.36l6.79-3.21Z" transform="translate(-267.53 -1345.78)"/></g></g><polygon class="cls-23" points="180.6 175.95 220.44 189.93 220.44 179.05 246.32 182.16 208.49 166.62 208.49 179.05 180.6 175.95"/><g class="cls-126"><g class="cls-37"><polygon class="cls-127" points="182.8 178.2 175.6 174.18 203.79 173.38 207.29 163.74 251.33 180.37 249 184.57 211.16 169.03 211.16 181.46 183.37 178.37 182.8 178.2"/></g></g><g class="cls-105"><path class="cls-128" d="M392.25,1553.88s-64.36-.95-69.25,60.67c-1.06,13.4.95,24.31,4.92,33.18,21.08,1.82,67-.52,67-.52Z" transform="translate(-267.53 -1345.78)"/></g><path class="cls-24" d="M394,1685.22a65.67,65.67,0,1,1,0-131.35h12v131.35Z" transform="translate(-267.53 -1345.78)"/><g class="cls-129"><g class="cls-56"><rect class="cls-130" x="45.49" y="231.34" width="113.45" height="114.74"/></g></g><circle class="cls-25" cx="138.46" cy="273.77" r="65.67"/><g class="cls-131"><circle class="cls-2" cx="138.46" cy="273.77" r="53.68"/><g class="cls-132"><g class="cls-37"><path class="cls-133" d="M441.78,1673.23l29-42.86-3-45.69-65.3-28L348.81,1581v40a53.68,53.68,0,1,1,53.69,53.68l7.37,6.09Z" transform="translate(-267.53 -1345.78)"/></g></g><polygon class="cls-26" points="143.82 244.32 111.69 280.02 136.68 280.02 129.54 303.23 165.24 269.31 136.68 269.31 143.82 244.32"/><g class="cls-134"><g class="cls-37"><polygon class="cls-135" points="138.65 246.29 147.87 239.83 149.72 265.1 171.85 268.24 133.67 307.71 124 305.63 159.71 271.71 131.14 271.71 138.26 246.8 138.65 246.29"/></g></g><g class="cls-105"><polygon class="cls-136" points="75.74 220.09 204.13 333.54 65.23 358.81 30.36 273.77 75.74 220.09"/></g></g></g></g></g></svg>