<svg id="basic" xmlns="http://www.w3.org/2000/svg" viewBox="0 0 266.17 266.67"><defs><style>.cls-1,.cls-3{fill:none;stroke:#333;stroke-linecap:round;stroke-linejoin:round;}.cls-1{stroke-width:16.67px;}.cls-2{fill:#333;}.cls-3{stroke-width:16.67px;}</style></defs><title>img-blockchain</title><g id="blockchain"><path class="cls-1" d="M1833.75,1494.55v67.09a22.88,22.88,0,0,0,11.64,20.06l75,41.56a21.52,21.52,0,0,0,20.69.13l75.75-40.75a22.87,22.87,0,0,0,11.87-20.19v-68a22.87,22.87,0,0,0-11.79-20.14L1942,1433.6a21.52,21.52,0,0,0-20.54,0l-75.85,40.81A22.87,22.87,0,0,0,1833.75,1494.55Z" transform="translate(-1798.42 -1395.17)"/><path class="cls-2" d="M1923,1476.3a52.08,52.08,0,0,1,14.74-.37,47,47,0,0,1,22.93,8.69,9.86,9.86,0,0,1,2,14.27l-.89,1.09a9.87,9.87,0,0,1-12.05,2.61,27.89,27.89,0,0,0-9.08-2.8h-.13a36.82,36.82,0,0,0-8-1c-18,0-28.6,14.36-28.6,28.73a34.44,34.44,0,0,0,.75,7.12c3.25,13.62,16.11,25,35.85,20.74h.13a23,23,0,0,0,9-3.31,9.81,9.81,0,0,1,12.65,2.29l.72.88a9.87,9.87,0,0,1-1.44,13.87c-5.34,4.37-13.51,9.31-23.83,10.12a52.23,52.23,0,0,1-14.74-.37c-23.86-3.75-43.72-25.86-43.72-51.21S1899,1480,1923,1476.3Z" transform="translate(-1798.42 -1395.17)"/><line class="cls-3" x1="141.48" y1="168.98" x2="141.48" y2="190.71"/><line class="cls-3" x1="141.48" y1="74.46" x2="141.48" y2="94.93"/><line class="cls-3" x1="118.64" y1="167.13" x2="118.64" y2="190.71"/><line class="cls-3" x1="118.64" y1="74.46" x2="118.64" y2="96.85"/><line class="cls-1" x1="224.43" y1="83.82" x2="257.83" y2="50.08"/><line class="cls-1" x1="222.97" y1="184.22" x2="257.83" y2="219.08"/><line class="cls-1" x1="41.52" y1="83.59" x2="8.33" y2="50.08"/><line class="cls-1" x1="43.4" y1="184.01" x2="8.33" y2="219.08"/><line class="cls-1" x1="132.83" y1="230.8" x2="132.83" y2="258.33"/><line class="cls-1" x1="132.83" y1="8.33" x2="132.83" y2="35.8"/></g></svg>