<svg id="basic" xmlns="http://www.w3.org/2000/svg" viewBox="0 0 266.67 266.67"><defs><style>.cls-1{fill:none;stroke:#333;stroke-linecap:round;stroke-linejoin:round;stroke-width:16.67px;}</style></defs><title>img-metaverse</title><g id="metaverse"><path class="cls-1" d="M2055.07,1553.5c-8.57,56.67-60.53,100-123.57,100-69.11,0-125-52.17-125-116.67,0-53,37.68-97.5,89.29-111.83v20.17c0,4.67,3.93,8.33,8.93,8.33h44.64v41.67c0,4.67,3.93,8.33,8.93,8.33h44.64v41.67c0,4.67,3.93,8.33,8.93,8.33Z" transform="translate(-1798.17 -1395.17)"/><path class="cls-1" d="M1858.66,1447.69c8.42,7.86,12,16.84,7.22,25.81-1,21.66,16.84,38.16,22.85,40.4,13.23,4.49,56.52,24.69,56.52,24.69s-13.23,19.08-8.42,26.94,22.85,16.84,20.44,24.69-6,29.18-18,47.14c1.2,4.49,3.61,6.73,7.22,2.24s13.23-18,16.84-18,16.84-10.1,24.05-20.2,42.39-23,14.43-50.51c-9.62-7.86-1.2-9-12-13.47-10.82-2.24-37.56-7.35-45.8-4-22.55-4.95-42-18.42-40.78-30.76,2.41-2.24,0-11.22,25.25-9,12,1.46,10.82-5.61,15.63-12.35" transform="translate(-1798.17 -1395.17)"/><rect class="cls-1" x="213.69" y="58.33" width="44.64" height="41.67"/><rect class="cls-1" x="160.12" y="8.33" width="44.64" height="41.67"/></g></svg>