<svg id="basic" xmlns="http://www.w3.org/2000/svg" viewBox="0 0 246.22 267.27"><defs><style>.cls-1{fill:#828282;}</style></defs><title>img-desaprove</title><path class="cls-1" d="M929.92,1611.14a9.64,9.64,0,0,1-9.18-12.6l27.61-85.75H856a9.64,9.64,0,0,1-7.18-16.08L982.9,1347.07a9.64,9.64,0,0,1,16.49,9l-25.18,92.45H1083a9.64,9.64,0,0,1,6.59,16.68l-153,143.35A9.64,9.64,0,0,1,929.92,1611.14Zm-52.29-117.64h84a9.64,9.64,0,0,1,9.18,12.6L950.52,1569l108-101.2h-97a9.64,9.64,0,0,1-9.31-12.18l17.79-65.3Z" transform="translate(-846.39 -1343.86)"/></svg>