<svg id="basic" xmlns="http://www.w3.org/2000/svg" viewBox="0 0 267.22 267.25"><defs><style>.cls-1{fill:#d93e20;}.cls-2{fill:#ff4a25;}.cls-3{fill:#ffd501;}.cls-4{fill:#11b347;}.cls-5{fill:#0e993d;}.cls-6{fill:#167ee6;}</style></defs><title>img-google</title><g id="google_icon" data-name="google icon"><path class="cls-1" d="M1032.83,1414.55l25.47-25.47A8.35,8.35,0,0,0,1058,1377c-12.13-11.09-42-33.12-88.13-33.12-61.62,0-103.19,42.31-115.06,66.81-13.36,24.5-34.89,74.24,0,133.62s90.57,65.33,115.06,66.81c64.38,0,140.3-54.19,132.7-145.4-.52-6.21-3.7-11.23-9.93-11.23H983.86a8,8,0,0,0-8,8V1498a8.48,8.48,0,0,0,8.48,8.48h61.31s-7.42,26-34.89,41.57c-37.86,21.53-86.11,11.14-111.35-29.69-19.3-34.89-6.68-71.27,0-81.66,9.65-14.1,29-39.34,70.52-40.83,24.92,0,42.94,12,51.53,19.19A8.46,8.46,0,0,0,1032.83,1414.55Z" transform="translate(-835.89 -1343.88)"/><path class="cls-2" d="M969.88,1343.88c-61.62,0-103.19,42.31-115.06,66.81-13.36,24.5-34.89,74.24,0,133.62s90.57,65.33,115.06,66.81c64.38,0,140.3-54.19,132.7-145.4-.52-6.21-3.7-11.23-9.93-11.23H983.86a8,8,0,0,0-8,8V1498a8.48,8.48,0,0,0,8.48,8.48h61.31s-7.42,26-34.89,41.57c-37.86,21.53-86.11,11.14-111.35-29.69-19.3-34.89-6.68-71.27,0-81.66,9.65-14.1,29-39.34,70.52-40.83Z" transform="translate(-835.89 -1343.88)"/><path class="cls-3" d="M854.81,1410.69c-13.36,24.5-34.89,74.24,0,133.62s90.57,65.33,115.06,66.81c64.38,0,140.3-54.19,132.7-145.4-.52-6.21-3.7-11.23-9.93-11.23H983.86a8,8,0,0,0-8,8V1498a8.48,8.48,0,0,0,8.48,8.48h61.31s-7.42,26-34.89,41.57c-37.86,21.53-86.11,11.14-111.35-29.69-19.3-34.89-6.68-71.27,0-81.66C871.89,1421.08,874.86,1422.57,854.81,1410.69Z" transform="translate(-835.89 -1343.88)"/><path class="cls-4" d="M854.81,1544.31c34.89,59.39,90.57,65.33,115.06,66.81,64.38,0,140.3-54.19,132.7-145.4-.52-6.21-3.7-11.23-9.93-11.23H983.86a8,8,0,0,0-8,8V1498a8.48,8.48,0,0,0,8.48,8.48h61.31s-7.42,26-34.89,41.57c-37.86,21.53-86.11,11.14-111.35-29.69C883.76,1527.24,874.86,1532.43,854.81,1544.31Z" transform="translate(-835.89 -1343.88)"/><path class="cls-5" d="M969.88,1611.12c64.38,0,140.3-54.19,132.7-145.4-.52-6.21-3.7-11.23-9.93-11.23H983.86a8,8,0,0,0-8,8V1498a8.48,8.48,0,0,0,8.48,8.48h61.31s-7.42,26-34.89,41.57A82.64,82.64,0,0,1,969.88,1559C970.25,1570.66,970.25,1598.87,969.88,1611.12Z" transform="translate(-835.89 -1343.88)"/><path class="cls-6" d="M1036.49,1592.61c40.09-23.12,71.08-67,66.09-126.89-.52-6.21-3.7-11.23-9.93-11.23H983.86a8,8,0,0,0-8,8V1498a8.48,8.48,0,0,0,8.48,8.48h61.31s-7.42,26-34.89,41.57C1017,1559.53,1028.89,1581.06,1036.49,1592.61Z" transform="translate(-835.89 -1343.88)"/></g></svg>