<svg id="basic" xmlns="http://www.w3.org/2000/svg" viewBox="0 0 266.67 266.67"><defs><style>.cls-1{fill:none;stroke-linecap:round;stroke-linejoin:round;stroke-width:16.67px;}.cls-1,.cls-2{stroke:#333;}.cls-2{fill:#333;stroke-miterlimit:10;stroke-width:8.33px;}</style></defs><title>img-web</title><g id="web-app"><rect class="cls-1" x="8.33" y="8.33" width="250" height="250" rx="28.33" ry="28.33"/><path class="cls-1" d="M34.19,8.33H232.47a25.86,25.86,0,0,1,25.86,25.86V83.33a0,0,0,0,1,0,0H8.33a0,0,0,0,1,0,0V34.19A25.86,25.86,0,0,1,34.19,8.33Z"/><path class="cls-2" d="M1895.11,1597.68a23.47,23.47,0,0,1-.16,3,3.62,3.62,0,0,1-.49,1.61.94.94,0,0,1-.91.41,3.88,3.88,0,0,1-1.37-.51L1834.46,1573a2.78,2.78,0,0,1-1.17-1.76,14,14,0,0,1-.46-4c0-.78.07-1.51.13-2.2a6.73,6.73,0,0,1,.36-1.68,4.76,4.76,0,0,1,.59-1.13,1.61,1.61,0,0,1,.78-.63l57.49-29c1.11-.54,1.89-.51,2.31.07s.62,2,.62,4.32q0,2.12-.1,3.37a8.77,8.77,0,0,1-.39,2,2.33,2.33,0,0,1-.72,1.17,6.94,6.94,0,0,1-1.37.85l-47.17,23.07,46.88,22.71a11.17,11.17,0,0,1,1.5.92,2.33,2.33,0,0,1,.85,1.17,8.7,8.7,0,0,1,.42,2.05C1895.07,1595.13,1895.11,1596.26,1895.11,1597.68Z" transform="translate(-1798.17 -1395.17)"/><path class="cls-2" d="M1914.8,1627.19a4.64,4.64,0,0,1-.75,1.51,3.33,3.33,0,0,1-1.24.84,7.57,7.57,0,0,1-1.79.44,19.11,19.11,0,0,1-2.6.15,15.71,15.71,0,0,1-3-.25,5,5,0,0,1-1.86-.73,1.91,1.91,0,0,1-.81-1.17,2.67,2.67,0,0,1,.29-1.65l44.3-121.51a3.93,3.93,0,0,1,.78-1.5,3.47,3.47,0,0,1,1.17-.88,5,5,0,0,1,1.79-.44,24.16,24.16,0,0,1,2.64-.11,14.45,14.45,0,0,1,3,.26,5.23,5.23,0,0,1,1.82.69,1.75,1.75,0,0,1,.81,1.17,2.92,2.92,0,0,1-.23,1.68Z" transform="translate(-1798.17 -1395.17)"/><path class="cls-2" d="M2030.17,1567.5a15.06,15.06,0,0,1-.16,2.23,10.31,10.31,0,0,1-.36,1.73,2.93,2.93,0,0,1-.59,1.14,3,3,0,0,1-.81.62l-57.49,29a4.26,4.26,0,0,1-1.4.41,1,1,0,0,1-.91-.48,3.43,3.43,0,0,1-.46-1.57,16.21,16.21,0,0,1-.16-2.75c0-1.37,0-2.47.07-3.3a9.22,9.22,0,0,1,.33-2,2.71,2.71,0,0,1,.78-1.21,5.07,5.07,0,0,1,1.33-.81l47.23-23.22-46.94-22.63a9,9,0,0,1-1.53-.85,2.27,2.27,0,0,1-.81-1.2,6.83,6.83,0,0,1-.39-2.08c0-.85-.07-2-.07-3.41a18.09,18.09,0,0,1,.16-3,3.18,3.18,0,0,1,.46-1.53.9.9,0,0,1,.91-.41,4.25,4.25,0,0,1,1.4.51l57.71,29.08a3,3,0,0,1,1.2,1.79A12.6,12.6,0,0,1,2030.17,1567.5Z" transform="translate(-1798.17 -1395.17)"/></g></svg>