<svg id="basic" xmlns="http://www.w3.org/2000/svg" xmlns:xlink="http://www.w3.org/1999/xlink" viewBox="0 0 266.72 266.72"><defs><style>.cls-1{fill:url(#linear-gradient);}.cls-2{fill:#fff;}.cls-3{stroke-linejoin:round;stroke-width:13.34px;fill:url(#linear-gradient-2);stroke:url(#linear-gradient-2);}</style><linearGradient id="linear-gradient" x1="1102.86" y1="-395.5" x2="842.42" y2="-395.5" gradientTransform="matrix(1, 0, 0, -1, 0, 1082)" gradientUnits="userSpaceOnUse"><stop offset="0" stop-color="#30f"/><stop offset="1" stop-color="#b41d8d"/></linearGradient><linearGradient id="linear-gradient-2" x1="1058.96" y1="-397.02" x2="1007.2" y2="-397.02" xlink:href="#linear-gradient"/></defs><title>img-service</title><path class="cls-1" d="M836.14,1561.17l1-170.41c0-6.1,5.89-9.33,8.83-10.17l36.32-11.19v67.15l29.94-5.6v-70.71c13.09-3.9,41.13-12.31,48.59-14.75a33.18,33.18,0,0,1,18.65,0c36,10.68,109.64,33,116.32,36.62s6.86,8.14,6.87,11.19c.16,52.22.39,158.61,0,166.34s-4.42,11.36-6.38,12.21C1059.45,1583.72,984,1608,976.51,1610s-14.54,0-19.63-1.53c-35.66-10.68-108.47-33.78-114.35-36.63S836.14,1564.73,836.14,1561.17Z" transform="translate(-836.14 -1344.14)"/><path class="cls-2" d="M982.89,1579.48V1376l101.1,29v144.46Z" transform="translate(-836.14 -1344.14)"/><path class="cls-3" d="M1006,1485.19l31.4-36.66-6.74,25.75H1059l-35.64,35.22,7.29-24Z" transform="translate(-836.14 -1344.14)"/></svg>