<svg id="basic" xmlns="http://www.w3.org/2000/svg" xmlns:xlink="http://www.w3.org/1999/xlink" viewBox="0 0 267.95 267.95"><defs><style>.cls-1{fill:url(#linear-gradient);}.cls-2{fill:url(#linear-gradient-2);}</style><linearGradient id="linear-gradient" x1="1092.98" y1="-395.5" x2="851.83" y2="-395.5" gradientTransform="matrix(1, 0, 0, -1, 0, 1082)" gradientUnits="userSpaceOnUse"><stop offset="0" stop-color="#30f"/><stop offset="1" stop-color="#b41d8d"/></linearGradient><linearGradient id="linear-gradient-2" x1="1043.59" y1="-395.5" x2="898.9" y2="-395.5" xlink:href="#linear-gradient"/></defs><title>img-checkedcircle</title><path class="cls-1" d="M969.5,1611.48c-73.87,0-134-60.1-134-134s60.1-134,134-134,134,60.1,134,134S1043.38,1611.48,969.5,1611.48Zm0-247a113,113,0,1,0,113,113A113.11,113.11,0,0,0,969.5,1364.52Z" transform="translate(-835.52 -1343.52)"/><path class="cls-2" d="M969.5,1403.41h0a74.09,74.09,0,0,1,74.09,74.09h0a74.09,74.09,0,0,1-74.09,74.09h0a74.09,74.09,0,0,1-74.09-74.09h0A74.09,74.09,0,0,1,969.5,1403.41Z" transform="translate(-835.52 -1343.52)"/></svg>