<svg id="basic" xmlns="http://www.w3.org/2000/svg" viewBox="0 0 266.53 266.67"><defs><style>.cls-1,.cls-2{fill:none;stroke:#333;stroke-linecap:round;stroke-linejoin:round;}.cls-1{stroke-width:16.67px;}.cls-2{stroke-width:15.08px;}</style></defs><title>img-nocode</title><g id="no-code"><path class="cls-1" d="M1840,1532.41s-33,2.28-33.42,58q0,1.22,0,2.42c.77,33,26.81,59.33,58.45,59.59l125.17,1.12c25.65.21,54.11-15.68,63.79-40.5,5.49-14.08,1.55-45.75-10.91-56.95,22.47-74.8-32.53-89.8-32.53-89.8s-3-63-54.65-62.75c-26,0-51.28,23.18-58.51,52.64C1845.58,1455.9,1834.57,1499.25,1840,1532.41Z" transform="translate(-1798.23 -1395.17)"/><path class="cls-2" d="M1992.76,1553.86c-.69-18.28,15.16-12.18,7.58-28.43-5.51-12.18-15.16-.68-25.5-10.83-12.4-10.15,6.85-15.59-10.33-25-11.84-7.52-11.84,9.46-24.27,9.42-16.58,0-16.58-16.94-28.42-9.42-13,9.46-.59,13.7-10.33,25-10.34,10.15-15.84-1.35-21.36,10.83-7.58,16.25,8.27,10.15,7.58,28.43-.69,15.57-15.85,11.51-9.65,27.07,5.51,12.86,16.54-2.71,26.88,14.89,6.89,11.51-2.07,16.92,9.65,22.34,11.34,5.24,12.46-8.42,25.65-8.7,13.18.27,14.3,13.94,25.64,8.7,11.72-5.42,2.76-10.83,9.65-22.34,10.34-17.6,21.36-2,26.88-14.89C2008.61,1565.37,1993.45,1569.43,1992.76,1553.86Z" transform="translate(-1798.23 -1395.17)"/><ellipse class="cls-2" cx="142.01" cy="158.33" rx="29.38" ry="30.39"/></g></svg>