<svg id="basic" xmlns="http://www.w3.org/2000/svg" viewBox="0 0 266.67 266.92"><defs><style>.cls-1,.cls-2,.cls-3{fill:none;stroke:#333;}.cls-1,.cls-2{stroke-linecap:round;stroke-linejoin:round;}.cls-1{stroke-width:16.67px;}.cls-2,.cls-3{stroke-width:16.67px;}.cls-3{stroke-miterlimit:10;}</style></defs><title>img-bot</title><g id="bot"><line class="cls-1" x1="171.33" y1="37.33" x2="171.33" y2="8.33"/><line class="cls-2" x1="133.33" y1="173.33" x2="133.33" y2="141.72"/><path class="cls-2" d="M2056.5,1592.61c0-12.86-12.44-23.29-27.78-23.29H1834c-15.17,0-27.47,10.43-27.47,23.29h0c0,33.69,46.67,61,125.28,61C2057.61,1654.55,2056.5,1592.61,2056.5,1592.61Z" transform="translate(-1798.17 -1395.04)"/><path class="cls-2" d="M1985.76,1433.74H1872.64c-17.3,0-31.33,11.89-31.33,26.56v49.9c0,14.67,14,26.56,31.33,26.56h113.13c17.3,0,31.33-11.89,31.33-26.56v-49.9C2017.09,1445.63,2003.07,1433.74,1985.76,1433.74Z" transform="translate(-1798.17 -1395.04)"/><ellipse class="cls-3" cx="171.55" cy="88.2" rx="16.58" ry="16.67"/><ellipse class="cls-3" cx="90.48" cy="88.2" rx="16.58" ry="16.67"/></g></svg>