<svg id="basic" xmlns="http://www.w3.org/2000/svg" viewBox="0 0 266.67 266.67"><defs><style>.cls-1,.cls-3{fill:none;stroke:#333;}.cls-1{stroke-miterlimit:10;stroke-width:16.67px;}.cls-2{fill:#333;}.cls-3{stroke-linecap:round;stroke-linejoin:round;stroke-width:23.12px;}</style></defs><title>img-crypto</title><g id="crypto"><circle class="cls-1" cx="133.33" cy="133.33" r="125"/><path class="cls-2" d="M1923.55,1457.39a72.24,72.24,0,0,1,20.45-.52,65.17,65.17,0,0,1,31.81,12,13.68,13.68,0,0,1,2.72,19.79l-1.23,1.52a13.69,13.69,0,0,1-16.72,3.62A38.68,38.68,0,0,0,1948,1490h-.17a51.07,51.07,0,0,0-11.09-1.39c-24.95,0-39.68,19.92-39.68,39.85a47.77,47.77,0,0,0,1,9.88c4.5,18.89,22.35,34.65,49.73,28.76h.17a31.84,31.84,0,0,0,12.53-4.59,13.61,13.61,0,0,1,17.55,3.18l1,1.22a13.7,13.7,0,0,1-2,19.24c-7.4,6.05-18.74,12.91-33,14a72.45,72.45,0,0,1-20.45-.52c-33.09-5.2-60.64-35.87-60.64-71S1890.28,1462.58,1923.55,1457.39Z" transform="translate(-1798.17 -1395.17)"/><line class="cls-3" x1="148.81" y1="184.07" x2="148.81" y2="214.21"/><line class="cls-3" x1="148.81" y1="52.95" x2="148.81" y2="81.36"/><line class="cls-3" x1="117.13" y1="181.51" x2="117.13" y2="214.21"/><line class="cls-3" x1="117.13" y1="52.95" x2="117.13" y2="84.02"/></g></svg>