<svg id="basic" xmlns="http://www.w3.org/2000/svg" viewBox="0 0 267 266.68"><defs><style>.cls-1,.cls-2{fill:none;}.cls-1,.cls-2,.cls-3{stroke:#333;stroke-linecap:round;stroke-linejoin:round;}.cls-1{stroke-width:16.68px;}.cls-2{stroke-width:20.01px;}.cls-3{fill:#fff;stroke-width:17.32px;}</style></defs><title>img-productivity</title><g id="productivity"><path class="cls-1" d="M1997.84,1542c-1.14-31.1,25-20.73,12.48-48.38-9.08-20.73-25-1.15-42-18.43-20.43-17.28,11.27-26.53-17-42.62-19.5-12.8-19.5,16.09-40,16-27.31.06-27.31-28.83-46.81-16-21.46,16.09-1,23.31-17,42.62-17,17.28-26.09-2.3-35.17,18.43-12.48,27.64,13.62,17.28,12.49,48.38-1.14,26.49-26.1,19.58-15.89,46.07,9.08,21.89,27.24-4.61,44.26,25.34,11.35,19.58-3.4,28.79,15.89,38,18.68,8.92,20.53-14.33,42.24-14.8,21.71.46,23.55,23.72,42.23,14.8,19.3-9.22,4.54-18.43,15.89-38,17-29.95,35.18-3.46,44.26-25.34C2023.94,1561.62,1999,1568.53,1997.84,1542Z" transform="translate(-1798.16 -1395.16)"/><ellipse class="cls-2" cx="113.18" cy="146.26" rx="48.39" ry="51.72"/><path class="cls-1" d="M2002.21,1403.5h-28.53c-3.45,0-6.24,3.59-6.24,8v4.58c0,4.43,2.79,8,6.24,8h5.66a16.59,16.59,0,0,0-.1,1.72v30.93c0,7.13,4.49,12.9,10,12.9s10-5.78,10-12.9v-30.93a16.59,16.59,0,0,0-.1-1.72h3c3.45,0,6.24-3.59,6.24-8v-4.58C2008.45,1407.09,2005.66,1403.5,2002.21,1403.5Z" transform="translate(-1798.16 -1395.16)"/><ellipse class="cls-3" cx="189.79" cy="122.89" rx="68.55" ry="81.62"/><line class="cls-1" x1="189.79" y1="71.17" x2="189.79" y2="105.65"/><ellipse class="cls-1" cx="189.79" cy="122.89" rx="16.13" ry="17.24"/></g></svg>